<svg xmlns="http://www.w3.org/2000/svg" viewBox="0 0 1625 2000">
  <circle cx="740" cy="588" r="4" fill="rgb(255,255,255)" stroke="none" />
  <circle cx="744" cy="584" r="4" fill="rgb(255,255,255)" stroke="none" />
  <circle cx="748" cy="588" r="4" fill="rgb(255,255,255)" stroke="none" />
  <circle cx="752" cy="588" r="4" fill="rgb(255,255,255)" stroke="none" />
  <circle cx="756" cy="584" r="4" fill="rgb(255,255,255)" stroke="none" />
  <circle cx="760" cy="588" r="4" fill="rgb(255,255,255)" stroke="none" />
  <circle cx="764" cy="588" r="4" fill="rgb(255,255,255)" stroke="none" />
  <circle cx="768" cy="588" r="4" fill="rgb(255,255,255)" stroke="none" />
  <circle cx="772" cy="592" r="4" fill="rgb(255,255,255)" stroke="none" />
  <circle cx="776" cy="596" r="4" fill="rgb(255,255,255)" stroke="none" />
  <circle cx="780" cy="600" r="4" fill="rgb(255,255,255)" stroke="none" />
  <circle cx="784" cy="604" r="4" fill="rgb(255,255,255)" stroke="none" />
  <circle cx="784" cy="608" r="4" fill="rgb(255,255,255)" stroke="none" />
  <circle cx="784" cy="612" r="4" fill="rgb(255,255,255)" stroke="none" />
  <circle cx="784" cy="616" r="4" fill="rgb(255,255,255)" stroke="none" />
  <circle cx="784" cy="620" r="4" fill="rgb(255,255,255)" stroke="none" />
  <circle cx="784" cy="624" r="4" fill="rgb(255,255,255)" stroke="none" />
  <circle cx="784" cy="628" r="4" fill="rgb(255,255,255)" stroke="none" />
  <circle cx="780" cy="632" r="4" fill="rgb(255,255,255)" stroke="none" />
  <circle cx="784" cy="632" r="4" fill="rgb(255,255,255)" stroke="none" />
  <circle cx="788" cy="632" r="4" fill="rgb(255,255,255)" stroke="none" />
  <circle cx="792" cy="632" r="4" fill="rgb(255,255,255)" stroke="none" />
  <circle cx="796" cy="632" r="4" fill="rgb(255,255,255)" stroke="none" />
  <circle cx="800" cy="632" r="4" fill="rgb(255,255,255)" stroke="none" />
  <circle cx="804" cy="632" r="4" fill="rgb(255,255,255)" stroke="none" />
  <circle cx="808" cy="632" r="4" fill="rgb(255,255,255)" stroke="none" />
  <circle cx="812" cy="632" r="4" fill="rgb(255,255,255)" stroke="none" />
  <circle cx="816" cy="632" r="4" fill="rgb(255,255,255)" stroke="none" />
  <circle cx="820" cy="632" r="4" fill="rgb(255,255,255)" stroke="none" />
  <circle cx="824" cy="632" r="4" fill="rgb(255,255,255)" stroke="none" />
  <circle cx="828" cy="636" r="4" fill="rgb(255,255,255)" stroke="none" />
  <circle cx="832" cy="636" r="4" fill="rgb(255,255,255)" stroke="none" />
  <circle cx="836" cy="636" r="4" fill="rgb(255,255,255)" stroke="none" />
  <circle cx="840" cy="636" r="4" fill="rgb(255,255,255)" stroke="none" />
  <circle cx="844" cy="636" r="4" fill="rgb(255,255,255)" stroke="none" />
  <circle cx="848" cy="636" r="4" fill="rgb(255,255,255)" stroke="none" />
  <circle cx="852" cy="640" r="4" fill="rgb(255,255,255)" stroke="none" />
  <circle cx="856" cy="640" r="4" fill="rgb(255,255,255)" stroke="none" />
  <circle cx="860" cy="640" r="4" fill="rgb(255,255,255)" stroke="none" />
  <circle cx="864" cy="640" r="4" fill="rgb(255,255,255)" stroke="none" />
  <circle cx="868" cy="640" r="4" fill="rgb(255,255,255)" stroke="none" />
  <circle cx="872" cy="640" r="4" fill="rgb(255,255,255)" stroke="none" />
  <circle cx="876" cy="644" r="4" fill="rgb(255,255,255)" stroke="none" />
  <circle cx="880" cy="644" r="4" fill="rgb(255,255,255)" stroke="none" />
  <circle cx="884" cy="644" r="4" fill="rgb(255,255,255)" stroke="none" />
  <circle cx="888" cy="644" r="4" fill="rgb(255,255,255)" stroke="none" />
  <circle cx="892" cy="644" r="4" fill="rgb(255,255,255)" stroke="none" />
  <circle cx="896" cy="648" r="4" fill="rgb(255,255,255)" stroke="none" />
  <circle cx="900" cy="648" r="4" fill="rgb(255,255,255)" stroke="none" />
  <circle cx="904" cy="648" r="4" fill="rgb(255,255,255)" stroke="none" />
  <circle cx="908" cy="648" r="4" fill="rgb(255,255,255)" stroke="none" />
  <circle cx="912" cy="648" r="4" fill="rgb(255,255,255)" stroke="none" />
  <circle cx="916" cy="652" r="4" fill="rgb(255,255,255)" stroke="none" />
  <circle cx="920" cy="652" r="4" fill="rgb(255,255,255)" stroke="none" />
  <circle cx="924" cy="656" r="4" fill="rgb(255,255,255)" stroke="none" />
  <circle cx="928" cy="656" r="4" fill="rgb(255,255,255)" stroke="none" />
  <circle cx="932" cy="660" r="4" fill="rgb(255,255,255)" stroke="none" />
  <circle cx="936" cy="660" r="4" fill="rgb(255,255,255)" stroke="none" />
  <circle cx="940" cy="664" r="4" fill="rgb(255,255,255)" stroke="none" />
  <circle cx="944" cy="664" r="4" fill="rgb(255,255,255)" stroke="none" />
  <circle cx="948" cy="668" r="4" fill="rgb(255,255,255)" stroke="none" />
  <circle cx="952" cy="672" r="4" fill="rgb(255,255,255)" stroke="none" />
  <circle cx="956" cy="672" r="4" fill="rgb(255,255,255)" stroke="none" />
  <circle cx="960" cy="676" r="4" fill="rgb(255,255,255)" stroke="none" />
  <circle cx="964" cy="680" r="4" fill="rgb(255,255,255)" stroke="none" />
  <circle cx="968" cy="684" r="4" fill="rgb(255,255,255)" stroke="none" />
  <circle cx="972" cy="688" r="4" fill="rgb(255,255,255)" stroke="none" />
  <circle cx="976" cy="688" r="4" fill="rgb(255,255,255)" stroke="none" />
  <circle cx="980" cy="692" r="4" fill="rgb(255,255,255)" stroke="none" />
  <circle cx="984" cy="696" r="4" fill="rgb(255,255,255)" stroke="none" />
  <circle cx="988" cy="696" r="4" fill="rgb(255,255,255)" stroke="none" />
  <circle cx="992" cy="700" r="4" fill="rgb(255,255,255)" stroke="none" />
  <circle cx="996" cy="704" r="4" fill="rgb(255,255,255)" stroke="none" />
  <circle cx="1000" cy="708" r="4" fill="rgb(255,255,255)" stroke="none" />
  <circle cx="1004" cy="712" r="4" fill="rgb(255,255,255)" stroke="none" />
  <circle cx="1008" cy="716" r="4" fill="rgb(255,255,255)" stroke="none" />
  <circle cx="1012" cy="720" r="4" fill="rgb(255,255,255)" stroke="none" />
  <circle cx="1012" cy="724" r="4" fill="rgb(255,255,255)" stroke="none" />
  <circle cx="1016" cy="728" r="4" fill="rgb(255,255,255)" stroke="none" />
  <circle cx="1020" cy="732" r="4" fill="rgb(255,255,255)" stroke="none" />
  <circle cx="1020" cy="736" r="4" fill="rgb(255,255,255)" stroke="none" />
  <circle cx="1020" cy="740" r="4" fill="rgb(255,255,255)" stroke="none" />
  <circle cx="1020" cy="744" r="4" fill="rgb(255,255,255)" stroke="none" />
  <circle cx="1024" cy="748" r="4" fill="rgb(255,255,255)" stroke="none" />
  <circle cx="1024" cy="752" r="4" fill="rgb(255,255,255)" stroke="none" />
  <circle cx="1024" cy="756" r="4" fill="rgb(255,255,255)" stroke="none" />
  <circle cx="1024" cy="760" r="4" fill="rgb(255,255,255)" stroke="none" />
  <circle cx="1024" cy="764" r="4" fill="rgb(255,255,255)" stroke="none" />
  <circle cx="1024" cy="768" r="4" fill="rgb(255,255,255)" stroke="none" />
  <circle cx="1024" cy="772" r="4" fill="rgb(255,255,255)" stroke="none" />
  <circle cx="1024" cy="776" r="4" fill="rgb(255,255,255)" stroke="none" />
  <circle cx="1024" cy="780" r="4" fill="rgb(255,255,255)" stroke="none" />
  <circle cx="1024" cy="784" r="4" fill="rgb(255,255,255)" stroke="none" />
  <circle cx="1024" cy="788" r="4" fill="rgb(255,255,255)" stroke="none" />
  <circle cx="1024" cy="792" r="4" fill="rgb(255,255,255)" stroke="none" />
  <circle cx="1024" cy="796" r="4" fill="rgb(255,255,255)" stroke="none" />
  <circle cx="1024" cy="800" r="4" fill="rgb(255,255,255)" stroke="none" />
  <circle cx="1020" cy="804" r="4" fill="rgb(255,255,255)" stroke="none" />
  <circle cx="1016" cy="808" r="4" fill="rgb(255,255,255)" stroke="none" />
  <circle cx="1012" cy="804" r="4" fill="rgb(255,255,255)" stroke="none" />
  <circle cx="1012" cy="800" r="4" fill="rgb(255,255,255)" stroke="none" />
  <circle cx="1016" cy="796" r="4" fill="rgb(255,255,255)" stroke="none" />
  <circle cx="1016" cy="792" r="4" fill="rgb(255,255,255)" stroke="none" />
  <circle cx="1016" cy="788" r="4" fill="rgb(255,255,255)" stroke="none" />
  <circle cx="1016" cy="784" r="4" fill="rgb(255,255,255)" stroke="none" />
  <circle cx="1016" cy="780" r="4" fill="rgb(255,255,255)" stroke="none" />
  <circle cx="1016" cy="776" r="4" fill="rgb(255,255,255)" stroke="none" />
  <circle cx="1016" cy="772" r="4" fill="rgb(255,255,255)" stroke="none" />
  <circle cx="1016" cy="768" r="4" fill="rgb(255,255,255)" stroke="none" />
  <circle cx="1016" cy="764" r="4" fill="rgb(255,255,255)" stroke="none" />
  <circle cx="1012" cy="760" r="4" fill="rgb(255,255,255)" stroke="none" />
  <circle cx="1012" cy="756" r="4" fill="rgb(255,255,255)" stroke="none" />
  <circle cx="1008" cy="752" r="4" fill="rgb(255,255,255)" stroke="none" />
  <circle cx="1008" cy="748" r="4" fill="rgb(255,255,255)" stroke="none" />
  <circle cx="1004" cy="744" r="4" fill="rgb(255,255,255)" stroke="none" />
  <circle cx="1004" cy="740" r="4" fill="rgb(255,255,255)" stroke="none" />
  <circle cx="1000" cy="736" r="4" fill="rgb(255,255,255)" stroke="none" />
  <circle cx="1000" cy="732" r="4" fill="rgb(255,255,255)" stroke="none" />
  <circle cx="996" cy="728" r="4" fill="rgb(255,255,255)" stroke="none" />
  <circle cx="996" cy="724" r="4" fill="rgb(255,255,255)" stroke="none" />
  <circle cx="992" cy="720" r="4" fill="rgb(255,255,255)" stroke="none" />
  <circle cx="988" cy="716" r="4" fill="rgb(255,255,255)" stroke="none" />
  <circle cx="988" cy="712" r="4" fill="rgb(255,255,255)" stroke="none" />
  <circle cx="984" cy="708" r="4" fill="rgb(255,255,255)" stroke="none" />
  <circle cx="980" cy="708" r="4" fill="rgb(255,255,255)" stroke="none" />
  <circle cx="984" cy="712" r="4" fill="rgb(255,255,255)" stroke="none" />
  <circle cx="984" cy="716" r="4" fill="rgb(255,255,255)" stroke="none" />
  <circle cx="988" cy="720" r="4" fill="rgb(255,255,255)" stroke="none" />
  <circle cx="988" cy="724" r="4" fill="rgb(255,255,255)" stroke="none" />
  <circle cx="988" cy="728" r="4" fill="rgb(255,255,255)" stroke="none" />
  <circle cx="992" cy="732" r="4" fill="rgb(255,255,255)" stroke="none" />
  <circle cx="992" cy="736" r="4" fill="rgb(255,255,255)" stroke="none" />
  <circle cx="992" cy="740" r="4" fill="rgb(255,255,255)" stroke="none" />
  <circle cx="996" cy="744" r="4" fill="rgb(255,255,255)" stroke="none" />
  <circle cx="996" cy="748" r="4" fill="rgb(255,255,255)" stroke="none" />
  <circle cx="996" cy="752" r="4" fill="rgb(255,255,255)" stroke="none" />
  <circle cx="996" cy="756" r="4" fill="rgb(255,255,255)" stroke="none" />
  <circle cx="996" cy="760" r="4" fill="rgb(255,255,255)" stroke="none" />
  <circle cx="996" cy="764" r="4" fill="rgb(255,255,255)" stroke="none" />
  <circle cx="996" cy="768" r="4" fill="rgb(255,255,255)" stroke="none" />
  <circle cx="1000" cy="772" r="4" fill="rgb(255,255,255)" stroke="none" />
  <circle cx="1000" cy="776" r="4" fill="rgb(255,255,255)" stroke="none" />
  <circle cx="1000" cy="780" r="4" fill="rgb(255,255,255)" stroke="none" />
  <circle cx="1000" cy="784" r="4" fill="rgb(255,255,255)" stroke="none" />
  <circle cx="1000" cy="788" r="4" fill="rgb(255,255,255)" stroke="none" />
  <circle cx="1000" cy="792" r="4" fill="rgb(255,255,255)" stroke="none" />
  <circle cx="1000" cy="796" r="4" fill="rgb(255,255,255)" stroke="none" />
  <circle cx="1000" cy="800" r="4" fill="rgb(255,255,255)" stroke="none" />
  <circle cx="1000" cy="804" r="4" fill="rgb(255,255,255)" stroke="none" />
  <circle cx="1000" cy="808" r="4" fill="rgb(255,255,255)" stroke="none" />
  <circle cx="1000" cy="812" r="4" fill="rgb(255,255,255)" stroke="none" />
  <circle cx="1000" cy="816" r="4" fill="rgb(255,255,255)" stroke="none" />
  <circle cx="1000" cy="820" r="4" fill="rgb(255,255,255)" stroke="none" />
  <circle cx="1000" cy="824" r="4" fill="rgb(255,255,255)" stroke="none" />
  <circle cx="1000" cy="828" r="4" fill="rgb(255,255,255)" stroke="none" />
  <circle cx="996" cy="832" r="4" fill="rgb(255,255,255)" stroke="none" />
  <circle cx="1000" cy="836" r="4" fill="rgb(255,255,255)" stroke="none" />
  <circle cx="1000" cy="840" r="4" fill="rgb(255,255,255)" stroke="none" />
  <circle cx="1000" cy="844" r="4" fill="rgb(255,255,255)" stroke="none" />
  <circle cx="1000" cy="848" r="4" fill="rgb(255,255,255)" stroke="none" />
  <circle cx="1004" cy="852" r="4" fill="rgb(255,255,255)" stroke="none" />
  <circle cx="1004" cy="856" r="4" fill="rgb(255,255,255)" stroke="none" />
  <circle cx="1008" cy="860" r="4" fill="rgb(255,255,255)" stroke="none" />
  <circle cx="1008" cy="864" r="4" fill="rgb(255,255,255)" stroke="none" />
  <circle cx="1012" cy="868" r="4" fill="rgb(255,255,255)" stroke="none" />
  <circle cx="1012" cy="872" r="4" fill="rgb(255,255,255)" stroke="none" />
  <circle cx="1016" cy="876" r="4" fill="rgb(255,255,255)" stroke="none" />
  <circle cx="1016" cy="880" r="4" fill="rgb(255,255,255)" stroke="none" />
  <circle cx="1016" cy="884" r="4" fill="rgb(255,255,255)" stroke="none" />
  <circle cx="1020" cy="888" r="4" fill="rgb(255,255,255)" stroke="none" />
  <circle cx="1020" cy="892" r="4" fill="rgb(255,255,255)" stroke="none" />
  <circle cx="1024" cy="896" r="4" fill="rgb(255,255,255)" stroke="none" />
  <circle cx="1024" cy="900" r="4" fill="rgb(255,255,255)" stroke="none" />
  <circle cx="1028" cy="904" r="4" fill="rgb(255,255,255)" stroke="none" />
  <circle cx="1028" cy="908" r="4" fill="rgb(255,255,255)" stroke="none" />
  <circle cx="1032" cy="912" r="4" fill="rgb(255,255,255)" stroke="none" />
  <circle cx="1032" cy="916" r="4" fill="rgb(255,255,255)" stroke="none" />
  <circle cx="1032" cy="920" r="4" fill="rgb(255,255,255)" stroke="none" />
  <circle cx="1032" cy="924" r="4" fill="rgb(255,255,255)" stroke="none" />
  <circle cx="1028" cy="928" r="4" fill="rgb(255,255,255)" stroke="none" />
  <circle cx="1024" cy="932" r="4" fill="rgb(255,255,255)" stroke="none" />
  <circle cx="1020" cy="936" r="4" fill="rgb(255,255,255)" stroke="none" />
  <circle cx="1016" cy="940" r="4" fill="rgb(255,255,255)" stroke="none" />
  <circle cx="1012" cy="940" r="4" fill="rgb(255,255,255)" stroke="none" />
  <circle cx="1008" cy="940" r="4" fill="rgb(255,255,255)" stroke="none" />
  <circle cx="1004" cy="944" r="4" fill="rgb(255,255,255)" stroke="none" />
  <circle cx="1000" cy="944" r="4" fill="rgb(255,255,255)" stroke="none" />
  <circle cx="996" cy="944" r="4" fill="rgb(255,255,255)" stroke="none" />
  <circle cx="992" cy="948" r="4" fill="rgb(255,255,255)" stroke="none" />
  <circle cx="992" cy="952" r="4" fill="rgb(255,255,255)" stroke="none" />
  <circle cx="988" cy="956" r="4" fill="rgb(255,255,255)" stroke="none" />
  <circle cx="988" cy="960" r="4" fill="rgb(255,255,255)" stroke="none" />
  <circle cx="988" cy="964" r="4" fill="rgb(255,255,255)" stroke="none" />
  <circle cx="988" cy="968" r="4" fill="rgb(255,255,255)" stroke="none" />
  <circle cx="988" cy="972" r="4" fill="rgb(255,255,255)" stroke="none" />
  <circle cx="984" cy="976" r="4" fill="rgb(255,255,255)" stroke="none" />
  <circle cx="984" cy="980" r="4" fill="rgb(255,255,255)" stroke="none" />
  <circle cx="984" cy="984" r="4" fill="rgb(255,255,255)" stroke="none" />
  <circle cx="988" cy="988" r="4" fill="rgb(255,255,255)" stroke="none" />
  <circle cx="988" cy="992" r="4" fill="rgb(255,255,255)" stroke="none" />
  <circle cx="984" cy="996" r="4" fill="rgb(255,255,255)" stroke="none" />
  <circle cx="980" cy="1000" r="4" fill="rgb(255,255,255)" stroke="none" />
  <circle cx="976" cy="1004" r="4" fill="rgb(255,255,255)" stroke="none" />
  <circle cx="976" cy="1008" r="4" fill="rgb(255,255,255)" stroke="none" />
  <circle cx="972" cy="1012" r="4" fill="rgb(255,255,255)" stroke="none" />
  <circle cx="972" cy="1016" r="4" fill="rgb(255,255,255)" stroke="none" />
  <circle cx="968" cy="1020" r="4" fill="rgb(255,255,255)" stroke="none" />
  <circle cx="968" cy="1024" r="4" fill="rgb(255,255,255)" stroke="none" />
  <circle cx="968" cy="1028" r="4" fill="rgb(255,255,255)" stroke="none" />
  <circle cx="968" cy="1032" r="4" fill="rgb(255,255,255)" stroke="none" />
  <circle cx="964" cy="1036" r="4" fill="rgb(255,255,255)" stroke="none" />
  <circle cx="964" cy="1040" r="4" fill="rgb(255,255,255)" stroke="none" />
  <circle cx="960" cy="1044" r="4" fill="rgb(255,255,255)" stroke="none" />
  <circle cx="956" cy="1048" r="4" fill="rgb(255,255,255)" stroke="none" />
  <circle cx="952" cy="1048" r="4" fill="rgb(255,255,255)" stroke="none" />
  <circle cx="948" cy="1052" r="4" fill="rgb(255,255,255)" stroke="none" />
  <circle cx="944" cy="1052" r="4" fill="rgb(255,255,255)" stroke="none" />
  <circle cx="940" cy="1052" r="4" fill="rgb(255,255,255)" stroke="none" />
  <circle cx="936" cy="1052" r="4" fill="rgb(255,255,255)" stroke="none" />
  <circle cx="932" cy="1056" r="4" fill="rgb(255,255,255)" stroke="none" />
  <circle cx="928" cy="1056" r="4" fill="rgb(255,255,255)" stroke="none" />
  <circle cx="924" cy="1056" r="4" fill="rgb(255,255,255)" stroke="none" />
  <circle cx="920" cy="1056" r="4" fill="rgb(255,255,255)" stroke="none" />
  <circle cx="916" cy="1056" r="4" fill="rgb(255,255,255)" stroke="none" />
  <circle cx="912" cy="1052" r="4" fill="rgb(255,255,255)" stroke="none" />
  <circle cx="908" cy="1052" r="4" fill="rgb(255,255,255)" stroke="none" />
  <circle cx="904" cy="1052" r="4" fill="rgb(255,255,255)" stroke="none" />
  <circle cx="900" cy="1052" r="4" fill="rgb(255,255,255)" stroke="none" />
  <circle cx="896" cy="1052" r="4" fill="rgb(255,255,255)" stroke="none" />
  <circle cx="892" cy="1052" r="4" fill="rgb(255,255,255)" stroke="none" />
  <circle cx="888" cy="1052" r="4" fill="rgb(255,255,255)" stroke="none" />
  <circle cx="884" cy="1056" r="4" fill="rgb(255,255,255)" stroke="none" />
  <circle cx="880" cy="1060" r="4" fill="rgb(255,255,255)" stroke="none" />
  <circle cx="880" cy="1064" r="4" fill="rgb(255,255,255)" stroke="none" />
  <circle cx="876" cy="1068" r="4" fill="rgb(255,255,255)" stroke="none" />
  <circle cx="876" cy="1072" r="4" fill="rgb(255,255,255)" stroke="none" />
  <circle cx="872" cy="1076" r="4" fill="rgb(255,255,255)" stroke="none" />
  <circle cx="872" cy="1080" r="4" fill="rgb(255,255,255)" stroke="none" />
  <circle cx="872" cy="1084" r="4" fill="rgb(255,255,255)" stroke="none" />
  <circle cx="868" cy="1088" r="4" fill="rgb(255,255,255)" stroke="none" />
  <circle cx="868" cy="1092" r="4" fill="rgb(255,255,255)" stroke="none" />
  <circle cx="864" cy="1096" r="4" fill="rgb(255,255,255)" stroke="none" />
  <circle cx="864" cy="1100" r="4" fill="rgb(255,255,255)" stroke="none" />
  <circle cx="864" cy="1104" r="4" fill="rgb(255,255,255)" stroke="none" />
  <circle cx="860" cy="1108" r="4" fill="rgb(255,255,255)" stroke="none" />
  <circle cx="860" cy="1112" r="4" fill="rgb(255,255,255)" stroke="none" />
  <circle cx="860" cy="1116" r="4" fill="rgb(255,255,255)" stroke="none" />
  <circle cx="860" cy="1120" r="4" fill="rgb(255,255,255)" stroke="none" />
  <circle cx="860" cy="1124" r="4" fill="rgb(255,255,255)" stroke="none" />
  <circle cx="856" cy="1128" r="4" fill="rgb(255,255,255)" stroke="none" />
  <circle cx="856" cy="1132" r="4" fill="rgb(255,255,255)" stroke="none" />
  <circle cx="856" cy="1136" r="4" fill="rgb(255,255,255)" stroke="none" />
  <circle cx="856" cy="1140" r="4" fill="rgb(255,255,255)" stroke="none" />
  <circle cx="856" cy="1144" r="4" fill="rgb(255,255,255)" stroke="none" />
  <circle cx="856" cy="1148" r="4" fill="rgb(255,255,255)" stroke="none" />
  <circle cx="856" cy="1152" r="4" fill="rgb(255,255,255)" stroke="none" />
  <circle cx="856" cy="1156" r="4" fill="rgb(255,255,255)" stroke="none" />
  <circle cx="856" cy="1160" r="4" fill="rgb(255,255,255)" stroke="none" />
  <circle cx="860" cy="1164" r="4" fill="rgb(255,255,255)" stroke="none" />
  <circle cx="860" cy="1168" r="4" fill="rgb(255,255,255)" stroke="none" />
  <circle cx="864" cy="1172" r="4" fill="rgb(255,255,255)" stroke="none" />
  <circle cx="864" cy="1176" r="4" fill="rgb(255,255,255)" stroke="none" />
  <circle cx="864" cy="1180" r="4" fill="rgb(255,255,255)" stroke="none" />
  <circle cx="868" cy="1184" r="4" fill="rgb(255,255,255)" stroke="none" />
  <circle cx="868" cy="1188" r="4" fill="rgb(255,255,255)" stroke="none" />
  <circle cx="872" cy="1192" r="4" fill="rgb(255,255,255)" stroke="none" />
  <circle cx="872" cy="1196" r="4" fill="rgb(255,255,255)" stroke="none" />
  <circle cx="872" cy="1200" r="4" fill="rgb(255,255,255)" stroke="none" />
  <circle cx="876" cy="1204" r="4" fill="rgb(255,255,255)" stroke="none" />
  <circle cx="876" cy="1208" r="4" fill="rgb(255,255,255)" stroke="none" />
  <circle cx="880" cy="1212" r="4" fill="rgb(255,255,255)" stroke="none" />
  <circle cx="880" cy="1216" r="4" fill="rgb(255,255,255)" stroke="none" />
  <circle cx="884" cy="1220" r="4" fill="rgb(255,255,255)" stroke="none" />
  <circle cx="884" cy="1224" r="4" fill="rgb(255,255,255)" stroke="none" />
  <circle cx="888" cy="1228" r="4" fill="rgb(255,255,255)" stroke="none" />
  <circle cx="888" cy="1232" r="4" fill="rgb(255,255,255)" stroke="none" />
  <circle cx="892" cy="1236" r="4" fill="rgb(255,255,255)" stroke="none" />
  <circle cx="892" cy="1240" r="4" fill="rgb(255,255,255)" stroke="none" />
  <circle cx="896" cy="1244" r="4" fill="rgb(255,255,255)" stroke="none" />
  <circle cx="896" cy="1248" r="4" fill="rgb(255,255,255)" stroke="none" />
  <circle cx="900" cy="1252" r="4" fill="rgb(255,255,255)" stroke="none" />
  <circle cx="900" cy="1256" r="4" fill="rgb(255,255,255)" stroke="none" />
  <circle cx="904" cy="1260" r="4" fill="rgb(255,255,255)" stroke="none" />
  <circle cx="904" cy="1264" r="4" fill="rgb(255,255,255)" stroke="none" />
  <circle cx="908" cy="1268" r="4" fill="rgb(255,255,255)" stroke="none" />
  <circle cx="908" cy="1272" r="4" fill="rgb(255,255,255)" stroke="none" />
  <circle cx="912" cy="1276" r="4" fill="rgb(255,255,255)" stroke="none" />
  <circle cx="912" cy="1280" r="4" fill="rgb(255,255,255)" stroke="none" />
  <circle cx="912" cy="1284" r="4" fill="rgb(255,255,255)" stroke="none" />
  <circle cx="916" cy="1288" r="4" fill="rgb(255,255,255)" stroke="none" />
  <circle cx="916" cy="1292" r="4" fill="rgb(255,255,255)" stroke="none" />
  <circle cx="920" cy="1296" r="4" fill="rgb(255,255,255)" stroke="none" />
  <circle cx="920" cy="1300" r="4" fill="rgb(255,255,255)" stroke="none" />
  <circle cx="924" cy="1304" r="4" fill="rgb(255,255,255)" stroke="none" />
  <circle cx="924" cy="1308" r="4" fill="rgb(255,255,255)" stroke="none" />
  <circle cx="928" cy="1312" r="4" fill="rgb(255,255,255)" stroke="none" />
  <circle cx="928" cy="1316" r="4" fill="rgb(255,255,255)" stroke="none" />
  <circle cx="932" cy="1320" r="4" fill="rgb(255,255,255)" stroke="none" />
  <circle cx="932" cy="1324" r="4" fill="rgb(255,255,255)" stroke="none" />
  <circle cx="932" cy="1328" r="4" fill="rgb(255,255,255)" stroke="none" />
  <circle cx="936" cy="1332" r="4" fill="rgb(255,255,255)" stroke="none" />
  <circle cx="936" cy="1336" r="4" fill="rgb(255,255,255)" stroke="none" />
  <circle cx="936" cy="1340" r="4" fill="rgb(255,255,255)" stroke="none" />
  <circle cx="936" cy="1344" r="4" fill="rgb(255,255,255)" stroke="none" />
  <circle cx="932" cy="1348" r="4" fill="rgb(255,255,255)" stroke="none" />
  <circle cx="928" cy="1352" r="4" fill="rgb(255,255,255)" stroke="none" />
  <circle cx="924" cy="1352" r="4" fill="rgb(255,255,255)" stroke="none" />
  <circle cx="920" cy="1356" r="4" fill="rgb(255,255,255)" stroke="none" />
  <circle cx="916" cy="1356" r="4" fill="rgb(255,255,255)" stroke="none" />
  <circle cx="912" cy="1360" r="4" fill="rgb(255,255,255)" stroke="none" />
  <circle cx="908" cy="1364" r="4" fill="rgb(255,255,255)" stroke="none" />
  <circle cx="904" cy="1364" r="4" fill="rgb(255,255,255)" stroke="none" />
  <circle cx="900" cy="1364" r="4" fill="rgb(255,255,255)" stroke="none" />
  <circle cx="896" cy="1368" r="4" fill="rgb(255,255,255)" stroke="none" />
  <circle cx="892" cy="1368" r="4" fill="rgb(255,255,255)" stroke="none" />
  <circle cx="888" cy="1372" r="4" fill="rgb(255,255,255)" stroke="none" />
  <circle cx="884" cy="1372" r="4" fill="rgb(255,255,255)" stroke="none" />
  <circle cx="880" cy="1372" r="4" fill="rgb(255,255,255)" stroke="none" />
  <circle cx="876" cy="1376" r="4" fill="rgb(255,255,255)" stroke="none" />
  <circle cx="872" cy="1376" r="4" fill="rgb(255,255,255)" stroke="none" />
  <circle cx="868" cy="1376" r="4" fill="rgb(255,255,255)" stroke="none" />
  <circle cx="864" cy="1380" r="4" fill="rgb(255,255,255)" stroke="none" />
  <circle cx="860" cy="1380" r="4" fill="rgb(255,255,255)" stroke="none" />
  <circle cx="856" cy="1380" r="4" fill="rgb(255,255,255)" stroke="none" />
  <circle cx="852" cy="1380" r="4" fill="rgb(255,255,255)" stroke="none" />
  <circle cx="848" cy="1380" r="4" fill="rgb(255,255,255)" stroke="none" />
  <circle cx="844" cy="1380" r="4" fill="rgb(255,255,255)" stroke="none" />
  <circle cx="840" cy="1380" r="4" fill="rgb(255,255,255)" stroke="none" />
  <circle cx="836" cy="1384" r="4" fill="rgb(255,255,255)" stroke="none" />
  <circle cx="832" cy="1384" r="4" fill="rgb(255,255,255)" stroke="none" />
  <circle cx="828" cy="1384" r="4" fill="rgb(255,255,255)" stroke="none" />
  <circle cx="824" cy="1380" r="4" fill="rgb(255,255,255)" stroke="none" />
  <circle cx="820" cy="1376" r="4" fill="rgb(255,255,255)" stroke="none" />
  <circle cx="816" cy="1372" r="4" fill="rgb(255,255,255)" stroke="none" />
  <circle cx="812" cy="1368" r="4" fill="rgb(255,255,255)" stroke="none" />
  <circle cx="808" cy="1364" r="4" fill="rgb(255,255,255)" stroke="none" />
  <circle cx="804" cy="1360" r="4" fill="rgb(255,255,255)" stroke="none" />
  <circle cx="800" cy="1356" r="4" fill="rgb(255,255,255)" stroke="none" />
  <circle cx="800" cy="1352" r="4" fill="rgb(255,255,255)" stroke="none" />
  <circle cx="796" cy="1348" r="4" fill="rgb(255,255,255)" stroke="none" />
  <circle cx="792" cy="1344" r="4" fill="rgb(255,255,255)" stroke="none" />
  <circle cx="788" cy="1340" r="4" fill="rgb(255,255,255)" stroke="none" />
  <circle cx="784" cy="1336" r="4" fill="rgb(255,255,255)" stroke="none" />
  <circle cx="780" cy="1332" r="4" fill="rgb(255,255,255)" stroke="none" />
  <circle cx="776" cy="1328" r="4" fill="rgb(255,255,255)" stroke="none" />
  <circle cx="776" cy="1324" r="4" fill="rgb(255,255,255)" stroke="none" />
  <circle cx="772" cy="1320" r="4" fill="rgb(255,255,255)" stroke="none" />
  <circle cx="768" cy="1316" r="4" fill="rgb(255,255,255)" stroke="none" />
  <circle cx="764" cy="1312" r="4" fill="rgb(255,255,255)" stroke="none" />
  <circle cx="760" cy="1308" r="4" fill="rgb(255,255,255)" stroke="none" />
  <circle cx="756" cy="1304" r="4" fill="rgb(255,255,255)" stroke="none" />
  <circle cx="752" cy="1300" r="4" fill="rgb(255,255,255)" stroke="none" />
  <circle cx="748" cy="1296" r="4" fill="rgb(255,255,255)" stroke="none" />
  <circle cx="744" cy="1292" r="4" fill="rgb(255,255,255)" stroke="none" />
  <circle cx="740" cy="1292" r="4" fill="rgb(255,255,255)" stroke="none" />
  <circle cx="736" cy="1288" r="4" fill="rgb(255,255,255)" stroke="none" />
  <circle cx="732" cy="1284" r="4" fill="rgb(255,255,255)" stroke="none" />
  <circle cx="728" cy="1280" r="4" fill="rgb(255,255,255)" stroke="none" />
  <circle cx="724" cy="1280" r="4" fill="rgb(255,255,255)" stroke="none" />
  <circle cx="720" cy="1276" r="4" fill="rgb(255,255,255)" stroke="none" />
  <circle cx="716" cy="1272" r="4" fill="rgb(255,255,255)" stroke="none" />
  <circle cx="712" cy="1268" r="4" fill="rgb(255,255,255)" stroke="none" />
  <circle cx="708" cy="1264" r="4" fill="rgb(255,255,255)" stroke="none" />
  <circle cx="704" cy="1260" r="4" fill="rgb(255,255,255)" stroke="none" />
  <circle cx="700" cy="1260" r="4" fill="rgb(255,255,255)" stroke="none" />
  <circle cx="696" cy="1256" r="4" fill="rgb(255,255,255)" stroke="none" />
  <circle cx="692" cy="1252" r="4" fill="rgb(255,255,255)" stroke="none" />
  <circle cx="688" cy="1248" r="4" fill="rgb(255,255,255)" stroke="none" />
  <circle cx="684" cy="1244" r="4" fill="rgb(255,255,255)" stroke="none" />
  <circle cx="680" cy="1240" r="4" fill="rgb(255,255,255)" stroke="none" />
  <circle cx="676" cy="1236" r="4" fill="rgb(255,255,255)" stroke="none" />
  <circle cx="672" cy="1232" r="4" fill="rgb(255,255,255)" stroke="none" />
  <circle cx="668" cy="1228" r="4" fill="rgb(255,255,255)" stroke="none" />
  <circle cx="668" cy="1224" r="4" fill="rgb(255,255,255)" stroke="none" />
  <circle cx="664" cy="1220" r="4" fill="rgb(255,255,255)" stroke="none" />
  <circle cx="660" cy="1216" r="4" fill="rgb(255,255,255)" stroke="none" />
  <circle cx="660" cy="1212" r="4" fill="rgb(255,255,255)" stroke="none" />
  <circle cx="656" cy="1208" r="4" fill="rgb(255,255,255)" stroke="none" />
  <circle cx="656" cy="1204" r="4" fill="rgb(255,255,255)" stroke="none" />
  <circle cx="656" cy="1200" r="4" fill="rgb(255,255,255)" stroke="none" />
  <circle cx="652" cy="1196" r="4" fill="rgb(255,255,255)" stroke="none" />
  <circle cx="652" cy="1192" r="4" fill="rgb(255,255,255)" stroke="none" />
  <circle cx="652" cy="1188" r="4" fill="rgb(255,255,255)" stroke="none" />
  <circle cx="648" cy="1184" r="4" fill="rgb(255,255,255)" stroke="none" />
  <circle cx="648" cy="1180" r="4" fill="rgb(255,255,255)" stroke="none" />
  <circle cx="648" cy="1176" r="4" fill="rgb(255,255,255)" stroke="none" />
  <circle cx="648" cy="1172" r="4" fill="rgb(255,255,255)" stroke="none" />
  <circle cx="644" cy="1168" r="4" fill="rgb(255,255,255)" stroke="none" />
  <circle cx="644" cy="1164" r="4" fill="rgb(255,255,255)" stroke="none" />
  <circle cx="644" cy="1160" r="4" fill="rgb(255,255,255)" stroke="none" />
  <circle cx="644" cy="1156" r="4" fill="rgb(255,255,255)" stroke="none" />
  <circle cx="644" cy="1152" r="4" fill="rgb(255,255,255)" stroke="none" />
  <circle cx="644" cy="1148" r="4" fill="rgb(255,255,255)" stroke="none" />
  <circle cx="644" cy="1144" r="4" fill="rgb(255,255,255)" stroke="none" />
  <circle cx="648" cy="1140" r="4" fill="rgb(255,255,255)" stroke="none" />
  <circle cx="648" cy="1136" r="4" fill="rgb(255,255,255)" stroke="none" />
  <circle cx="648" cy="1132" r="4" fill="rgb(255,255,255)" stroke="none" />
  <circle cx="648" cy="1128" r="4" fill="rgb(255,255,255)" stroke="none" />
  <circle cx="652" cy="1124" r="4" fill="rgb(255,255,255)" stroke="none" />
  <circle cx="652" cy="1120" r="4" fill="rgb(255,255,255)" stroke="none" />
  <circle cx="656" cy="1116" r="4" fill="rgb(255,255,255)" stroke="none" />
  <circle cx="660" cy="1112" r="4" fill="rgb(255,255,255)" stroke="none" />
  <circle cx="660" cy="1108" r="4" fill="rgb(255,255,255)" stroke="none" />
  <circle cx="664" cy="1104" r="4" fill="rgb(255,255,255)" stroke="none" />
  <circle cx="668" cy="1100" r="4" fill="rgb(255,255,255)" stroke="none" />
  <circle cx="668" cy="1096" r="4" fill="rgb(255,255,255)" stroke="none" />
  <circle cx="672" cy="1092" r="4" fill="rgb(255,255,255)" stroke="none" />
  <circle cx="672" cy="1088" r="4" fill="rgb(255,255,255)" stroke="none" />
  <circle cx="676" cy="1084" r="4" fill="rgb(255,255,255)" stroke="none" />
  <circle cx="680" cy="1080" r="4" fill="rgb(255,255,255)" stroke="none" />
  <circle cx="680" cy="1076" r="4" fill="rgb(255,255,255)" stroke="none" />
  <circle cx="684" cy="1072" r="4" fill="rgb(255,255,255)" stroke="none" />
  <circle cx="688" cy="1068" r="4" fill="rgb(255,255,255)" stroke="none" />
  <circle cx="688" cy="1064" r="4" fill="rgb(255,255,255)" stroke="none" />
  <circle cx="692" cy="1060" r="4" fill="rgb(255,255,255)" stroke="none" />
  <circle cx="696" cy="1056" r="4" fill="rgb(255,255,255)" stroke="none" />
  <circle cx="700" cy="1052" r="4" fill="rgb(255,255,255)" stroke="none" />
  <circle cx="700" cy="1048" r="4" fill="rgb(255,255,255)" stroke="none" />
  <circle cx="700" cy="1044" r="4" fill="rgb(255,255,255)" stroke="none" />
  <circle cx="704" cy="1040" r="4" fill="rgb(255,255,255)" stroke="none" />
  <circle cx="704" cy="1036" r="4" fill="rgb(255,255,255)" stroke="none" />
  <circle cx="708" cy="1032" r="4" fill="rgb(255,255,255)" stroke="none" />
  <circle cx="708" cy="1028" r="4" fill="rgb(255,255,255)" stroke="none" />
  <circle cx="712" cy="1024" r="4" fill="rgb(255,255,255)" stroke="none" />
  <circle cx="712" cy="1020" r="4" fill="rgb(255,255,255)" stroke="none" />
  <circle cx="712" cy="1016" r="4" fill="rgb(255,255,255)" stroke="none" />
  <circle cx="716" cy="1012" r="4" fill="rgb(255,255,255)" stroke="none" />
  <circle cx="716" cy="1008" r="4" fill="rgb(255,255,255)" stroke="none" />
  <circle cx="716" cy="1004" r="4" fill="rgb(255,255,255)" stroke="none" />
  <circle cx="720" cy="1000" r="4" fill="rgb(255,255,255)" stroke="none" />
  <circle cx="724" cy="996" r="4" fill="rgb(255,255,255)" stroke="none" />
  <circle cx="728" cy="992" r="4" fill="rgb(255,255,255)" stroke="none" />
  <circle cx="728" cy="988" r="4" fill="rgb(255,255,255)" stroke="none" />
  <circle cx="728" cy="984" r="4" fill="rgb(255,255,255)" stroke="none" />
  <circle cx="728" cy="980" r="4" fill="rgb(255,255,255)" stroke="none" />
  <circle cx="728" cy="976" r="4" fill="rgb(255,255,255)" stroke="none" />
  <circle cx="728" cy="972" r="4" fill="rgb(255,255,255)" stroke="none" />
  <circle cx="728" cy="968" r="4" fill="rgb(255,255,255)" stroke="none" />
  <circle cx="728" cy="964" r="4" fill="rgb(255,255,255)" stroke="none" />
  <circle cx="728" cy="960" r="4" fill="rgb(255,255,255)" stroke="none" />
  <circle cx="728" cy="956" r="4" fill="rgb(255,255,255)" stroke="none" />
  <circle cx="728" cy="952" r="4" fill="rgb(255,255,255)" stroke="none" />
  <circle cx="724" cy="948" r="4" fill="rgb(255,255,255)" stroke="none" />
  <circle cx="724" cy="944" r="4" fill="rgb(255,255,255)" stroke="none" />
  <circle cx="724" cy="940" r="4" fill="rgb(255,255,255)" stroke="none" />
  <circle cx="724" cy="936" r="4" fill="rgb(255,255,255)" stroke="none" />
  <circle cx="720" cy="932" r="4" fill="rgb(255,255,255)" stroke="none" />
  <circle cx="720" cy="928" r="4" fill="rgb(255,255,255)" stroke="none" />
  <circle cx="720" cy="924" r="4" fill="rgb(255,255,255)" stroke="none" />
  <circle cx="716" cy="920" r="4" fill="rgb(255,255,255)" stroke="none" />
  <circle cx="716" cy="916" r="4" fill="rgb(255,255,255)" stroke="none" />
  <circle cx="712" cy="916" r="4" fill="rgb(255,255,255)" stroke="none" />
  <circle cx="708" cy="916" r="4" fill="rgb(255,255,255)" stroke="none" />
  <circle cx="704" cy="916" r="4" fill="rgb(255,255,255)" stroke="none" />
  <circle cx="700" cy="916" r="4" fill="rgb(255,255,255)" stroke="none" />
  <circle cx="696" cy="912" r="4" fill="rgb(255,255,255)" stroke="none" />
  <circle cx="692" cy="912" r="4" fill="rgb(255,255,255)" stroke="none" />
  <circle cx="688" cy="912" r="4" fill="rgb(255,255,255)" stroke="none" />
  <circle cx="684" cy="908" r="4" fill="rgb(255,255,255)" stroke="none" />
  <circle cx="680" cy="908" r="4" fill="rgb(255,255,255)" stroke="none" />
  <circle cx="676" cy="904" r="4" fill="rgb(255,255,255)" stroke="none" />
  <circle cx="672" cy="900" r="4" fill="rgb(255,255,255)" stroke="none" />
  <circle cx="668" cy="900" r="4" fill="rgb(255,255,255)" stroke="none" />
  <circle cx="664" cy="896" r="4" fill="rgb(255,255,255)" stroke="none" />
  <circle cx="660" cy="892" r="4" fill="rgb(255,255,255)" stroke="none" />
  <circle cx="656" cy="888" r="4" fill="rgb(255,255,255)" stroke="none" />
  <circle cx="652" cy="884" r="4" fill="rgb(255,255,255)" stroke="none" />
  <circle cx="652" cy="880" r="4" fill="rgb(255,255,255)" stroke="none" />
  <circle cx="648" cy="876" r="4" fill="rgb(255,255,255)" stroke="none" />
  <circle cx="644" cy="872" r="4" fill="rgb(255,255,255)" stroke="none" />
  <circle cx="644" cy="868" r="4" fill="rgb(255,255,255)" stroke="none" />
  <circle cx="640" cy="864" r="4" fill="rgb(255,255,255)" stroke="none" />
  <circle cx="640" cy="860" r="4" fill="rgb(255,255,255)" stroke="none" />
  <circle cx="640" cy="856" r="4" fill="rgb(255,255,255)" stroke="none" />
  <circle cx="636" cy="852" r="4" fill="rgb(255,255,255)" stroke="none" />
  <circle cx="636" cy="848" r="4" fill="rgb(255,255,255)" stroke="none" />
  <circle cx="636" cy="844" r="4" fill="rgb(255,255,255)" stroke="none" />
  <circle cx="636" cy="840" r="4" fill="rgb(255,255,255)" stroke="none" />
  <circle cx="636" cy="836" r="4" fill="rgb(255,255,255)" stroke="none" />
  <circle cx="636" cy="832" r="4" fill="rgb(255,255,255)" stroke="none" />
  <circle cx="636" cy="828" r="4" fill="rgb(255,255,255)" stroke="none" />
  <circle cx="636" cy="824" r="4" fill="rgb(255,255,255)" stroke="none" />
  <circle cx="636" cy="820" r="4" fill="rgb(255,255,255)" stroke="none" />
  <circle cx="636" cy="816" r="4" fill="rgb(255,255,255)" stroke="none" />
  <circle cx="640" cy="812" r="4" fill="rgb(255,255,255)" stroke="none" />
  <circle cx="640" cy="808" r="4" fill="rgb(255,255,255)" stroke="none" />
  <circle cx="640" cy="804" r="4" fill="rgb(255,255,255)" stroke="none" />
  <circle cx="644" cy="800" r="4" fill="rgb(255,255,255)" stroke="none" />
  <circle cx="644" cy="796" r="4" fill="rgb(255,255,255)" stroke="none" />
  <circle cx="640" cy="796" r="4" fill="rgb(255,255,255)" stroke="none" />
  <circle cx="636" cy="792" r="4" fill="rgb(255,255,255)" stroke="none" />
  <circle cx="632" cy="792" r="4" fill="rgb(255,255,255)" stroke="none" />
  <circle cx="628" cy="788" r="4" fill="rgb(255,255,255)" stroke="none" />
  <circle cx="624" cy="784" r="4" fill="rgb(255,255,255)" stroke="none" />
  <circle cx="620" cy="780" r="4" fill="rgb(255,255,255)" stroke="none" />
  <circle cx="620" cy="776" r="4" fill="rgb(255,255,255)" stroke="none" />
  <circle cx="616" cy="772" r="4" fill="rgb(255,255,255)" stroke="none" />
  <circle cx="612" cy="768" r="4" fill="rgb(255,255,255)" stroke="none" />
  <circle cx="612" cy="764" r="4" fill="rgb(255,255,255)" stroke="none" />
  <circle cx="612" cy="760" r="4" fill="rgb(255,255,255)" stroke="none" />
  <circle cx="612" cy="756" r="4" fill="rgb(255,255,255)" stroke="none" />
  <circle cx="608" cy="752" r="4" fill="rgb(255,255,255)" stroke="none" />
  <circle cx="608" cy="748" r="4" fill="rgb(255,255,255)" stroke="none" />
  <circle cx="608" cy="744" r="4" fill="rgb(255,255,255)" stroke="none" />
  <circle cx="608" cy="740" r="4" fill="rgb(255,255,255)" stroke="none" />
  <circle cx="608" cy="736" r="4" fill="rgb(255,255,255)" stroke="none" />
  <circle cx="608" cy="732" r="4" fill="rgb(255,255,255)" stroke="none" />
  <circle cx="612" cy="728" r="4" fill="rgb(255,255,255)" stroke="none" />
  <circle cx="612" cy="724" r="4" fill="rgb(255,255,255)" stroke="none" />
  <circle cx="616" cy="720" r="4" fill="rgb(255,255,255)" stroke="none" />
  <circle cx="616" cy="716" r="4" fill="rgb(255,255,255)" stroke="none" />
  <circle cx="620" cy="712" r="4" fill="rgb(255,255,255)" stroke="none" />
  <circle cx="620" cy="708" r="4" fill="rgb(255,255,255)" stroke="none" />
  <circle cx="624" cy="704" r="4" fill="rgb(255,255,255)" stroke="none" />
  <circle cx="628" cy="700" r="4" fill="rgb(255,255,255)" stroke="none" />
  <circle cx="632" cy="696" r="4" fill="rgb(255,255,255)" stroke="none" />
  <circle cx="636" cy="692" r="4" fill="rgb(255,255,255)" stroke="none" />
  <circle cx="640" cy="688" r="4" fill="rgb(255,255,255)" stroke="none" />
  <circle cx="644" cy="688" r="4" fill="rgb(255,255,255)" stroke="none" />
  <circle cx="648" cy="684" r="4" fill="rgb(255,255,255)" stroke="none" />
  <circle cx="652" cy="684" r="4" fill="rgb(255,255,255)" stroke="none" />
  <circle cx="656" cy="684" r="4" fill="rgb(255,255,255)" stroke="none" />
  <circle cx="660" cy="680" r="4" fill="rgb(255,255,255)" stroke="none" />
  <circle cx="664" cy="680" r="4" fill="rgb(255,255,255)" stroke="none" />
  <circle cx="668" cy="680" r="4" fill="rgb(255,255,255)" stroke="none" />
  <circle cx="672" cy="676" r="4" fill="rgb(255,255,255)" stroke="none" />
  <circle cx="672" cy="672" r="4" fill="rgb(255,255,255)" stroke="none" />
  <circle cx="672" cy="668" r="4" fill="rgb(255,255,255)" stroke="none" />
  <circle cx="672" cy="664" r="4" fill="rgb(255,255,255)" stroke="none" />
  <circle cx="676" cy="660" r="4" fill="rgb(255,255,255)" stroke="none" />
  <circle cx="676" cy="656" r="4" fill="rgb(255,255,255)" stroke="none" />
  <circle cx="676" cy="652" r="4" fill="rgb(255,255,255)" stroke="none" />
  <circle cx="676" cy="648" r="4" fill="rgb(255,255,255)" stroke="none" />
  <circle cx="676" cy="644" r="4" fill="rgb(255,255,255)" stroke="none" />
  <circle cx="680" cy="640" r="4" fill="rgb(255,255,255)" stroke="none" />
  <circle cx="680" cy="636" r="4" fill="rgb(255,255,255)" stroke="none" />
  <circle cx="680" cy="632" r="4" fill="rgb(255,255,255)" stroke="none" />
  <circle cx="680" cy="628" r="4" fill="rgb(255,255,255)" stroke="none" />
  <circle cx="684" cy="624" r="4" fill="rgb(255,255,255)" stroke="none" />
  <circle cx="688" cy="624" r="4" fill="rgb(255,255,255)" stroke="none" />
  <circle cx="692" cy="624" r="4" fill="rgb(255,255,255)" stroke="none" />
  <circle cx="696" cy="624" r="4" fill="rgb(255,255,255)" stroke="none" />
  <circle cx="700" cy="628" r="4" fill="rgb(255,255,255)" stroke="none" />
  <circle cx="704" cy="628" r="4" fill="rgb(255,255,255)" stroke="none" />
  <circle cx="708" cy="628" r="4" fill="rgb(255,255,255)" stroke="none" />
  <circle cx="708" cy="624" r="4" fill="rgb(255,255,255)" stroke="none" />
  <circle cx="708" cy="620" r="4" fill="rgb(255,255,255)" stroke="none" />
  <circle cx="712" cy="616" r="4" fill="rgb(255,255,255)" stroke="none" />
  <circle cx="712" cy="612" r="4" fill="rgb(255,255,255)" stroke="none" />
  <circle cx="716" cy="608" r="4" fill="rgb(255,255,255)" stroke="none" />
  <circle cx="720" cy="604" r="4" fill="rgb(255,255,255)" stroke="none" />
  <circle cx="724" cy="600" r="4" fill="rgb(255,255,255)" stroke="none" />
  <circle cx="728" cy="596" r="4" fill="rgb(255,255,255)" stroke="none" />
  <circle cx="732" cy="592" r="4" fill="rgb(255,255,255)" stroke="none" />
  <circle cx="736" cy="588" r="4" fill="rgb(255,255,255)" stroke="none" />
</svg>