<svg xmlns="http://www.w3.org/2000/svg" viewBox="0 0 1667 2000">
  <circle cx="860" cy="644" r="4" fill="rgb(255,255,255)" stroke="none" />
  <circle cx="864" cy="640" r="4" fill="rgb(255,255,255)" stroke="none" />
  <circle cx="868" cy="640" r="4" fill="rgb(255,255,255)" stroke="none" />
  <circle cx="872" cy="640" r="4" fill="rgb(255,255,255)" stroke="none" />
  <circle cx="876" cy="640" r="4" fill="rgb(255,255,255)" stroke="none" />
  <circle cx="880" cy="640" r="4" fill="rgb(255,255,255)" stroke="none" />
  <circle cx="884" cy="640" r="4" fill="rgb(255,255,255)" stroke="none" />
  <circle cx="888" cy="640" r="4" fill="rgb(255,255,255)" stroke="none" />
  <circle cx="892" cy="640" r="4" fill="rgb(255,255,255)" stroke="none" />
  <circle cx="896" cy="640" r="4" fill="rgb(255,255,255)" stroke="none" />
  <circle cx="900" cy="640" r="4" fill="rgb(255,255,255)" stroke="none" />
  <circle cx="904" cy="640" r="4" fill="rgb(255,255,255)" stroke="none" />
  <circle cx="908" cy="640" r="4" fill="rgb(255,255,255)" stroke="none" />
  <circle cx="912" cy="640" r="4" fill="rgb(255,255,255)" stroke="none" />
  <circle cx="916" cy="640" r="4" fill="rgb(255,255,255)" stroke="none" />
  <circle cx="920" cy="640" r="4" fill="rgb(255,255,255)" stroke="none" />
  <circle cx="924" cy="640" r="4" fill="rgb(255,255,255)" stroke="none" />
  <circle cx="928" cy="640" r="4" fill="rgb(255,255,255)" stroke="none" />
  <circle cx="932" cy="640" r="4" fill="rgb(255,255,255)" stroke="none" />
  <circle cx="936" cy="644" r="4" fill="rgb(255,255,255)" stroke="none" />
  <circle cx="940" cy="644" r="4" fill="rgb(255,255,255)" stroke="none" />
  <circle cx="944" cy="644" r="4" fill="rgb(255,255,255)" stroke="none" />
  <circle cx="948" cy="648" r="4" fill="rgb(255,255,255)" stroke="none" />
  <circle cx="952" cy="648" r="4" fill="rgb(255,255,255)" stroke="none" />
  <circle cx="956" cy="652" r="4" fill="rgb(255,255,255)" stroke="none" />
  <circle cx="960" cy="652" r="4" fill="rgb(255,255,255)" stroke="none" />
  <circle cx="964" cy="652" r="4" fill="rgb(255,255,255)" stroke="none" />
  <circle cx="968" cy="656" r="4" fill="rgb(255,255,255)" stroke="none" />
  <circle cx="972" cy="656" r="4" fill="rgb(255,255,255)" stroke="none" />
  <circle cx="976" cy="660" r="4" fill="rgb(255,255,255)" stroke="none" />
  <circle cx="980" cy="660" r="4" fill="rgb(255,255,255)" stroke="none" />
  <circle cx="984" cy="664" r="4" fill="rgb(255,255,255)" stroke="none" />
  <circle cx="988" cy="668" r="4" fill="rgb(255,255,255)" stroke="none" />
  <circle cx="992" cy="672" r="4" fill="rgb(255,255,255)" stroke="none" />
  <circle cx="996" cy="672" r="4" fill="rgb(255,255,255)" stroke="none" />
  <circle cx="1000" cy="676" r="4" fill="rgb(255,255,255)" stroke="none" />
  <circle cx="1004" cy="680" r="4" fill="rgb(255,255,255)" stroke="none" />
  <circle cx="1008" cy="684" r="4" fill="rgb(255,255,255)" stroke="none" />
  <circle cx="1012" cy="684" r="4" fill="rgb(255,255,255)" stroke="none" />
  <circle cx="1016" cy="688" r="4" fill="rgb(255,255,255)" stroke="none" />
  <circle cx="1020" cy="692" r="4" fill="rgb(255,255,255)" stroke="none" />
  <circle cx="1024" cy="696" r="4" fill="rgb(255,255,255)" stroke="none" />
  <circle cx="1028" cy="700" r="4" fill="rgb(255,255,255)" stroke="none" />
  <circle cx="1028" cy="704" r="4" fill="rgb(255,255,255)" stroke="none" />
  <circle cx="1032" cy="708" r="4" fill="rgb(255,255,255)" stroke="none" />
  <circle cx="1036" cy="712" r="4" fill="rgb(255,255,255)" stroke="none" />
  <circle cx="1036" cy="716" r="4" fill="rgb(255,255,255)" stroke="none" />
  <circle cx="1040" cy="720" r="4" fill="rgb(255,255,255)" stroke="none" />
  <circle cx="1044" cy="724" r="4" fill="rgb(255,255,255)" stroke="none" />
  <circle cx="1044" cy="728" r="4" fill="rgb(255,255,255)" stroke="none" />
  <circle cx="1048" cy="732" r="4" fill="rgb(255,255,255)" stroke="none" />
  <circle cx="1048" cy="736" r="4" fill="rgb(255,255,255)" stroke="none" />
  <circle cx="1052" cy="740" r="4" fill="rgb(255,255,255)" stroke="none" />
  <circle cx="1052" cy="744" r="4" fill="rgb(255,255,255)" stroke="none" />
  <circle cx="1056" cy="748" r="4" fill="rgb(255,255,255)" stroke="none" />
  <circle cx="1056" cy="752" r="4" fill="rgb(255,255,255)" stroke="none" />
  <circle cx="1056" cy="756" r="4" fill="rgb(255,255,255)" stroke="none" />
  <circle cx="1060" cy="760" r="4" fill="rgb(255,255,255)" stroke="none" />
  <circle cx="1060" cy="764" r="4" fill="rgb(255,255,255)" stroke="none" />
  <circle cx="1060" cy="768" r="4" fill="rgb(255,255,255)" stroke="none" />
  <circle cx="1060" cy="772" r="4" fill="rgb(255,255,255)" stroke="none" />
  <circle cx="1064" cy="776" r="4" fill="rgb(255,255,255)" stroke="none" />
  <circle cx="1064" cy="780" r="4" fill="rgb(255,255,255)" stroke="none" />
  <circle cx="1064" cy="784" r="4" fill="rgb(255,255,255)" stroke="none" />
  <circle cx="1064" cy="788" r="4" fill="rgb(255,255,255)" stroke="none" />
  <circle cx="1064" cy="792" r="4" fill="rgb(255,255,255)" stroke="none" />
  <circle cx="1064" cy="796" r="4" fill="rgb(255,255,255)" stroke="none" />
  <circle cx="1064" cy="800" r="4" fill="rgb(255,255,255)" stroke="none" />
  <circle cx="1064" cy="804" r="4" fill="rgb(255,255,255)" stroke="none" />
  <circle cx="1064" cy="808" r="4" fill="rgb(255,255,255)" stroke="none" />
  <circle cx="1064" cy="812" r="4" fill="rgb(255,255,255)" stroke="none" />
  <circle cx="1060" cy="816" r="4" fill="rgb(255,255,255)" stroke="none" />
  <circle cx="1060" cy="820" r="4" fill="rgb(255,255,255)" stroke="none" />
  <circle cx="1060" cy="824" r="4" fill="rgb(255,255,255)" stroke="none" />
  <circle cx="1060" cy="828" r="4" fill="rgb(255,255,255)" stroke="none" />
  <circle cx="1060" cy="832" r="4" fill="rgb(255,255,255)" stroke="none" />
  <circle cx="1056" cy="836" r="4" fill="rgb(255,255,255)" stroke="none" />
  <circle cx="1056" cy="840" r="4" fill="rgb(255,255,255)" stroke="none" />
  <circle cx="1056" cy="844" r="4" fill="rgb(255,255,255)" stroke="none" />
  <circle cx="1052" cy="848" r="4" fill="rgb(255,255,255)" stroke="none" />
  <circle cx="1052" cy="852" r="4" fill="rgb(255,255,255)" stroke="none" />
  <circle cx="1052" cy="856" r="4" fill="rgb(255,255,255)" stroke="none" />
  <circle cx="1048" cy="860" r="4" fill="rgb(255,255,255)" stroke="none" />
  <circle cx="1048" cy="864" r="4" fill="rgb(255,255,255)" stroke="none" />
  <circle cx="1044" cy="868" r="4" fill="rgb(255,255,255)" stroke="none" />
  <circle cx="1044" cy="872" r="4" fill="rgb(255,255,255)" stroke="none" />
  <circle cx="1044" cy="876" r="4" fill="rgb(255,255,255)" stroke="none" />
  <circle cx="1040" cy="880" r="4" fill="rgb(255,255,255)" stroke="none" />
  <circle cx="1040" cy="884" r="4" fill="rgb(255,255,255)" stroke="none" />
  <circle cx="1036" cy="888" r="4" fill="rgb(255,255,255)" stroke="none" />
  <circle cx="1036" cy="892" r="4" fill="rgb(255,255,255)" stroke="none" />
  <circle cx="1032" cy="896" r="4" fill="rgb(255,255,255)" stroke="none" />
  <circle cx="1032" cy="900" r="4" fill="rgb(255,255,255)" stroke="none" />
  <circle cx="1028" cy="904" r="4" fill="rgb(255,255,255)" stroke="none" />
  <circle cx="1028" cy="908" r="4" fill="rgb(255,255,255)" stroke="none" />
  <circle cx="1028" cy="912" r="4" fill="rgb(255,255,255)" stroke="none" />
  <circle cx="1028" cy="916" r="4" fill="rgb(255,255,255)" stroke="none" />
  <circle cx="1028" cy="920" r="4" fill="rgb(255,255,255)" stroke="none" />
  <circle cx="1028" cy="924" r="4" fill="rgb(255,255,255)" stroke="none" />
  <circle cx="1028" cy="928" r="4" fill="rgb(255,255,255)" stroke="none" />
  <circle cx="1028" cy="932" r="4" fill="rgb(255,255,255)" stroke="none" />
  <circle cx="1028" cy="936" r="4" fill="rgb(255,255,255)" stroke="none" />
  <circle cx="1028" cy="940" r="4" fill="rgb(255,255,255)" stroke="none" />
  <circle cx="1024" cy="944" r="4" fill="rgb(255,255,255)" stroke="none" />
  <circle cx="1024" cy="948" r="4" fill="rgb(255,255,255)" stroke="none" />
  <circle cx="1024" cy="952" r="4" fill="rgb(255,255,255)" stroke="none" />
  <circle cx="1020" cy="956" r="4" fill="rgb(255,255,255)" stroke="none" />
  <circle cx="1016" cy="960" r="4" fill="rgb(255,255,255)" stroke="none" />
  <circle cx="1012" cy="956" r="4" fill="rgb(255,255,255)" stroke="none" />
  <circle cx="1008" cy="952" r="4" fill="rgb(255,255,255)" stroke="none" />
  <circle cx="1004" cy="948" r="4" fill="rgb(255,255,255)" stroke="none" />
  <circle cx="1000" cy="944" r="4" fill="rgb(255,255,255)" stroke="none" />
  <circle cx="1000" cy="948" r="4" fill="rgb(255,255,255)" stroke="none" />
  <circle cx="996" cy="952" r="4" fill="rgb(255,255,255)" stroke="none" />
  <circle cx="996" cy="956" r="4" fill="rgb(255,255,255)" stroke="none" />
  <circle cx="1000" cy="960" r="4" fill="rgb(255,255,255)" stroke="none" />
  <circle cx="1004" cy="960" r="4" fill="rgb(255,255,255)" stroke="none" />
  <circle cx="1008" cy="964" r="4" fill="rgb(255,255,255)" stroke="none" />
  <circle cx="1012" cy="964" r="4" fill="rgb(255,255,255)" stroke="none" />
  <circle cx="1016" cy="968" r="4" fill="rgb(255,255,255)" stroke="none" />
  <circle cx="1020" cy="972" r="4" fill="rgb(255,255,255)" stroke="none" />
  <circle cx="1020" cy="976" r="4" fill="rgb(255,255,255)" stroke="none" />
  <circle cx="1020" cy="980" r="4" fill="rgb(255,255,255)" stroke="none" />
  <circle cx="1024" cy="984" r="4" fill="rgb(255,255,255)" stroke="none" />
  <circle cx="1024" cy="988" r="4" fill="rgb(255,255,255)" stroke="none" />
  <circle cx="1024" cy="992" r="4" fill="rgb(255,255,255)" stroke="none" />
  <circle cx="1024" cy="996" r="4" fill="rgb(255,255,255)" stroke="none" />
  <circle cx="1028" cy="1000" r="4" fill="rgb(255,255,255)" stroke="none" />
  <circle cx="1028" cy="1004" r="4" fill="rgb(255,255,255)" stroke="none" />
  <circle cx="1028" cy="1008" r="4" fill="rgb(255,255,255)" stroke="none" />
  <circle cx="1028" cy="1012" r="4" fill="rgb(255,255,255)" stroke="none" />
  <circle cx="1028" cy="1016" r="4" fill="rgb(255,255,255)" stroke="none" />
  <circle cx="1028" cy="1020" r="4" fill="rgb(255,255,255)" stroke="none" />
  <circle cx="1028" cy="1024" r="4" fill="rgb(255,255,255)" stroke="none" />
  <circle cx="1028" cy="1028" r="4" fill="rgb(255,255,255)" stroke="none" />
  <circle cx="1028" cy="1032" r="4" fill="rgb(255,255,255)" stroke="none" />
  <circle cx="1032" cy="1036" r="4" fill="rgb(255,255,255)" stroke="none" />
  <circle cx="1032" cy="1040" r="4" fill="rgb(255,255,255)" stroke="none" />
  <circle cx="1032" cy="1044" r="4" fill="rgb(255,255,255)" stroke="none" />
  <circle cx="1032" cy="1048" r="4" fill="rgb(255,255,255)" stroke="none" />
  <circle cx="1032" cy="1052" r="4" fill="rgb(255,255,255)" stroke="none" />
  <circle cx="1032" cy="1056" r="4" fill="rgb(255,255,255)" stroke="none" />
  <circle cx="1032" cy="1060" r="4" fill="rgb(255,255,255)" stroke="none" />
  <circle cx="1032" cy="1064" r="4" fill="rgb(255,255,255)" stroke="none" />
  <circle cx="1036" cy="1068" r="4" fill="rgb(255,255,255)" stroke="none" />
  <circle cx="1036" cy="1072" r="4" fill="rgb(255,255,255)" stroke="none" />
  <circle cx="1032" cy="1076" r="4" fill="rgb(255,255,255)" stroke="none" />
  <circle cx="1032" cy="1080" r="4" fill="rgb(255,255,255)" stroke="none" />
  <circle cx="1032" cy="1084" r="4" fill="rgb(255,255,255)" stroke="none" />
  <circle cx="1032" cy="1088" r="4" fill="rgb(255,255,255)" stroke="none" />
  <circle cx="1032" cy="1092" r="4" fill="rgb(255,255,255)" stroke="none" />
  <circle cx="1032" cy="1096" r="4" fill="rgb(255,255,255)" stroke="none" />
  <circle cx="1036" cy="1100" r="4" fill="rgb(255,255,255)" stroke="none" />
  <circle cx="1036" cy="1104" r="4" fill="rgb(255,255,255)" stroke="none" />
  <circle cx="1036" cy="1108" r="4" fill="rgb(255,255,255)" stroke="none" />
  <circle cx="1040" cy="1112" r="4" fill="rgb(255,255,255)" stroke="none" />
  <circle cx="1040" cy="1116" r="4" fill="rgb(255,255,255)" stroke="none" />
  <circle cx="1040" cy="1120" r="4" fill="rgb(255,255,255)" stroke="none" />
  <circle cx="1040" cy="1124" r="4" fill="rgb(255,255,255)" stroke="none" />
  <circle cx="1044" cy="1128" r="4" fill="rgb(255,255,255)" stroke="none" />
  <circle cx="1044" cy="1132" r="4" fill="rgb(255,255,255)" stroke="none" />
  <circle cx="1044" cy="1136" r="4" fill="rgb(255,255,255)" stroke="none" />
  <circle cx="1048" cy="1140" r="4" fill="rgb(255,255,255)" stroke="none" />
  <circle cx="1048" cy="1144" r="4" fill="rgb(255,255,255)" stroke="none" />
  <circle cx="1048" cy="1148" r="4" fill="rgb(255,255,255)" stroke="none" />
  <circle cx="1052" cy="1152" r="4" fill="rgb(255,255,255)" stroke="none" />
  <circle cx="1052" cy="1156" r="4" fill="rgb(255,255,255)" stroke="none" />
  <circle cx="1052" cy="1160" r="4" fill="rgb(255,255,255)" stroke="none" />
  <circle cx="1052" cy="1164" r="4" fill="rgb(255,255,255)" stroke="none" />
  <circle cx="1052" cy="1168" r="4" fill="rgb(255,255,255)" stroke="none" />
  <circle cx="1052" cy="1172" r="4" fill="rgb(255,255,255)" stroke="none" />
  <circle cx="1052" cy="1176" r="4" fill="rgb(255,255,255)" stroke="none" />
  <circle cx="1052" cy="1180" r="4" fill="rgb(255,255,255)" stroke="none" />
  <circle cx="1048" cy="1184" r="4" fill="rgb(255,255,255)" stroke="none" />
  <circle cx="1048" cy="1188" r="4" fill="rgb(255,255,255)" stroke="none" />
  <circle cx="1048" cy="1192" r="4" fill="rgb(255,255,255)" stroke="none" />
  <circle cx="1044" cy="1196" r="4" fill="rgb(255,255,255)" stroke="none" />
  <circle cx="1044" cy="1200" r="4" fill="rgb(255,255,255)" stroke="none" />
  <circle cx="1040" cy="1204" r="4" fill="rgb(255,255,255)" stroke="none" />
  <circle cx="1040" cy="1208" r="4" fill="rgb(255,255,255)" stroke="none" />
  <circle cx="1036" cy="1212" r="4" fill="rgb(255,255,255)" stroke="none" />
  <circle cx="1032" cy="1216" r="4" fill="rgb(255,255,255)" stroke="none" />
  <circle cx="1028" cy="1220" r="4" fill="rgb(255,255,255)" stroke="none" />
  <circle cx="1024" cy="1224" r="4" fill="rgb(255,255,255)" stroke="none" />
  <circle cx="1020" cy="1228" r="4" fill="rgb(255,255,255)" stroke="none" />
  <circle cx="1016" cy="1232" r="4" fill="rgb(255,255,255)" stroke="none" />
  <circle cx="1012" cy="1236" r="4" fill="rgb(255,255,255)" stroke="none" />
  <circle cx="1008" cy="1240" r="4" fill="rgb(255,255,255)" stroke="none" />
  <circle cx="1004" cy="1240" r="4" fill="rgb(255,255,255)" stroke="none" />
  <circle cx="1000" cy="1244" r="4" fill="rgb(255,255,255)" stroke="none" />
  <circle cx="996" cy="1248" r="4" fill="rgb(255,255,255)" stroke="none" />
  <circle cx="992" cy="1248" r="4" fill="rgb(255,255,255)" stroke="none" />
  <circle cx="988" cy="1252" r="4" fill="rgb(255,255,255)" stroke="none" />
  <circle cx="984" cy="1252" r="4" fill="rgb(255,255,255)" stroke="none" />
  <circle cx="980" cy="1256" r="4" fill="rgb(255,255,255)" stroke="none" />
  <circle cx="976" cy="1256" r="4" fill="rgb(255,255,255)" stroke="none" />
  <circle cx="972" cy="1256" r="4" fill="rgb(255,255,255)" stroke="none" />
  <circle cx="968" cy="1256" r="4" fill="rgb(255,255,255)" stroke="none" />
  <circle cx="964" cy="1256" r="4" fill="rgb(255,255,255)" stroke="none" />
  <circle cx="960" cy="1256" r="4" fill="rgb(255,255,255)" stroke="none" />
  <circle cx="956" cy="1260" r="4" fill="rgb(255,255,255)" stroke="none" />
  <circle cx="952" cy="1260" r="4" fill="rgb(255,255,255)" stroke="none" />
  <circle cx="948" cy="1260" r="4" fill="rgb(255,255,255)" stroke="none" />
  <circle cx="944" cy="1260" r="4" fill="rgb(255,255,255)" stroke="none" />
  <circle cx="940" cy="1260" r="4" fill="rgb(255,255,255)" stroke="none" />
  <circle cx="936" cy="1260" r="4" fill="rgb(255,255,255)" stroke="none" />
  <circle cx="932" cy="1260" r="4" fill="rgb(255,255,255)" stroke="none" />
  <circle cx="928" cy="1260" r="4" fill="rgb(255,255,255)" stroke="none" />
  <circle cx="924" cy="1264" r="4" fill="rgb(255,255,255)" stroke="none" />
  <circle cx="920" cy="1264" r="4" fill="rgb(255,255,255)" stroke="none" />
  <circle cx="916" cy="1264" r="4" fill="rgb(255,255,255)" stroke="none" />
  <circle cx="912" cy="1264" r="4" fill="rgb(255,255,255)" stroke="none" />
  <circle cx="908" cy="1264" r="4" fill="rgb(255,255,255)" stroke="none" />
  <circle cx="904" cy="1264" r="4" fill="rgb(255,255,255)" stroke="none" />
  <circle cx="900" cy="1264" r="4" fill="rgb(255,255,255)" stroke="none" />
  <circle cx="896" cy="1268" r="4" fill="rgb(255,255,255)" stroke="none" />
  <circle cx="892" cy="1268" r="4" fill="rgb(255,255,255)" stroke="none" />
  <circle cx="888" cy="1268" r="4" fill="rgb(255,255,255)" stroke="none" />
  <circle cx="884" cy="1272" r="4" fill="rgb(255,255,255)" stroke="none" />
  <circle cx="880" cy="1272" r="4" fill="rgb(255,255,255)" stroke="none" />
  <circle cx="876" cy="1272" r="4" fill="rgb(255,255,255)" stroke="none" />
  <circle cx="872" cy="1272" r="4" fill="rgb(255,255,255)" stroke="none" />
  <circle cx="868" cy="1276" r="4" fill="rgb(255,255,255)" stroke="none" />
  <circle cx="864" cy="1276" r="4" fill="rgb(255,255,255)" stroke="none" />
  <circle cx="860" cy="1276" r="4" fill="rgb(255,255,255)" stroke="none" />
  <circle cx="856" cy="1280" r="4" fill="rgb(255,255,255)" stroke="none" />
  <circle cx="852" cy="1280" r="4" fill="rgb(255,255,255)" stroke="none" />
  <circle cx="848" cy="1280" r="4" fill="rgb(255,255,255)" stroke="none" />
  <circle cx="844" cy="1284" r="4" fill="rgb(255,255,255)" stroke="none" />
  <circle cx="840" cy="1284" r="4" fill="rgb(255,255,255)" stroke="none" />
  <circle cx="836" cy="1284" r="4" fill="rgb(255,255,255)" stroke="none" />
  <circle cx="832" cy="1288" r="4" fill="rgb(255,255,255)" stroke="none" />
  <circle cx="828" cy="1288" r="4" fill="rgb(255,255,255)" stroke="none" />
  <circle cx="824" cy="1292" r="4" fill="rgb(255,255,255)" stroke="none" />
  <circle cx="820" cy="1292" r="4" fill="rgb(255,255,255)" stroke="none" />
  <circle cx="816" cy="1292" r="4" fill="rgb(255,255,255)" stroke="none" />
  <circle cx="812" cy="1296" r="4" fill="rgb(255,255,255)" stroke="none" />
  <circle cx="808" cy="1296" r="4" fill="rgb(255,255,255)" stroke="none" />
  <circle cx="804" cy="1300" r="4" fill="rgb(255,255,255)" stroke="none" />
  <circle cx="800" cy="1300" r="4" fill="rgb(255,255,255)" stroke="none" />
  <circle cx="796" cy="1300" r="4" fill="rgb(255,255,255)" stroke="none" />
  <circle cx="792" cy="1304" r="4" fill="rgb(255,255,255)" stroke="none" />
  <circle cx="788" cy="1308" r="4" fill="rgb(255,255,255)" stroke="none" />
  <circle cx="784" cy="1308" r="4" fill="rgb(255,255,255)" stroke="none" />
  <circle cx="780" cy="1308" r="4" fill="rgb(255,255,255)" stroke="none" />
  <circle cx="776" cy="1312" r="4" fill="rgb(255,255,255)" stroke="none" />
  <circle cx="772" cy="1316" r="4" fill="rgb(255,255,255)" stroke="none" />
  <circle cx="768" cy="1316" r="4" fill="rgb(255,255,255)" stroke="none" />
  <circle cx="764" cy="1316" r="4" fill="rgb(255,255,255)" stroke="none" />
  <circle cx="760" cy="1320" r="4" fill="rgb(255,255,255)" stroke="none" />
  <circle cx="756" cy="1320" r="4" fill="rgb(255,255,255)" stroke="none" />
  <circle cx="752" cy="1320" r="4" fill="rgb(255,255,255)" stroke="none" />
  <circle cx="748" cy="1320" r="4" fill="rgb(255,255,255)" stroke="none" />
  <circle cx="744" cy="1320" r="4" fill="rgb(255,255,255)" stroke="none" />
  <circle cx="740" cy="1320" r="4" fill="rgb(255,255,255)" stroke="none" />
  <circle cx="736" cy="1316" r="4" fill="rgb(255,255,255)" stroke="none" />
  <circle cx="732" cy="1316" r="4" fill="rgb(255,255,255)" stroke="none" />
  <circle cx="728" cy="1316" r="4" fill="rgb(255,255,255)" stroke="none" />
  <circle cx="724" cy="1312" r="4" fill="rgb(255,255,255)" stroke="none" />
  <circle cx="720" cy="1312" r="4" fill="rgb(255,255,255)" stroke="none" />
  <circle cx="716" cy="1308" r="4" fill="rgb(255,255,255)" stroke="none" />
  <circle cx="712" cy="1304" r="4" fill="rgb(255,255,255)" stroke="none" />
  <circle cx="712" cy="1300" r="4" fill="rgb(255,255,255)" stroke="none" />
  <circle cx="708" cy="1296" r="4" fill="rgb(255,255,255)" stroke="none" />
  <circle cx="704" cy="1292" r="4" fill="rgb(255,255,255)" stroke="none" />
  <circle cx="704" cy="1288" r="4" fill="rgb(255,255,255)" stroke="none" />
  <circle cx="704" cy="1284" r="4" fill="rgb(255,255,255)" stroke="none" />
  <circle cx="704" cy="1280" r="4" fill="rgb(255,255,255)" stroke="none" />
  <circle cx="704" cy="1276" r="4" fill="rgb(255,255,255)" stroke="none" />
  <circle cx="704" cy="1272" r="4" fill="rgb(255,255,255)" stroke="none" />
  <circle cx="704" cy="1268" r="4" fill="rgb(255,255,255)" stroke="none" />
  <circle cx="704" cy="1264" r="4" fill="rgb(255,255,255)" stroke="none" />
  <circle cx="704" cy="1260" r="4" fill="rgb(255,255,255)" stroke="none" />
  <circle cx="704" cy="1256" r="4" fill="rgb(255,255,255)" stroke="none" />
  <circle cx="704" cy="1252" r="4" fill="rgb(255,255,255)" stroke="none" />
  <circle cx="708" cy="1248" r="4" fill="rgb(255,255,255)" stroke="none" />
  <circle cx="708" cy="1244" r="4" fill="rgb(255,255,255)" stroke="none" />
  <circle cx="708" cy="1240" r="4" fill="rgb(255,255,255)" stroke="none" />
  <circle cx="712" cy="1236" r="4" fill="rgb(255,255,255)" stroke="none" />
  <circle cx="716" cy="1232" r="4" fill="rgb(255,255,255)" stroke="none" />
  <circle cx="716" cy="1228" r="4" fill="rgb(255,255,255)" stroke="none" />
  <circle cx="720" cy="1224" r="4" fill="rgb(255,255,255)" stroke="none" />
  <circle cx="720" cy="1220" r="4" fill="rgb(255,255,255)" stroke="none" />
  <circle cx="724" cy="1216" r="4" fill="rgb(255,255,255)" stroke="none" />
  <circle cx="724" cy="1212" r="4" fill="rgb(255,255,255)" stroke="none" />
  <circle cx="728" cy="1208" r="4" fill="rgb(255,255,255)" stroke="none" />
  <circle cx="732" cy="1204" r="4" fill="rgb(255,255,255)" stroke="none" />
  <circle cx="732" cy="1200" r="4" fill="rgb(255,255,255)" stroke="none" />
  <circle cx="732" cy="1196" r="4" fill="rgb(255,255,255)" stroke="none" />
  <circle cx="736" cy="1192" r="4" fill="rgb(255,255,255)" stroke="none" />
  <circle cx="740" cy="1188" r="4" fill="rgb(255,255,255)" stroke="none" />
  <circle cx="744" cy="1184" r="4" fill="rgb(255,255,255)" stroke="none" />
  <circle cx="748" cy="1180" r="4" fill="rgb(255,255,255)" stroke="none" />
  <circle cx="748" cy="1176" r="4" fill="rgb(255,255,255)" stroke="none" />
  <circle cx="752" cy="1172" r="4" fill="rgb(255,255,255)" stroke="none" />
  <circle cx="756" cy="1168" r="4" fill="rgb(255,255,255)" stroke="none" />
  <circle cx="760" cy="1164" r="4" fill="rgb(255,255,255)" stroke="none" />
  <circle cx="760" cy="1160" r="4" fill="rgb(255,255,255)" stroke="none" />
  <circle cx="764" cy="1156" r="4" fill="rgb(255,255,255)" stroke="none" />
  <circle cx="768" cy="1152" r="4" fill="rgb(255,255,255)" stroke="none" />
  <circle cx="772" cy="1148" r="4" fill="rgb(255,255,255)" stroke="none" />
  <circle cx="772" cy="1144" r="4" fill="rgb(255,255,255)" stroke="none" />
  <circle cx="776" cy="1140" r="4" fill="rgb(255,255,255)" stroke="none" />
  <circle cx="780" cy="1136" r="4" fill="rgb(255,255,255)" stroke="none" />
  <circle cx="780" cy="1132" r="4" fill="rgb(255,255,255)" stroke="none" />
  <circle cx="784" cy="1128" r="4" fill="rgb(255,255,255)" stroke="none" />
  <circle cx="780" cy="1128" r="4" fill="rgb(255,255,255)" stroke="none" />
  <circle cx="776" cy="1132" r="4" fill="rgb(255,255,255)" stroke="none" />
  <circle cx="772" cy="1132" r="4" fill="rgb(255,255,255)" stroke="none" />
  <circle cx="768" cy="1136" r="4" fill="rgb(255,255,255)" stroke="none" />
  <circle cx="764" cy="1136" r="4" fill="rgb(255,255,255)" stroke="none" />
  <circle cx="760" cy="1140" r="4" fill="rgb(255,255,255)" stroke="none" />
  <circle cx="756" cy="1144" r="4" fill="rgb(255,255,255)" stroke="none" />
  <circle cx="752" cy="1144" r="4" fill="rgb(255,255,255)" stroke="none" />
  <circle cx="748" cy="1148" r="4" fill="rgb(255,255,255)" stroke="none" />
  <circle cx="744" cy="1152" r="4" fill="rgb(255,255,255)" stroke="none" />
  <circle cx="740" cy="1156" r="4" fill="rgb(255,255,255)" stroke="none" />
  <circle cx="736" cy="1160" r="4" fill="rgb(255,255,255)" stroke="none" />
  <circle cx="732" cy="1156" r="4" fill="rgb(255,255,255)" stroke="none" />
  <circle cx="732" cy="1152" r="4" fill="rgb(255,255,255)" stroke="none" />
  <circle cx="732" cy="1148" r="4" fill="rgb(255,255,255)" stroke="none" />
  <circle cx="736" cy="1144" r="4" fill="rgb(255,255,255)" stroke="none" />
  <circle cx="736" cy="1140" r="4" fill="rgb(255,255,255)" stroke="none" />
  <circle cx="740" cy="1136" r="4" fill="rgb(255,255,255)" stroke="none" />
  <circle cx="740" cy="1132" r="4" fill="rgb(255,255,255)" stroke="none" />
  <circle cx="740" cy="1128" r="4" fill="rgb(255,255,255)" stroke="none" />
  <circle cx="744" cy="1124" r="4" fill="rgb(255,255,255)" stroke="none" />
  <circle cx="748" cy="1120" r="4" fill="rgb(255,255,255)" stroke="none" />
  <circle cx="752" cy="1116" r="4" fill="rgb(255,255,255)" stroke="none" />
  <circle cx="756" cy="1112" r="4" fill="rgb(255,255,255)" stroke="none" />
  <circle cx="760" cy="1112" r="4" fill="rgb(255,255,255)" stroke="none" />
  <circle cx="764" cy="1108" r="4" fill="rgb(255,255,255)" stroke="none" />
  <circle cx="768" cy="1108" r="4" fill="rgb(255,255,255)" stroke="none" />
  <circle cx="772" cy="1104" r="4" fill="rgb(255,255,255)" stroke="none" />
  <circle cx="776" cy="1104" r="4" fill="rgb(255,255,255)" stroke="none" />
  <circle cx="780" cy="1104" r="4" fill="rgb(255,255,255)" stroke="none" />
  <circle cx="784" cy="1104" r="4" fill="rgb(255,255,255)" stroke="none" />
  <circle cx="788" cy="1104" r="4" fill="rgb(255,255,255)" stroke="none" />
  <circle cx="784" cy="1104" r="4" fill="rgb(255,255,255)" stroke="none" />
  <circle cx="780" cy="1104" r="4" fill="rgb(255,255,255)" stroke="none" />
  <circle cx="776" cy="1104" r="4" fill="rgb(255,255,255)" stroke="none" />
  <circle cx="772" cy="1104" r="4" fill="rgb(255,255,255)" stroke="none" />
  <circle cx="768" cy="1104" r="4" fill="rgb(255,255,255)" stroke="none" />
  <circle cx="764" cy="1100" r="4" fill="rgb(255,255,255)" stroke="none" />
  <circle cx="760" cy="1096" r="4" fill="rgb(255,255,255)" stroke="none" />
  <circle cx="764" cy="1092" r="4" fill="rgb(255,255,255)" stroke="none" />
  <circle cx="768" cy="1088" r="4" fill="rgb(255,255,255)" stroke="none" />
  <circle cx="772" cy="1088" r="4" fill="rgb(255,255,255)" stroke="none" />
  <circle cx="776" cy="1088" r="4" fill="rgb(255,255,255)" stroke="none" />
  <circle cx="780" cy="1088" r="4" fill="rgb(255,255,255)" stroke="none" />
  <circle cx="784" cy="1092" r="4" fill="rgb(255,255,255)" stroke="none" />
  <circle cx="788" cy="1092" r="4" fill="rgb(255,255,255)" stroke="none" />
  <circle cx="788" cy="1088" r="4" fill="rgb(255,255,255)" stroke="none" />
  <circle cx="784" cy="1088" r="4" fill="rgb(255,255,255)" stroke="none" />
  <circle cx="780" cy="1088" r="4" fill="rgb(255,255,255)" stroke="none" />
  <circle cx="776" cy="1084" r="4" fill="rgb(255,255,255)" stroke="none" />
  <circle cx="772" cy="1084" r="4" fill="rgb(255,255,255)" stroke="none" />
  <circle cx="768" cy="1084" r="4" fill="rgb(255,255,255)" stroke="none" />
  <circle cx="764" cy="1084" r="4" fill="rgb(255,255,255)" stroke="none" />
  <circle cx="760" cy="1080" r="4" fill="rgb(255,255,255)" stroke="none" />
  <circle cx="760" cy="1076" r="4" fill="rgb(255,255,255)" stroke="none" />
  <circle cx="760" cy="1072" r="4" fill="rgb(255,255,255)" stroke="none" />
  <circle cx="760" cy="1068" r="4" fill="rgb(255,255,255)" stroke="none" />
  <circle cx="764" cy="1064" r="4" fill="rgb(255,255,255)" stroke="none" />
  <circle cx="768" cy="1064" r="4" fill="rgb(255,255,255)" stroke="none" />
  <circle cx="772" cy="1068" r="4" fill="rgb(255,255,255)" stroke="none" />
  <circle cx="776" cy="1068" r="4" fill="rgb(255,255,255)" stroke="none" />
  <circle cx="772" cy="1064" r="4" fill="rgb(255,255,255)" stroke="none" />
  <circle cx="772" cy="1060" r="4" fill="rgb(255,255,255)" stroke="none" />
  <circle cx="768" cy="1056" r="4" fill="rgb(255,255,255)" stroke="none" />
  <circle cx="764" cy="1052" r="4" fill="rgb(255,255,255)" stroke="none" />
  <circle cx="768" cy="1048" r="4" fill="rgb(255,255,255)" stroke="none" />
  <circle cx="772" cy="1044" r="4" fill="rgb(255,255,255)" stroke="none" />
  <circle cx="768" cy="1044" r="4" fill="rgb(255,255,255)" stroke="none" />
  <circle cx="764" cy="1044" r="4" fill="rgb(255,255,255)" stroke="none" />
  <circle cx="760" cy="1044" r="4" fill="rgb(255,255,255)" stroke="none" />
  <circle cx="756" cy="1044" r="4" fill="rgb(255,255,255)" stroke="none" />
  <circle cx="752" cy="1040" r="4" fill="rgb(255,255,255)" stroke="none" />
  <circle cx="748" cy="1036" r="4" fill="rgb(255,255,255)" stroke="none" />
  <circle cx="744" cy="1036" r="4" fill="rgb(255,255,255)" stroke="none" />
  <circle cx="740" cy="1032" r="4" fill="rgb(255,255,255)" stroke="none" />
  <circle cx="736" cy="1032" r="4" fill="rgb(255,255,255)" stroke="none" />
  <circle cx="732" cy="1028" r="4" fill="rgb(255,255,255)" stroke="none" />
  <circle cx="732" cy="1024" r="4" fill="rgb(255,255,255)" stroke="none" />
  <circle cx="728" cy="1020" r="4" fill="rgb(255,255,255)" stroke="none" />
  <circle cx="728" cy="1016" r="4" fill="rgb(255,255,255)" stroke="none" />
  <circle cx="728" cy="1012" r="4" fill="rgb(255,255,255)" stroke="none" />
  <circle cx="728" cy="1008" r="4" fill="rgb(255,255,255)" stroke="none" />
  <circle cx="728" cy="1004" r="4" fill="rgb(255,255,255)" stroke="none" />
  <circle cx="728" cy="1000" r="4" fill="rgb(255,255,255)" stroke="none" />
  <circle cx="728" cy="996" r="4" fill="rgb(255,255,255)" stroke="none" />
  <circle cx="728" cy="992" r="4" fill="rgb(255,255,255)" stroke="none" />
  <circle cx="728" cy="988" r="4" fill="rgb(255,255,255)" stroke="none" />
  <circle cx="728" cy="984" r="4" fill="rgb(255,255,255)" stroke="none" />
  <circle cx="724" cy="980" r="4" fill="rgb(255,255,255)" stroke="none" />
  <circle cx="720" cy="976" r="4" fill="rgb(255,255,255)" stroke="none" />
  <circle cx="720" cy="972" r="4" fill="rgb(255,255,255)" stroke="none" />
  <circle cx="720" cy="968" r="4" fill="rgb(255,255,255)" stroke="none" />
  <circle cx="720" cy="964" r="4" fill="rgb(255,255,255)" stroke="none" />
  <circle cx="720" cy="960" r="4" fill="rgb(255,255,255)" stroke="none" />
  <circle cx="720" cy="956" r="4" fill="rgb(255,255,255)" stroke="none" />
  <circle cx="716" cy="952" r="4" fill="rgb(255,255,255)" stroke="none" />
  <circle cx="716" cy="948" r="4" fill="rgb(255,255,255)" stroke="none" />
  <circle cx="716" cy="944" r="4" fill="rgb(255,255,255)" stroke="none" />
  <circle cx="716" cy="940" r="4" fill="rgb(255,255,255)" stroke="none" />
  <circle cx="720" cy="936" r="4" fill="rgb(255,255,255)" stroke="none" />
  <circle cx="720" cy="932" r="4" fill="rgb(255,255,255)" stroke="none" />
  <circle cx="720" cy="928" r="4" fill="rgb(255,255,255)" stroke="none" />
  <circle cx="720" cy="924" r="4" fill="rgb(255,255,255)" stroke="none" />
  <circle cx="716" cy="920" r="4" fill="rgb(255,255,255)" stroke="none" />
  <circle cx="716" cy="916" r="4" fill="rgb(255,255,255)" stroke="none" />
  <circle cx="712" cy="916" r="4" fill="rgb(255,255,255)" stroke="none" />
  <circle cx="708" cy="916" r="4" fill="rgb(255,255,255)" stroke="none" />
  <circle cx="704" cy="912" r="4" fill="rgb(255,255,255)" stroke="none" />
  <circle cx="700" cy="912" r="4" fill="rgb(255,255,255)" stroke="none" />
  <circle cx="696" cy="908" r="4" fill="rgb(255,255,255)" stroke="none" />
  <circle cx="696" cy="904" r="4" fill="rgb(255,255,255)" stroke="none" />
  <circle cx="692" cy="900" r="4" fill="rgb(255,255,255)" stroke="none" />
  <circle cx="692" cy="896" r="4" fill="rgb(255,255,255)" stroke="none" />
  <circle cx="696" cy="892" r="4" fill="rgb(255,255,255)" stroke="none" />
  <circle cx="696" cy="888" r="4" fill="rgb(255,255,255)" stroke="none" />
  <circle cx="700" cy="884" r="4" fill="rgb(255,255,255)" stroke="none" />
  <circle cx="704" cy="880" r="4" fill="rgb(255,255,255)" stroke="none" />
  <circle cx="704" cy="876" r="4" fill="rgb(255,255,255)" stroke="none" />
  <circle cx="708" cy="872" r="4" fill="rgb(255,255,255)" stroke="none" />
  <circle cx="712" cy="868" r="4" fill="rgb(255,255,255)" stroke="none" />
  <circle cx="712" cy="864" r="4" fill="rgb(255,255,255)" stroke="none" />
  <circle cx="716" cy="860" r="4" fill="rgb(255,255,255)" stroke="none" />
  <circle cx="712" cy="856" r="4" fill="rgb(255,255,255)" stroke="none" />
  <circle cx="712" cy="852" r="4" fill="rgb(255,255,255)" stroke="none" />
  <circle cx="712" cy="848" r="4" fill="rgb(255,255,255)" stroke="none" />
  <circle cx="716" cy="844" r="4" fill="rgb(255,255,255)" stroke="none" />
  <circle cx="720" cy="840" r="4" fill="rgb(255,255,255)" stroke="none" />
  <circle cx="720" cy="836" r="4" fill="rgb(255,255,255)" stroke="none" />
  <circle cx="720" cy="832" r="4" fill="rgb(255,255,255)" stroke="none" />
  <circle cx="724" cy="828" r="4" fill="rgb(255,255,255)" stroke="none" />
  <circle cx="728" cy="824" r="4" fill="rgb(255,255,255)" stroke="none" />
  <circle cx="728" cy="820" r="4" fill="rgb(255,255,255)" stroke="none" />
  <circle cx="732" cy="816" r="4" fill="rgb(255,255,255)" stroke="none" />
  <circle cx="732" cy="812" r="4" fill="rgb(255,255,255)" stroke="none" />
  <circle cx="732" cy="808" r="4" fill="rgb(255,255,255)" stroke="none" />
  <circle cx="732" cy="804" r="4" fill="rgb(255,255,255)" stroke="none" />
  <circle cx="732" cy="800" r="4" fill="rgb(255,255,255)" stroke="none" />
  <circle cx="732" cy="796" r="4" fill="rgb(255,255,255)" stroke="none" />
  <circle cx="732" cy="792" r="4" fill="rgb(255,255,255)" stroke="none" />
  <circle cx="732" cy="788" r="4" fill="rgb(255,255,255)" stroke="none" />
  <circle cx="732" cy="784" r="4" fill="rgb(255,255,255)" stroke="none" />
  <circle cx="736" cy="780" r="4" fill="rgb(255,255,255)" stroke="none" />
  <circle cx="736" cy="776" r="4" fill="rgb(255,255,255)" stroke="none" />
  <circle cx="736" cy="772" r="4" fill="rgb(255,255,255)" stroke="none" />
  <circle cx="736" cy="768" r="4" fill="rgb(255,255,255)" stroke="none" />
  <circle cx="736" cy="764" r="4" fill="rgb(255,255,255)" stroke="none" />
  <circle cx="740" cy="760" r="4" fill="rgb(255,255,255)" stroke="none" />
  <circle cx="740" cy="756" r="4" fill="rgb(255,255,255)" stroke="none" />
  <circle cx="744" cy="752" r="4" fill="rgb(255,255,255)" stroke="none" />
  <circle cx="744" cy="748" r="4" fill="rgb(255,255,255)" stroke="none" />
  <circle cx="748" cy="744" r="4" fill="rgb(255,255,255)" stroke="none" />
  <circle cx="748" cy="740" r="4" fill="rgb(255,255,255)" stroke="none" />
  <circle cx="752" cy="736" r="4" fill="rgb(255,255,255)" stroke="none" />
  <circle cx="752" cy="732" r="4" fill="rgb(255,255,255)" stroke="none" />
  <circle cx="756" cy="728" r="4" fill="rgb(255,255,255)" stroke="none" />
  <circle cx="756" cy="724" r="4" fill="rgb(255,255,255)" stroke="none" />
  <circle cx="760" cy="720" r="4" fill="rgb(255,255,255)" stroke="none" />
  <circle cx="756" cy="720" r="4" fill="rgb(255,255,255)" stroke="none" />
  <circle cx="752" cy="724" r="4" fill="rgb(255,255,255)" stroke="none" />
  <circle cx="752" cy="728" r="4" fill="rgb(255,255,255)" stroke="none" />
  <circle cx="748" cy="732" r="4" fill="rgb(255,255,255)" stroke="none" />
  <circle cx="744" cy="736" r="4" fill="rgb(255,255,255)" stroke="none" />
  <circle cx="744" cy="740" r="4" fill="rgb(255,255,255)" stroke="none" />
  <circle cx="740" cy="744" r="4" fill="rgb(255,255,255)" stroke="none" />
  <circle cx="740" cy="748" r="4" fill="rgb(255,255,255)" stroke="none" />
  <circle cx="736" cy="752" r="4" fill="rgb(255,255,255)" stroke="none" />
  <circle cx="732" cy="748" r="4" fill="rgb(255,255,255)" stroke="none" />
  <circle cx="732" cy="744" r="4" fill="rgb(255,255,255)" stroke="none" />
  <circle cx="732" cy="740" r="4" fill="rgb(255,255,255)" stroke="none" />
  <circle cx="732" cy="736" r="4" fill="rgb(255,255,255)" stroke="none" />
  <circle cx="732" cy="732" r="4" fill="rgb(255,255,255)" stroke="none" />
  <circle cx="736" cy="728" r="4" fill="rgb(255,255,255)" stroke="none" />
  <circle cx="740" cy="724" r="4" fill="rgb(255,255,255)" stroke="none" />
  <circle cx="740" cy="720" r="4" fill="rgb(255,255,255)" stroke="none" />
  <circle cx="744" cy="716" r="4" fill="rgb(255,255,255)" stroke="none" />
  <circle cx="748" cy="712" r="4" fill="rgb(255,255,255)" stroke="none" />
  <circle cx="748" cy="708" r="4" fill="rgb(255,255,255)" stroke="none" />
  <circle cx="748" cy="704" r="4" fill="rgb(255,255,255)" stroke="none" />
  <circle cx="752" cy="700" r="4" fill="rgb(255,255,255)" stroke="none" />
  <circle cx="756" cy="696" r="4" fill="rgb(255,255,255)" stroke="none" />
  <circle cx="760" cy="692" r="4" fill="rgb(255,255,255)" stroke="none" />
  <circle cx="764" cy="688" r="4" fill="rgb(255,255,255)" stroke="none" />
  <circle cx="768" cy="688" r="4" fill="rgb(255,255,255)" stroke="none" />
  <circle cx="772" cy="684" r="4" fill="rgb(255,255,255)" stroke="none" />
  <circle cx="776" cy="680" r="4" fill="rgb(255,255,255)" stroke="none" />
  <circle cx="780" cy="680" r="4" fill="rgb(255,255,255)" stroke="none" />
  <circle cx="784" cy="676" r="4" fill="rgb(255,255,255)" stroke="none" />
  <circle cx="788" cy="672" r="4" fill="rgb(255,255,255)" stroke="none" />
  <circle cx="792" cy="668" r="4" fill="rgb(255,255,255)" stroke="none" />
  <circle cx="796" cy="664" r="4" fill="rgb(255,255,255)" stroke="none" />
  <circle cx="800" cy="664" r="4" fill="rgb(255,255,255)" stroke="none" />
  <circle cx="804" cy="660" r="4" fill="rgb(255,255,255)" stroke="none" />
  <circle cx="808" cy="660" r="4" fill="rgb(255,255,255)" stroke="none" />
  <circle cx="812" cy="656" r="4" fill="rgb(255,255,255)" stroke="none" />
  <circle cx="816" cy="656" r="4" fill="rgb(255,255,255)" stroke="none" />
  <circle cx="820" cy="656" r="4" fill="rgb(255,255,255)" stroke="none" />
  <circle cx="824" cy="652" r="4" fill="rgb(255,255,255)" stroke="none" />
  <circle cx="828" cy="652" r="4" fill="rgb(255,255,255)" stroke="none" />
  <circle cx="832" cy="652" r="4" fill="rgb(255,255,255)" stroke="none" />
  <circle cx="836" cy="652" r="4" fill="rgb(255,255,255)" stroke="none" />
  <circle cx="840" cy="648" r="4" fill="rgb(255,255,255)" stroke="none" />
  <circle cx="844" cy="648" r="4" fill="rgb(255,255,255)" stroke="none" />
  <circle cx="848" cy="648" r="4" fill="rgb(255,255,255)" stroke="none" />
  <circle cx="852" cy="644" r="4" fill="rgb(255,255,255)" stroke="none" />
  <circle cx="856" cy="644" r="4" fill="rgb(255,255,255)" stroke="none" />
</svg>