<svg xmlns="http://www.w3.org/2000/svg" viewBox="0 0 2000 1303">
  <circle cx="1460" cy="276" r="4" fill="rgb(255,255,255)" stroke="none" />
  <circle cx="1464" cy="272" r="4" fill="rgb(255,255,255)" stroke="none" />
  <circle cx="1468" cy="272" r="4" fill="rgb(255,255,255)" stroke="none" />
  <circle cx="1472" cy="272" r="4" fill="rgb(255,255,255)" stroke="none" />
  <circle cx="1476" cy="272" r="4" fill="rgb(255,255,255)" stroke="none" />
  <circle cx="1480" cy="272" r="4" fill="rgb(255,255,255)" stroke="none" />
  <circle cx="1484" cy="272" r="4" fill="rgb(255,255,255)" stroke="none" />
  <circle cx="1488" cy="272" r="4" fill="rgb(255,255,255)" stroke="none" />
  <circle cx="1492" cy="272" r="4" fill="rgb(255,255,255)" stroke="none" />
  <circle cx="1496" cy="276" r="4" fill="rgb(255,255,255)" stroke="none" />
  <circle cx="1500" cy="276" r="4" fill="rgb(255,255,255)" stroke="none" />
  <circle cx="1504" cy="280" r="4" fill="rgb(255,255,255)" stroke="none" />
  <circle cx="1508" cy="280" r="4" fill="rgb(255,255,255)" stroke="none" />
  <circle cx="1512" cy="284" r="4" fill="rgb(255,255,255)" stroke="none" />
  <circle cx="1516" cy="284" r="4" fill="rgb(255,255,255)" stroke="none" />
  <circle cx="1520" cy="288" r="4" fill="rgb(255,255,255)" stroke="none" />
  <circle cx="1524" cy="292" r="4" fill="rgb(255,255,255)" stroke="none" />
  <circle cx="1528" cy="292" r="4" fill="rgb(255,255,255)" stroke="none" />
  <circle cx="1532" cy="296" r="4" fill="rgb(255,255,255)" stroke="none" />
  <circle cx="1536" cy="300" r="4" fill="rgb(255,255,255)" stroke="none" />
  <circle cx="1540" cy="300" r="4" fill="rgb(255,255,255)" stroke="none" />
  <circle cx="1544" cy="304" r="4" fill="rgb(255,255,255)" stroke="none" />
  <circle cx="1548" cy="308" r="4" fill="rgb(255,255,255)" stroke="none" />
  <circle cx="1552" cy="312" r="4" fill="rgb(255,255,255)" stroke="none" />
  <circle cx="1556" cy="316" r="4" fill="rgb(255,255,255)" stroke="none" />
  <circle cx="1560" cy="316" r="4" fill="rgb(255,255,255)" stroke="none" />
  <circle cx="1564" cy="320" r="4" fill="rgb(255,255,255)" stroke="none" />
  <circle cx="1568" cy="324" r="4" fill="rgb(255,255,255)" stroke="none" />
  <circle cx="1572" cy="328" r="4" fill="rgb(255,255,255)" stroke="none" />
  <circle cx="1576" cy="332" r="4" fill="rgb(255,255,255)" stroke="none" />
  <circle cx="1580" cy="336" r="4" fill="rgb(255,255,255)" stroke="none" />
  <circle cx="1584" cy="340" r="4" fill="rgb(255,255,255)" stroke="none" />
  <circle cx="1588" cy="344" r="4" fill="rgb(255,255,255)" stroke="none" />
  <circle cx="1592" cy="348" r="4" fill="rgb(255,255,255)" stroke="none" />
  <circle cx="1596" cy="352" r="4" fill="rgb(255,255,255)" stroke="none" />
  <circle cx="1600" cy="356" r="4" fill="rgb(255,255,255)" stroke="none" />
  <circle cx="1604" cy="360" r="4" fill="rgb(255,255,255)" stroke="none" />
  <circle cx="1608" cy="364" r="4" fill="rgb(255,255,255)" stroke="none" />
  <circle cx="1612" cy="368" r="4" fill="rgb(255,255,255)" stroke="none" />
  <circle cx="1616" cy="372" r="4" fill="rgb(255,255,255)" stroke="none" />
  <circle cx="1620" cy="376" r="4" fill="rgb(255,255,255)" stroke="none" />
  <circle cx="1624" cy="380" r="4" fill="rgb(255,255,255)" stroke="none" />
  <circle cx="1628" cy="384" r="4" fill="rgb(255,255,255)" stroke="none" />
  <circle cx="1632" cy="388" r="4" fill="rgb(255,255,255)" stroke="none" />
  <circle cx="1636" cy="392" r="4" fill="rgb(255,255,255)" stroke="none" />
  <circle cx="1636" cy="396" r="4" fill="rgb(255,255,255)" stroke="none" />
  <circle cx="1640" cy="400" r="4" fill="rgb(255,255,255)" stroke="none" />
  <circle cx="1644" cy="404" r="4" fill="rgb(255,255,255)" stroke="none" />
  <circle cx="1644" cy="408" r="4" fill="rgb(255,255,255)" stroke="none" />
  <circle cx="1648" cy="412" r="4" fill="rgb(255,255,255)" stroke="none" />
  <circle cx="1648" cy="416" r="4" fill="rgb(255,255,255)" stroke="none" />
  <circle cx="1652" cy="420" r="4" fill="rgb(255,255,255)" stroke="none" />
  <circle cx="1652" cy="424" r="4" fill="rgb(255,255,255)" stroke="none" />
  <circle cx="1656" cy="428" r="4" fill="rgb(255,255,255)" stroke="none" />
  <circle cx="1656" cy="432" r="4" fill="rgb(255,255,255)" stroke="none" />
  <circle cx="1660" cy="436" r="4" fill="rgb(255,255,255)" stroke="none" />
  <circle cx="1660" cy="440" r="4" fill="rgb(255,255,255)" stroke="none" />
  <circle cx="1660" cy="444" r="4" fill="rgb(255,255,255)" stroke="none" />
  <circle cx="1664" cy="448" r="4" fill="rgb(255,255,255)" stroke="none" />
  <circle cx="1664" cy="452" r="4" fill="rgb(255,255,255)" stroke="none" />
  <circle cx="1668" cy="456" r="4" fill="rgb(255,255,255)" stroke="none" />
  <circle cx="1668" cy="460" r="4" fill="rgb(255,255,255)" stroke="none" />
  <circle cx="1668" cy="464" r="4" fill="rgb(255,255,255)" stroke="none" />
  <circle cx="1672" cy="468" r="4" fill="rgb(255,255,255)" stroke="none" />
  <circle cx="1672" cy="472" r="4" fill="rgb(255,255,255)" stroke="none" />
  <circle cx="1672" cy="476" r="4" fill="rgb(255,255,255)" stroke="none" />
  <circle cx="1672" cy="480" r="4" fill="rgb(255,255,255)" stroke="none" />
  <circle cx="1676" cy="484" r="4" fill="rgb(255,255,255)" stroke="none" />
  <circle cx="1676" cy="488" r="4" fill="rgb(255,255,255)" stroke="none" />
  <circle cx="1676" cy="492" r="4" fill="rgb(255,255,255)" stroke="none" />
  <circle cx="1676" cy="496" r="4" fill="rgb(255,255,255)" stroke="none" />
  <circle cx="1676" cy="500" r="4" fill="rgb(255,255,255)" stroke="none" />
  <circle cx="1676" cy="504" r="4" fill="rgb(255,255,255)" stroke="none" />
  <circle cx="1676" cy="508" r="4" fill="rgb(255,255,255)" stroke="none" />
  <circle cx="1676" cy="512" r="4" fill="rgb(255,255,255)" stroke="none" />
  <circle cx="1676" cy="516" r="4" fill="rgb(255,255,255)" stroke="none" />
  <circle cx="1676" cy="520" r="4" fill="rgb(255,255,255)" stroke="none" />
  <circle cx="1676" cy="524" r="4" fill="rgb(255,255,255)" stroke="none" />
  <circle cx="1676" cy="528" r="4" fill="rgb(255,255,255)" stroke="none" />
  <circle cx="1676" cy="532" r="4" fill="rgb(255,255,255)" stroke="none" />
  <circle cx="1676" cy="536" r="4" fill="rgb(255,255,255)" stroke="none" />
  <circle cx="1676" cy="540" r="4" fill="rgb(255,255,255)" stroke="none" />
  <circle cx="1676" cy="544" r="4" fill="rgb(255,255,255)" stroke="none" />
  <circle cx="1676" cy="548" r="4" fill="rgb(255,255,255)" stroke="none" />
  <circle cx="1672" cy="552" r="4" fill="rgb(255,255,255)" stroke="none" />
  <circle cx="1672" cy="556" r="4" fill="rgb(255,255,255)" stroke="none" />
  <circle cx="1672" cy="560" r="4" fill="rgb(255,255,255)" stroke="none" />
  <circle cx="1672" cy="564" r="4" fill="rgb(255,255,255)" stroke="none" />
  <circle cx="1672" cy="568" r="4" fill="rgb(255,255,255)" stroke="none" />
  <circle cx="1672" cy="572" r="4" fill="rgb(255,255,255)" stroke="none" />
  <circle cx="1672" cy="576" r="4" fill="rgb(255,255,255)" stroke="none" />
  <circle cx="1668" cy="580" r="4" fill="rgb(255,255,255)" stroke="none" />
  <circle cx="1668" cy="584" r="4" fill="rgb(255,255,255)" stroke="none" />
  <circle cx="1668" cy="588" r="4" fill="rgb(255,255,255)" stroke="none" />
  <circle cx="1668" cy="592" r="4" fill="rgb(255,255,255)" stroke="none" />
  <circle cx="1668" cy="596" r="4" fill="rgb(255,255,255)" stroke="none" />
  <circle cx="1664" cy="600" r="4" fill="rgb(255,255,255)" stroke="none" />
  <circle cx="1664" cy="604" r="4" fill="rgb(255,255,255)" stroke="none" />
  <circle cx="1664" cy="608" r="4" fill="rgb(255,255,255)" stroke="none" />
  <circle cx="1660" cy="612" r="4" fill="rgb(255,255,255)" stroke="none" />
  <circle cx="1660" cy="616" r="4" fill="rgb(255,255,255)" stroke="none" />
  <circle cx="1660" cy="620" r="4" fill="rgb(255,255,255)" stroke="none" />
  <circle cx="1656" cy="624" r="4" fill="rgb(255,255,255)" stroke="none" />
  <circle cx="1656" cy="628" r="4" fill="rgb(255,255,255)" stroke="none" />
  <circle cx="1656" cy="632" r="4" fill="rgb(255,255,255)" stroke="none" />
  <circle cx="1656" cy="636" r="4" fill="rgb(255,255,255)" stroke="none" />
  <circle cx="1656" cy="640" r="4" fill="rgb(255,255,255)" stroke="none" />
  <circle cx="1656" cy="644" r="4" fill="rgb(255,255,255)" stroke="none" />
  <circle cx="1656" cy="648" r="4" fill="rgb(255,255,255)" stroke="none" />
  <circle cx="1656" cy="652" r="4" fill="rgb(255,255,255)" stroke="none" />
  <circle cx="1652" cy="656" r="4" fill="rgb(255,255,255)" stroke="none" />
  <circle cx="1648" cy="660" r="4" fill="rgb(255,255,255)" stroke="none" />
  <circle cx="1644" cy="660" r="4" fill="rgb(255,255,255)" stroke="none" />
  <circle cx="1640" cy="660" r="4" fill="rgb(255,255,255)" stroke="none" />
  <circle cx="1636" cy="660" r="4" fill="rgb(255,255,255)" stroke="none" />
  <circle cx="1632" cy="660" r="4" fill="rgb(255,255,255)" stroke="none" />
  <circle cx="1628" cy="664" r="4" fill="rgb(255,255,255)" stroke="none" />
  <circle cx="1624" cy="664" r="4" fill="rgb(255,255,255)" stroke="none" />
  <circle cx="1620" cy="664" r="4" fill="rgb(255,255,255)" stroke="none" />
  <circle cx="1616" cy="664" r="4" fill="rgb(255,255,255)" stroke="none" />
  <circle cx="1612" cy="664" r="4" fill="rgb(255,255,255)" stroke="none" />
  <circle cx="1608" cy="660" r="4" fill="rgb(255,255,255)" stroke="none" />
  <circle cx="1604" cy="660" r="4" fill="rgb(255,255,255)" stroke="none" />
  <circle cx="1600" cy="660" r="4" fill="rgb(255,255,255)" stroke="none" />
  <circle cx="1596" cy="660" r="4" fill="rgb(255,255,255)" stroke="none" />
  <circle cx="1592" cy="660" r="4" fill="rgb(255,255,255)" stroke="none" />
  <circle cx="1588" cy="656" r="4" fill="rgb(255,255,255)" stroke="none" />
  <circle cx="1584" cy="656" r="4" fill="rgb(255,255,255)" stroke="none" />
  <circle cx="1580" cy="660" r="4" fill="rgb(255,255,255)" stroke="none" />
  <circle cx="1576" cy="664" r="4" fill="rgb(255,255,255)" stroke="none" />
  <circle cx="1576" cy="668" r="4" fill="rgb(255,255,255)" stroke="none" />
  <circle cx="1576" cy="672" r="4" fill="rgb(255,255,255)" stroke="none" />
  <circle cx="1576" cy="676" r="4" fill="rgb(255,255,255)" stroke="none" />
  <circle cx="1576" cy="680" r="4" fill="rgb(255,255,255)" stroke="none" />
  <circle cx="1576" cy="684" r="4" fill="rgb(255,255,255)" stroke="none" />
  <circle cx="1576" cy="688" r="4" fill="rgb(255,255,255)" stroke="none" />
  <circle cx="1576" cy="692" r="4" fill="rgb(255,255,255)" stroke="none" />
  <circle cx="1580" cy="696" r="4" fill="rgb(255,255,255)" stroke="none" />
  <circle cx="1576" cy="700" r="4" fill="rgb(255,255,255)" stroke="none" />
  <circle cx="1572" cy="700" r="4" fill="rgb(255,255,255)" stroke="none" />
  <circle cx="1568" cy="704" r="4" fill="rgb(255,255,255)" stroke="none" />
  <circle cx="1564" cy="704" r="4" fill="rgb(255,255,255)" stroke="none" />
  <circle cx="1560" cy="700" r="4" fill="rgb(255,255,255)" stroke="none" />
  <circle cx="1556" cy="704" r="4" fill="rgb(255,255,255)" stroke="none" />
  <circle cx="1556" cy="708" r="4" fill="rgb(255,255,255)" stroke="none" />
  <circle cx="1556" cy="712" r="4" fill="rgb(255,255,255)" stroke="none" />
  <circle cx="1560" cy="716" r="4" fill="rgb(255,255,255)" stroke="none" />
  <circle cx="1560" cy="720" r="4" fill="rgb(255,255,255)" stroke="none" />
  <circle cx="1560" cy="724" r="4" fill="rgb(255,255,255)" stroke="none" />
  <circle cx="1560" cy="728" r="4" fill="rgb(255,255,255)" stroke="none" />
  <circle cx="1560" cy="732" r="4" fill="rgb(255,255,255)" stroke="none" />
  <circle cx="1564" cy="736" r="4" fill="rgb(255,255,255)" stroke="none" />
  <circle cx="1564" cy="740" r="4" fill="rgb(255,255,255)" stroke="none" />
  <circle cx="1564" cy="744" r="4" fill="rgb(255,255,255)" stroke="none" />
  <circle cx="1564" cy="748" r="4" fill="rgb(255,255,255)" stroke="none" />
  <circle cx="1564" cy="752" r="4" fill="rgb(255,255,255)" stroke="none" />
  <circle cx="1568" cy="756" r="4" fill="rgb(255,255,255)" stroke="none" />
  <circle cx="1568" cy="760" r="4" fill="rgb(255,255,255)" stroke="none" />
  <circle cx="1572" cy="764" r="4" fill="rgb(255,255,255)" stroke="none" />
  <circle cx="1572" cy="768" r="4" fill="rgb(255,255,255)" stroke="none" />
  <circle cx="1572" cy="772" r="4" fill="rgb(255,255,255)" stroke="none" />
  <circle cx="1576" cy="776" r="4" fill="rgb(255,255,255)" stroke="none" />
  <circle cx="1576" cy="780" r="4" fill="rgb(255,255,255)" stroke="none" />
  <circle cx="1580" cy="784" r="4" fill="rgb(255,255,255)" stroke="none" />
  <circle cx="1580" cy="788" r="4" fill="rgb(255,255,255)" stroke="none" />
  <circle cx="1584" cy="792" r="4" fill="rgb(255,255,255)" stroke="none" />
  <circle cx="1584" cy="796" r="4" fill="rgb(255,255,255)" stroke="none" />
  <circle cx="1588" cy="800" r="4" fill="rgb(255,255,255)" stroke="none" />
  <circle cx="1588" cy="804" r="4" fill="rgb(255,255,255)" stroke="none" />
  <circle cx="1592" cy="808" r="4" fill="rgb(255,255,255)" stroke="none" />
  <circle cx="1592" cy="812" r="4" fill="rgb(255,255,255)" stroke="none" />
  <circle cx="1596" cy="816" r="4" fill="rgb(255,255,255)" stroke="none" />
  <circle cx="1596" cy="820" r="4" fill="rgb(255,255,255)" stroke="none" />
  <circle cx="1596" cy="824" r="4" fill="rgb(255,255,255)" stroke="none" />
  <circle cx="1596" cy="828" r="4" fill="rgb(255,255,255)" stroke="none" />
  <circle cx="1596" cy="832" r="4" fill="rgb(255,255,255)" stroke="none" />
  <circle cx="1600" cy="836" r="4" fill="rgb(255,255,255)" stroke="none" />
  <circle cx="1600" cy="840" r="4" fill="rgb(255,255,255)" stroke="none" />
  <circle cx="1600" cy="844" r="4" fill="rgb(255,255,255)" stroke="none" />
  <circle cx="1600" cy="848" r="4" fill="rgb(255,255,255)" stroke="none" />
  <circle cx="1600" cy="852" r="4" fill="rgb(255,255,255)" stroke="none" />
  <circle cx="1604" cy="856" r="4" fill="rgb(255,255,255)" stroke="none" />
  <circle cx="1604" cy="860" r="4" fill="rgb(255,255,255)" stroke="none" />
  <circle cx="1604" cy="864" r="4" fill="rgb(255,255,255)" stroke="none" />
  <circle cx="1604" cy="868" r="4" fill="rgb(255,255,255)" stroke="none" />
  <circle cx="1604" cy="872" r="4" fill="rgb(255,255,255)" stroke="none" />
  <circle cx="1604" cy="876" r="4" fill="rgb(255,255,255)" stroke="none" />
  <circle cx="1604" cy="880" r="4" fill="rgb(255,255,255)" stroke="none" />
  <circle cx="1604" cy="884" r="4" fill="rgb(255,255,255)" stroke="none" />
  <circle cx="1604" cy="888" r="4" fill="rgb(255,255,255)" stroke="none" />
  <circle cx="1600" cy="892" r="4" fill="rgb(255,255,255)" stroke="none" />
  <circle cx="1600" cy="896" r="4" fill="rgb(255,255,255)" stroke="none" />
  <circle cx="1600" cy="900" r="4" fill="rgb(255,255,255)" stroke="none" />
  <circle cx="1600" cy="904" r="4" fill="rgb(255,255,255)" stroke="none" />
  <circle cx="1600" cy="908" r="4" fill="rgb(255,255,255)" stroke="none" />
  <circle cx="1600" cy="912" r="4" fill="rgb(255,255,255)" stroke="none" />
  <circle cx="1600" cy="916" r="4" fill="rgb(255,255,255)" stroke="none" />
  <circle cx="1596" cy="920" r="4" fill="rgb(255,255,255)" stroke="none" />
  <circle cx="1596" cy="924" r="4" fill="rgb(255,255,255)" stroke="none" />
  <circle cx="1596" cy="928" r="4" fill="rgb(255,255,255)" stroke="none" />
  <circle cx="1596" cy="932" r="4" fill="rgb(255,255,255)" stroke="none" />
  <circle cx="1592" cy="936" r="4" fill="rgb(255,255,255)" stroke="none" />
  <circle cx="1592" cy="940" r="4" fill="rgb(255,255,255)" stroke="none" />
  <circle cx="1592" cy="944" r="4" fill="rgb(255,255,255)" stroke="none" />
  <circle cx="1588" cy="948" r="4" fill="rgb(255,255,255)" stroke="none" />
  <circle cx="1588" cy="952" r="4" fill="rgb(255,255,255)" stroke="none" />
  <circle cx="1584" cy="956" r="4" fill="rgb(255,255,255)" stroke="none" />
  <circle cx="1580" cy="960" r="4" fill="rgb(255,255,255)" stroke="none" />
  <circle cx="1580" cy="964" r="4" fill="rgb(255,255,255)" stroke="none" />
  <circle cx="1576" cy="968" r="4" fill="rgb(255,255,255)" stroke="none" />
  <circle cx="1572" cy="972" r="4" fill="rgb(255,255,255)" stroke="none" />
  <circle cx="1568" cy="976" r="4" fill="rgb(255,255,255)" stroke="none" />
  <circle cx="1564" cy="980" r="4" fill="rgb(255,255,255)" stroke="none" />
  <circle cx="1560" cy="980" r="4" fill="rgb(255,255,255)" stroke="none" />
  <circle cx="1556" cy="984" r="4" fill="rgb(255,255,255)" stroke="none" />
  <circle cx="1552" cy="988" r="4" fill="rgb(255,255,255)" stroke="none" />
  <circle cx="1548" cy="992" r="4" fill="rgb(255,255,255)" stroke="none" />
  <circle cx="1544" cy="992" r="4" fill="rgb(255,255,255)" stroke="none" />
  <circle cx="1540" cy="996" r="4" fill="rgb(255,255,255)" stroke="none" />
  <circle cx="1536" cy="996" r="4" fill="rgb(255,255,255)" stroke="none" />
  <circle cx="1532" cy="996" r="4" fill="rgb(255,255,255)" stroke="none" />
  <circle cx="1528" cy="1000" r="4" fill="rgb(255,255,255)" stroke="none" />
  <circle cx="1524" cy="996" r="4" fill="rgb(255,255,255)" stroke="none" />
  <circle cx="1520" cy="996" r="4" fill="rgb(255,255,255)" stroke="none" />
  <circle cx="1516" cy="996" r="4" fill="rgb(255,255,255)" stroke="none" />
  <circle cx="1512" cy="996" r="4" fill="rgb(255,255,255)" stroke="none" />
  <circle cx="1508" cy="996" r="4" fill="rgb(255,255,255)" stroke="none" />
  <circle cx="1504" cy="996" r="4" fill="rgb(255,255,255)" stroke="none" />
  <circle cx="1500" cy="1000" r="4" fill="rgb(255,255,255)" stroke="none" />
  <circle cx="1496" cy="1000" r="4" fill="rgb(255,255,255)" stroke="none" />
  <circle cx="1492" cy="1000" r="4" fill="rgb(255,255,255)" stroke="none" />
  <circle cx="1488" cy="1000" r="4" fill="rgb(255,255,255)" stroke="none" />
  <circle cx="1484" cy="1000" r="4" fill="rgb(255,255,255)" stroke="none" />
  <circle cx="1480" cy="1000" r="4" fill="rgb(255,255,255)" stroke="none" />
  <circle cx="1476" cy="1000" r="4" fill="rgb(255,255,255)" stroke="none" />
  <circle cx="1472" cy="1000" r="4" fill="rgb(255,255,255)" stroke="none" />
  <circle cx="1468" cy="1000" r="4" fill="rgb(255,255,255)" stroke="none" />
  <circle cx="1464" cy="1000" r="4" fill="rgb(255,255,255)" stroke="none" />
  <circle cx="1460" cy="1000" r="4" fill="rgb(255,255,255)" stroke="none" />
  <circle cx="1456" cy="1000" r="4" fill="rgb(255,255,255)" stroke="none" />
  <circle cx="1452" cy="1000" r="4" fill="rgb(255,255,255)" stroke="none" />
  <circle cx="1448" cy="1004" r="4" fill="rgb(255,255,255)" stroke="none" />
  <circle cx="1444" cy="1004" r="4" fill="rgb(255,255,255)" stroke="none" />
  <circle cx="1440" cy="1004" r="4" fill="rgb(255,255,255)" stroke="none" />
  <circle cx="1436" cy="1004" r="4" fill="rgb(255,255,255)" stroke="none" />
  <circle cx="1432" cy="1004" r="4" fill="rgb(255,255,255)" stroke="none" />
  <circle cx="1428" cy="1008" r="4" fill="rgb(255,255,255)" stroke="none" />
  <circle cx="1424" cy="1008" r="4" fill="rgb(255,255,255)" stroke="none" />
  <circle cx="1420" cy="1008" r="4" fill="rgb(255,255,255)" stroke="none" />
  <circle cx="1416" cy="1012" r="4" fill="rgb(255,255,255)" stroke="none" />
  <circle cx="1412" cy="1012" r="4" fill="rgb(255,255,255)" stroke="none" />
  <circle cx="1408" cy="1016" r="4" fill="rgb(255,255,255)" stroke="none" />
  <circle cx="1404" cy="1016" r="4" fill="rgb(255,255,255)" stroke="none" />
  <circle cx="1400" cy="1016" r="4" fill="rgb(255,255,255)" stroke="none" />
  <circle cx="1396" cy="1020" r="4" fill="rgb(255,255,255)" stroke="none" />
  <circle cx="1392" cy="1024" r="4" fill="rgb(255,255,255)" stroke="none" />
  <circle cx="1388" cy="1024" r="4" fill="rgb(255,255,255)" stroke="none" />
  <circle cx="1384" cy="1028" r="4" fill="rgb(255,255,255)" stroke="none" />
  <circle cx="1380" cy="1028" r="4" fill="rgb(255,255,255)" stroke="none" />
  <circle cx="1376" cy="1032" r="4" fill="rgb(255,255,255)" stroke="none" />
  <circle cx="1372" cy="1036" r="4" fill="rgb(255,255,255)" stroke="none" />
  <circle cx="1368" cy="1040" r="4" fill="rgb(255,255,255)" stroke="none" />
  <circle cx="1364" cy="1040" r="4" fill="rgb(255,255,255)" stroke="none" />
  <circle cx="1360" cy="1044" r="4" fill="rgb(255,255,255)" stroke="none" />
  <circle cx="1356" cy="1044" r="4" fill="rgb(255,255,255)" stroke="none" />
  <circle cx="1352" cy="1044" r="4" fill="rgb(255,255,255)" stroke="none" />
  <circle cx="1348" cy="1044" r="4" fill="rgb(255,255,255)" stroke="none" />
  <circle cx="1344" cy="1044" r="4" fill="rgb(255,255,255)" stroke="none" />
  <circle cx="1340" cy="1044" r="4" fill="rgb(255,255,255)" stroke="none" />
  <circle cx="1336" cy="1044" r="4" fill="rgb(255,255,255)" stroke="none" />
  <circle cx="1332" cy="1044" r="4" fill="rgb(255,255,255)" stroke="none" />
  <circle cx="1328" cy="1044" r="4" fill="rgb(255,255,255)" stroke="none" />
  <circle cx="1324" cy="1044" r="4" fill="rgb(255,255,255)" stroke="none" />
  <circle cx="1320" cy="1044" r="4" fill="rgb(255,255,255)" stroke="none" />
  <circle cx="1316" cy="1044" r="4" fill="rgb(255,255,255)" stroke="none" />
  <circle cx="1312" cy="1044" r="4" fill="rgb(255,255,255)" stroke="none" />
  <circle cx="1308" cy="1044" r="4" fill="rgb(255,255,255)" stroke="none" />
  <circle cx="1304" cy="1044" r="4" fill="rgb(255,255,255)" stroke="none" />
  <circle cx="1300" cy="1044" r="4" fill="rgb(255,255,255)" stroke="none" />
  <circle cx="1296" cy="1044" r="4" fill="rgb(255,255,255)" stroke="none" />
  <circle cx="1292" cy="1044" r="4" fill="rgb(255,255,255)" stroke="none" />
  <circle cx="1288" cy="1040" r="4" fill="rgb(255,255,255)" stroke="none" />
  <circle cx="1288" cy="1036" r="4" fill="rgb(255,255,255)" stroke="none" />
  <circle cx="1288" cy="1032" r="4" fill="rgb(255,255,255)" stroke="none" />
  <circle cx="1288" cy="1028" r="4" fill="rgb(255,255,255)" stroke="none" />
  <circle cx="1292" cy="1024" r="4" fill="rgb(255,255,255)" stroke="none" />
  <circle cx="1292" cy="1020" r="4" fill="rgb(255,255,255)" stroke="none" />
  <circle cx="1296" cy="1016" r="4" fill="rgb(255,255,255)" stroke="none" />
  <circle cx="1296" cy="1012" r="4" fill="rgb(255,255,255)" stroke="none" />
  <circle cx="1300" cy="1008" r="4" fill="rgb(255,255,255)" stroke="none" />
  <circle cx="1304" cy="1004" r="4" fill="rgb(255,255,255)" stroke="none" />
  <circle cx="1308" cy="1000" r="4" fill="rgb(255,255,255)" stroke="none" />
  <circle cx="1308" cy="996" r="4" fill="rgb(255,255,255)" stroke="none" />
  <circle cx="1312" cy="992" r="4" fill="rgb(255,255,255)" stroke="none" />
  <circle cx="1316" cy="988" r="4" fill="rgb(255,255,255)" stroke="none" />
  <circle cx="1320" cy="984" r="4" fill="rgb(255,255,255)" stroke="none" />
  <circle cx="1324" cy="980" r="4" fill="rgb(255,255,255)" stroke="none" />
  <circle cx="1328" cy="976" r="4" fill="rgb(255,255,255)" stroke="none" />
  <circle cx="1328" cy="972" r="4" fill="rgb(255,255,255)" stroke="none" />
  <circle cx="1332" cy="968" r="4" fill="rgb(255,255,255)" stroke="none" />
  <circle cx="1336" cy="964" r="4" fill="rgb(255,255,255)" stroke="none" />
  <circle cx="1340" cy="964" r="4" fill="rgb(255,255,255)" stroke="none" />
  <circle cx="1344" cy="960" r="4" fill="rgb(255,255,255)" stroke="none" />
  <circle cx="1348" cy="956" r="4" fill="rgb(255,255,255)" stroke="none" />
  <circle cx="1352" cy="952" r="4" fill="rgb(255,255,255)" stroke="none" />
  <circle cx="1356" cy="948" r="4" fill="rgb(255,255,255)" stroke="none" />
  <circle cx="1356" cy="944" r="4" fill="rgb(255,255,255)" stroke="none" />
  <circle cx="1360" cy="940" r="4" fill="rgb(255,255,255)" stroke="none" />
  <circle cx="1364" cy="936" r="4" fill="rgb(255,255,255)" stroke="none" />
  <circle cx="1368" cy="932" r="4" fill="rgb(255,255,255)" stroke="none" />
  <circle cx="1368" cy="928" r="4" fill="rgb(255,255,255)" stroke="none" />
  <circle cx="1372" cy="924" r="4" fill="rgb(255,255,255)" stroke="none" />
  <circle cx="1372" cy="920" r="4" fill="rgb(255,255,255)" stroke="none" />
  <circle cx="1376" cy="916" r="4" fill="rgb(255,255,255)" stroke="none" />
  <circle cx="1376" cy="912" r="4" fill="rgb(255,255,255)" stroke="none" />
  <circle cx="1380" cy="908" r="4" fill="rgb(255,255,255)" stroke="none" />
  <circle cx="1384" cy="904" r="4" fill="rgb(255,255,255)" stroke="none" />
  <circle cx="1388" cy="900" r="4" fill="rgb(255,255,255)" stroke="none" />
  <circle cx="1388" cy="896" r="4" fill="rgb(255,255,255)" stroke="none" />
  <circle cx="1392" cy="892" r="4" fill="rgb(255,255,255)" stroke="none" />
  <circle cx="1396" cy="888" r="4" fill="rgb(255,255,255)" stroke="none" />
  <circle cx="1400" cy="884" r="4" fill="rgb(255,255,255)" stroke="none" />
  <circle cx="1404" cy="880" r="4" fill="rgb(255,255,255)" stroke="none" />
  <circle cx="1408" cy="876" r="4" fill="rgb(255,255,255)" stroke="none" />
  <circle cx="1412" cy="872" r="4" fill="rgb(255,255,255)" stroke="none" />
  <circle cx="1412" cy="868" r="4" fill="rgb(255,255,255)" stroke="none" />
  <circle cx="1412" cy="864" r="4" fill="rgb(255,255,255)" stroke="none" />
  <circle cx="1412" cy="860" r="4" fill="rgb(255,255,255)" stroke="none" />
  <circle cx="1408" cy="856" r="4" fill="rgb(255,255,255)" stroke="none" />
  <circle cx="1408" cy="852" r="4" fill="rgb(255,255,255)" stroke="none" />
  <circle cx="1408" cy="848" r="4" fill="rgb(255,255,255)" stroke="none" />
  <circle cx="1408" cy="844" r="4" fill="rgb(255,255,255)" stroke="none" />
  <circle cx="1404" cy="840" r="4" fill="rgb(255,255,255)" stroke="none" />
  <circle cx="1404" cy="836" r="4" fill="rgb(255,255,255)" stroke="none" />
  <circle cx="1400" cy="832" r="4" fill="rgb(255,255,255)" stroke="none" />
  <circle cx="1400" cy="828" r="4" fill="rgb(255,255,255)" stroke="none" />
  <circle cx="1400" cy="824" r="4" fill="rgb(255,255,255)" stroke="none" />
  <circle cx="1396" cy="820" r="4" fill="rgb(255,255,255)" stroke="none" />
  <circle cx="1396" cy="816" r="4" fill="rgb(255,255,255)" stroke="none" />
  <circle cx="1392" cy="812" r="4" fill="rgb(255,255,255)" stroke="none" />
  <circle cx="1392" cy="808" r="4" fill="rgb(255,255,255)" stroke="none" />
  <circle cx="1388" cy="804" r="4" fill="rgb(255,255,255)" stroke="none" />
  <circle cx="1388" cy="800" r="4" fill="rgb(255,255,255)" stroke="none" />
  <circle cx="1384" cy="796" r="4" fill="rgb(255,255,255)" stroke="none" />
  <circle cx="1380" cy="792" r="4" fill="rgb(255,255,255)" stroke="none" />
  <circle cx="1376" cy="788" r="4" fill="rgb(255,255,255)" stroke="none" />
  <circle cx="1372" cy="788" r="4" fill="rgb(255,255,255)" stroke="none" />
  <circle cx="1368" cy="784" r="4" fill="rgb(255,255,255)" stroke="none" />
  <circle cx="1364" cy="784" r="4" fill="rgb(255,255,255)" stroke="none" />
  <circle cx="1360" cy="784" r="4" fill="rgb(255,255,255)" stroke="none" />
  <circle cx="1356" cy="784" r="4" fill="rgb(255,255,255)" stroke="none" />
  <circle cx="1352" cy="780" r="4" fill="rgb(255,255,255)" stroke="none" />
  <circle cx="1348" cy="780" r="4" fill="rgb(255,255,255)" stroke="none" />
  <circle cx="1344" cy="776" r="4" fill="rgb(255,255,255)" stroke="none" />
  <circle cx="1340" cy="776" r="4" fill="rgb(255,255,255)" stroke="none" />
  <circle cx="1336" cy="772" r="4" fill="rgb(255,255,255)" stroke="none" />
  <circle cx="1332" cy="772" r="4" fill="rgb(255,255,255)" stroke="none" />
  <circle cx="1328" cy="772" r="4" fill="rgb(255,255,255)" stroke="none" />
  <circle cx="1324" cy="772" r="4" fill="rgb(255,255,255)" stroke="none" />
  <circle cx="1320" cy="772" r="4" fill="rgb(255,255,255)" stroke="none" />
  <circle cx="1316" cy="772" r="4" fill="rgb(255,255,255)" stroke="none" />
  <circle cx="1312" cy="768" r="4" fill="rgb(255,255,255)" stroke="none" />
  <circle cx="1308" cy="764" r="4" fill="rgb(255,255,255)" stroke="none" />
  <circle cx="1304" cy="760" r="4" fill="rgb(255,255,255)" stroke="none" />
  <circle cx="1300" cy="756" r="4" fill="rgb(255,255,255)" stroke="none" />
  <circle cx="1300" cy="752" r="4" fill="rgb(255,255,255)" stroke="none" />
  <circle cx="1296" cy="748" r="4" fill="rgb(255,255,255)" stroke="none" />
  <circle cx="1296" cy="744" r="4" fill="rgb(255,255,255)" stroke="none" />
  <circle cx="1296" cy="740" r="4" fill="rgb(255,255,255)" stroke="none" />
  <circle cx="1296" cy="736" r="4" fill="rgb(255,255,255)" stroke="none" />
  <circle cx="1292" cy="732" r="4" fill="rgb(255,255,255)" stroke="none" />
  <circle cx="1292" cy="728" r="4" fill="rgb(255,255,255)" stroke="none" />
  <circle cx="1288" cy="724" r="4" fill="rgb(255,255,255)" stroke="none" />
  <circle cx="1284" cy="720" r="4" fill="rgb(255,255,255)" stroke="none" />
  <circle cx="1280" cy="716" r="4" fill="rgb(255,255,255)" stroke="none" />
  <circle cx="1280" cy="712" r="4" fill="rgb(255,255,255)" stroke="none" />
  <circle cx="1280" cy="708" r="4" fill="rgb(255,255,255)" stroke="none" />
  <circle cx="1280" cy="704" r="4" fill="rgb(255,255,255)" stroke="none" />
  <circle cx="1280" cy="700" r="4" fill="rgb(255,255,255)" stroke="none" />
  <circle cx="1276" cy="696" r="4" fill="rgb(255,255,255)" stroke="none" />
  <circle cx="1276" cy="692" r="4" fill="rgb(255,255,255)" stroke="none" />
  <circle cx="1276" cy="688" r="4" fill="rgb(255,255,255)" stroke="none" />
  <circle cx="1276" cy="684" r="4" fill="rgb(255,255,255)" stroke="none" />
  <circle cx="1276" cy="680" r="4" fill="rgb(255,255,255)" stroke="none" />
  <circle cx="1276" cy="676" r="4" fill="rgb(255,255,255)" stroke="none" />
  <circle cx="1272" cy="672" r="4" fill="rgb(255,255,255)" stroke="none" />
  <circle cx="1276" cy="668" r="4" fill="rgb(255,255,255)" stroke="none" />
  <circle cx="1272" cy="664" r="4" fill="rgb(255,255,255)" stroke="none" />
  <circle cx="1272" cy="660" r="4" fill="rgb(255,255,255)" stroke="none" />
  <circle cx="1268" cy="660" r="4" fill="rgb(255,255,255)" stroke="none" />
  <circle cx="1264" cy="656" r="4" fill="rgb(255,255,255)" stroke="none" />
  <circle cx="1260" cy="656" r="4" fill="rgb(255,255,255)" stroke="none" />
  <circle cx="1256" cy="652" r="4" fill="rgb(255,255,255)" stroke="none" />
  <circle cx="1252" cy="652" r="4" fill="rgb(255,255,255)" stroke="none" />
  <circle cx="1248" cy="652" r="4" fill="rgb(255,255,255)" stroke="none" />
  <circle cx="1244" cy="648" r="4" fill="rgb(255,255,255)" stroke="none" />
  <circle cx="1240" cy="644" r="4" fill="rgb(255,255,255)" stroke="none" />
  <circle cx="1236" cy="640" r="4" fill="rgb(255,255,255)" stroke="none" />
  <circle cx="1240" cy="636" r="4" fill="rgb(255,255,255)" stroke="none" />
  <circle cx="1240" cy="632" r="4" fill="rgb(255,255,255)" stroke="none" />
  <circle cx="1244" cy="628" r="4" fill="rgb(255,255,255)" stroke="none" />
  <circle cx="1244" cy="624" r="4" fill="rgb(255,255,255)" stroke="none" />
  <circle cx="1248" cy="620" r="4" fill="rgb(255,255,255)" stroke="none" />
  <circle cx="1252" cy="616" r="4" fill="rgb(255,255,255)" stroke="none" />
  <circle cx="1252" cy="612" r="4" fill="rgb(255,255,255)" stroke="none" />
  <circle cx="1256" cy="608" r="4" fill="rgb(255,255,255)" stroke="none" />
  <circle cx="1260" cy="604" r="4" fill="rgb(255,255,255)" stroke="none" />
  <circle cx="1264" cy="600" r="4" fill="rgb(255,255,255)" stroke="none" />
  <circle cx="1268" cy="596" r="4" fill="rgb(255,255,255)" stroke="none" />
  <circle cx="1268" cy="592" r="4" fill="rgb(255,255,255)" stroke="none" />
  <circle cx="1272" cy="588" r="4" fill="rgb(255,255,255)" stroke="none" />
  <circle cx="1276" cy="584" r="4" fill="rgb(255,255,255)" stroke="none" />
  <circle cx="1276" cy="580" r="4" fill="rgb(255,255,255)" stroke="none" />
  <circle cx="1276" cy="576" r="4" fill="rgb(255,255,255)" stroke="none" />
  <circle cx="1276" cy="572" r="4" fill="rgb(255,255,255)" stroke="none" />
  <circle cx="1276" cy="568" r="4" fill="rgb(255,255,255)" stroke="none" />
  <circle cx="1272" cy="568" r="4" fill="rgb(255,255,255)" stroke="none" />
  <circle cx="1268" cy="564" r="4" fill="rgb(255,255,255)" stroke="none" />
  <circle cx="1272" cy="560" r="4" fill="rgb(255,255,255)" stroke="none" />
  <circle cx="1276" cy="560" r="4" fill="rgb(255,255,255)" stroke="none" />
  <circle cx="1276" cy="556" r="4" fill="rgb(255,255,255)" stroke="none" />
  <circle cx="1272" cy="552" r="4" fill="rgb(255,255,255)" stroke="none" />
  <circle cx="1272" cy="548" r="4" fill="rgb(255,255,255)" stroke="none" />
  <circle cx="1272" cy="544" r="4" fill="rgb(255,255,255)" stroke="none" />
  <circle cx="1272" cy="540" r="4" fill="rgb(255,255,255)" stroke="none" />
  <circle cx="1272" cy="536" r="4" fill="rgb(255,255,255)" stroke="none" />
  <circle cx="1276" cy="532" r="4" fill="rgb(255,255,255)" stroke="none" />
  <circle cx="1276" cy="528" r="4" fill="rgb(255,255,255)" stroke="none" />
  <circle cx="1276" cy="524" r="4" fill="rgb(255,255,255)" stroke="none" />
  <circle cx="1272" cy="520" r="4" fill="rgb(255,255,255)" stroke="none" />
  <circle cx="1268" cy="516" r="4" fill="rgb(255,255,255)" stroke="none" />
  <circle cx="1264" cy="512" r="4" fill="rgb(255,255,255)" stroke="none" />
  <circle cx="1260" cy="508" r="4" fill="rgb(255,255,255)" stroke="none" />
  <circle cx="1260" cy="504" r="4" fill="rgb(255,255,255)" stroke="none" />
  <circle cx="1256" cy="500" r="4" fill="rgb(255,255,255)" stroke="none" />
  <circle cx="1256" cy="496" r="4" fill="rgb(255,255,255)" stroke="none" />
  <circle cx="1256" cy="492" r="4" fill="rgb(255,255,255)" stroke="none" />
  <circle cx="1256" cy="488" r="4" fill="rgb(255,255,255)" stroke="none" />
  <circle cx="1252" cy="484" r="4" fill="rgb(255,255,255)" stroke="none" />
  <circle cx="1248" cy="480" r="4" fill="rgb(255,255,255)" stroke="none" />
  <circle cx="1248" cy="476" r="4" fill="rgb(255,255,255)" stroke="none" />
  <circle cx="1244" cy="472" r="4" fill="rgb(255,255,255)" stroke="none" />
  <circle cx="1244" cy="468" r="4" fill="rgb(255,255,255)" stroke="none" />
  <circle cx="1240" cy="464" r="4" fill="rgb(255,255,255)" stroke="none" />
  <circle cx="1236" cy="460" r="4" fill="rgb(255,255,255)" stroke="none" />
  <circle cx="1236" cy="456" r="4" fill="rgb(255,255,255)" stroke="none" />
  <circle cx="1236" cy="452" r="4" fill="rgb(255,255,255)" stroke="none" />
  <circle cx="1236" cy="448" r="4" fill="rgb(255,255,255)" stroke="none" />
  <circle cx="1232" cy="444" r="4" fill="rgb(255,255,255)" stroke="none" />
  <circle cx="1232" cy="440" r="4" fill="rgb(255,255,255)" stroke="none" />
  <circle cx="1232" cy="436" r="4" fill="rgb(255,255,255)" stroke="none" />
  <circle cx="1232" cy="432" r="4" fill="rgb(255,255,255)" stroke="none" />
  <circle cx="1232" cy="428" r="4" fill="rgb(255,255,255)" stroke="none" />
  <circle cx="1228" cy="424" r="4" fill="rgb(255,255,255)" stroke="none" />
  <circle cx="1228" cy="420" r="4" fill="rgb(255,255,255)" stroke="none" />
  <circle cx="1228" cy="416" r="4" fill="rgb(255,255,255)" stroke="none" />
  <circle cx="1232" cy="412" r="4" fill="rgb(255,255,255)" stroke="none" />
  <circle cx="1236" cy="412" r="4" fill="rgb(255,255,255)" stroke="none" />
  <circle cx="1240" cy="412" r="4" fill="rgb(255,255,255)" stroke="none" />
  <circle cx="1244" cy="412" r="4" fill="rgb(255,255,255)" stroke="none" />
  <circle cx="1248" cy="412" r="4" fill="rgb(255,255,255)" stroke="none" />
  <circle cx="1252" cy="412" r="4" fill="rgb(255,255,255)" stroke="none" />
  <circle cx="1256" cy="412" r="4" fill="rgb(255,255,255)" stroke="none" />
  <circle cx="1260" cy="412" r="4" fill="rgb(255,255,255)" stroke="none" />
  <circle cx="1264" cy="412" r="4" fill="rgb(255,255,255)" stroke="none" />
  <circle cx="1268" cy="412" r="4" fill="rgb(255,255,255)" stroke="none" />
  <circle cx="1272" cy="412" r="4" fill="rgb(255,255,255)" stroke="none" />
  <circle cx="1276" cy="412" r="4" fill="rgb(255,255,255)" stroke="none" />
  <circle cx="1280" cy="412" r="4" fill="rgb(255,255,255)" stroke="none" />
  <circle cx="1284" cy="412" r="4" fill="rgb(255,255,255)" stroke="none" />
  <circle cx="1288" cy="412" r="4" fill="rgb(255,255,255)" stroke="none" />
  <circle cx="1292" cy="412" r="4" fill="rgb(255,255,255)" stroke="none" />
  <circle cx="1296" cy="412" r="4" fill="rgb(255,255,255)" stroke="none" />
  <circle cx="1300" cy="412" r="4" fill="rgb(255,255,255)" stroke="none" />
  <circle cx="1304" cy="408" r="4" fill="rgb(255,255,255)" stroke="none" />
  <circle cx="1308" cy="408" r="4" fill="rgb(255,255,255)" stroke="none" />
  <circle cx="1312" cy="408" r="4" fill="rgb(255,255,255)" stroke="none" />
  <circle cx="1316" cy="404" r="4" fill="rgb(255,255,255)" stroke="none" />
  <circle cx="1320" cy="404" r="4" fill="rgb(255,255,255)" stroke="none" />
  <circle cx="1324" cy="404" r="4" fill="rgb(255,255,255)" stroke="none" />
  <circle cx="1324" cy="400" r="4" fill="rgb(255,255,255)" stroke="none" />
  <circle cx="1320" cy="400" r="4" fill="rgb(255,255,255)" stroke="none" />
  <circle cx="1316" cy="400" r="4" fill="rgb(255,255,255)" stroke="none" />
  <circle cx="1312" cy="396" r="4" fill="rgb(255,255,255)" stroke="none" />
  <circle cx="1308" cy="392" r="4" fill="rgb(255,255,255)" stroke="none" />
  <circle cx="1304" cy="392" r="4" fill="rgb(255,255,255)" stroke="none" />
  <circle cx="1300" cy="392" r="4" fill="rgb(255,255,255)" stroke="none" />
  <circle cx="1296" cy="388" r="4" fill="rgb(255,255,255)" stroke="none" />
  <circle cx="1300" cy="384" r="4" fill="rgb(255,255,255)" stroke="none" />
  <circle cx="1304" cy="380" r="4" fill="rgb(255,255,255)" stroke="none" />
  <circle cx="1308" cy="380" r="4" fill="rgb(255,255,255)" stroke="none" />
  <circle cx="1312" cy="380" r="4" fill="rgb(255,255,255)" stroke="none" />
  <circle cx="1316" cy="376" r="4" fill="rgb(255,255,255)" stroke="none" />
  <circle cx="1320" cy="376" r="4" fill="rgb(255,255,255)" stroke="none" />
  <circle cx="1324" cy="376" r="4" fill="rgb(255,255,255)" stroke="none" />
  <circle cx="1328" cy="376" r="4" fill="rgb(255,255,255)" stroke="none" />
  <circle cx="1332" cy="376" r="4" fill="rgb(255,255,255)" stroke="none" />
  <circle cx="1336" cy="376" r="4" fill="rgb(255,255,255)" stroke="none" />
  <circle cx="1340" cy="376" r="4" fill="rgb(255,255,255)" stroke="none" />
  <circle cx="1344" cy="376" r="4" fill="rgb(255,255,255)" stroke="none" />
  <circle cx="1348" cy="376" r="4" fill="rgb(255,255,255)" stroke="none" />
  <circle cx="1352" cy="376" r="4" fill="rgb(255,255,255)" stroke="none" />
  <circle cx="1356" cy="376" r="4" fill="rgb(255,255,255)" stroke="none" />
  <circle cx="1360" cy="376" r="4" fill="rgb(255,255,255)" stroke="none" />
  <circle cx="1364" cy="380" r="4" fill="rgb(255,255,255)" stroke="none" />
  <circle cx="1364" cy="376" r="4" fill="rgb(255,255,255)" stroke="none" />
  <circle cx="1364" cy="372" r="4" fill="rgb(255,255,255)" stroke="none" />
  <circle cx="1364" cy="368" r="4" fill="rgb(255,255,255)" stroke="none" />
  <circle cx="1364" cy="364" r="4" fill="rgb(255,255,255)" stroke="none" />
  <circle cx="1360" cy="360" r="4" fill="rgb(255,255,255)" stroke="none" />
  <circle cx="1356" cy="356" r="4" fill="rgb(255,255,255)" stroke="none" />
  <circle cx="1356" cy="352" r="4" fill="rgb(255,255,255)" stroke="none" />
  <circle cx="1360" cy="348" r="4" fill="rgb(255,255,255)" stroke="none" />
  <circle cx="1364" cy="348" r="4" fill="rgb(255,255,255)" stroke="none" />
  <circle cx="1368" cy="348" r="4" fill="rgb(255,255,255)" stroke="none" />
  <circle cx="1372" cy="348" r="4" fill="rgb(255,255,255)" stroke="none" />
  <circle cx="1376" cy="348" r="4" fill="rgb(255,255,255)" stroke="none" />
  <circle cx="1380" cy="348" r="4" fill="rgb(255,255,255)" stroke="none" />
  <circle cx="1384" cy="352" r="4" fill="rgb(255,255,255)" stroke="none" />
  <circle cx="1388" cy="352" r="4" fill="rgb(255,255,255)" stroke="none" />
  <circle cx="1392" cy="352" r="4" fill="rgb(255,255,255)" stroke="none" />
  <circle cx="1396" cy="348" r="4" fill="rgb(255,255,255)" stroke="none" />
  <circle cx="1400" cy="344" r="4" fill="rgb(255,255,255)" stroke="none" />
  <circle cx="1404" cy="340" r="4" fill="rgb(255,255,255)" stroke="none" />
  <circle cx="1408" cy="344" r="4" fill="rgb(255,255,255)" stroke="none" />
  <circle cx="1408" cy="348" r="4" fill="rgb(255,255,255)" stroke="none" />
  <circle cx="1408" cy="352" r="4" fill="rgb(255,255,255)" stroke="none" />
  <circle cx="1404" cy="356" r="4" fill="rgb(255,255,255)" stroke="none" />
  <circle cx="1404" cy="360" r="4" fill="rgb(255,255,255)" stroke="none" />
  <circle cx="1400" cy="364" r="4" fill="rgb(255,255,255)" stroke="none" />
  <circle cx="1400" cy="368" r="4" fill="rgb(255,255,255)" stroke="none" />
  <circle cx="1404" cy="364" r="4" fill="rgb(255,255,255)" stroke="none" />
  <circle cx="1408" cy="364" r="4" fill="rgb(255,255,255)" stroke="none" />
  <circle cx="1412" cy="360" r="4" fill="rgb(255,255,255)" stroke="none" />
  <circle cx="1412" cy="356" r="4" fill="rgb(255,255,255)" stroke="none" />
  <circle cx="1412" cy="352" r="4" fill="rgb(255,255,255)" stroke="none" />
  <circle cx="1416" cy="348" r="4" fill="rgb(255,255,255)" stroke="none" />
  <circle cx="1416" cy="344" r="4" fill="rgb(255,255,255)" stroke="none" />
  <circle cx="1420" cy="340" r="4" fill="rgb(255,255,255)" stroke="none" />
  <circle cx="1420" cy="336" r="4" fill="rgb(255,255,255)" stroke="none" />
  <circle cx="1424" cy="332" r="4" fill="rgb(255,255,255)" stroke="none" />
  <circle cx="1424" cy="328" r="4" fill="rgb(255,255,255)" stroke="none" />
  <circle cx="1428" cy="324" r="4" fill="rgb(255,255,255)" stroke="none" />
  <circle cx="1428" cy="320" r="4" fill="rgb(255,255,255)" stroke="none" />
  <circle cx="1432" cy="316" r="4" fill="rgb(255,255,255)" stroke="none" />
  <circle cx="1436" cy="312" r="4" fill="rgb(255,255,255)" stroke="none" />
  <circle cx="1440" cy="308" r="4" fill="rgb(255,255,255)" stroke="none" />
  <circle cx="1440" cy="304" r="4" fill="rgb(255,255,255)" stroke="none" />
  <circle cx="1444" cy="300" r="4" fill="rgb(255,255,255)" stroke="none" />
  <circle cx="1444" cy="296" r="4" fill="rgb(255,255,255)" stroke="none" />
  <circle cx="1448" cy="292" r="4" fill="rgb(255,255,255)" stroke="none" />
  <circle cx="1448" cy="288" r="4" fill="rgb(255,255,255)" stroke="none" />
  <circle cx="1452" cy="284" r="4" fill="rgb(255,255,255)" stroke="none" />
  <circle cx="1456" cy="280" r="4" fill="rgb(255,255,255)" stroke="none" />
</svg>