<svg xmlns="http://www.w3.org/2000/svg" viewBox="0 0 1999 1217">
  <circle cx="1424" cy="240" r="4" fill="rgb(255,255,255)" stroke="none" />
  <circle cx="1428" cy="236" r="4" fill="rgb(255,255,255)" stroke="none" />
  <circle cx="1432" cy="236" r="4" fill="rgb(255,255,255)" stroke="none" />
  <circle cx="1436" cy="236" r="4" fill="rgb(255,255,255)" stroke="none" />
  <circle cx="1440" cy="236" r="4" fill="rgb(255,255,255)" stroke="none" />
  <circle cx="1444" cy="236" r="4" fill="rgb(255,255,255)" stroke="none" />
  <circle cx="1448" cy="236" r="4" fill="rgb(255,255,255)" stroke="none" />
  <circle cx="1452" cy="236" r="4" fill="rgb(255,255,255)" stroke="none" />
  <circle cx="1456" cy="236" r="4" fill="rgb(255,255,255)" stroke="none" />
  <circle cx="1460" cy="236" r="4" fill="rgb(255,255,255)" stroke="none" />
  <circle cx="1464" cy="236" r="4" fill="rgb(255,255,255)" stroke="none" />
  <circle cx="1468" cy="236" r="4" fill="rgb(255,255,255)" stroke="none" />
  <circle cx="1472" cy="236" r="4" fill="rgb(255,255,255)" stroke="none" />
  <circle cx="1476" cy="236" r="4" fill="rgb(255,255,255)" stroke="none" />
  <circle cx="1480" cy="236" r="4" fill="rgb(255,255,255)" stroke="none" />
  <circle cx="1484" cy="240" r="4" fill="rgb(255,255,255)" stroke="none" />
  <circle cx="1488" cy="240" r="4" fill="rgb(255,255,255)" stroke="none" />
  <circle cx="1492" cy="240" r="4" fill="rgb(255,255,255)" stroke="none" />
  <circle cx="1496" cy="244" r="4" fill="rgb(255,255,255)" stroke="none" />
  <circle cx="1500" cy="244" r="4" fill="rgb(255,255,255)" stroke="none" />
  <circle cx="1504" cy="248" r="4" fill="rgb(255,255,255)" stroke="none" />
  <circle cx="1508" cy="248" r="4" fill="rgb(255,255,255)" stroke="none" />
  <circle cx="1512" cy="252" r="4" fill="rgb(255,255,255)" stroke="none" />
  <circle cx="1516" cy="252" r="4" fill="rgb(255,255,255)" stroke="none" />
  <circle cx="1520" cy="256" r="4" fill="rgb(255,255,255)" stroke="none" />
  <circle cx="1524" cy="256" r="4" fill="rgb(255,255,255)" stroke="none" />
  <circle cx="1528" cy="260" r="4" fill="rgb(255,255,255)" stroke="none" />
  <circle cx="1532" cy="264" r="4" fill="rgb(255,255,255)" stroke="none" />
  <circle cx="1536" cy="268" r="4" fill="rgb(255,255,255)" stroke="none" />
  <circle cx="1540" cy="272" r="4" fill="rgb(255,255,255)" stroke="none" />
  <circle cx="1544" cy="272" r="4" fill="rgb(255,255,255)" stroke="none" />
  <circle cx="1548" cy="276" r="4" fill="rgb(255,255,255)" stroke="none" />
  <circle cx="1548" cy="280" r="4" fill="rgb(255,255,255)" stroke="none" />
  <circle cx="1552" cy="284" r="4" fill="rgb(255,255,255)" stroke="none" />
  <circle cx="1556" cy="288" r="4" fill="rgb(255,255,255)" stroke="none" />
  <circle cx="1560" cy="292" r="4" fill="rgb(255,255,255)" stroke="none" />
  <circle cx="1564" cy="296" r="4" fill="rgb(255,255,255)" stroke="none" />
  <circle cx="1564" cy="300" r="4" fill="rgb(255,255,255)" stroke="none" />
  <circle cx="1568" cy="304" r="4" fill="rgb(255,255,255)" stroke="none" />
  <circle cx="1572" cy="308" r="4" fill="rgb(255,255,255)" stroke="none" />
  <circle cx="1572" cy="312" r="4" fill="rgb(255,255,255)" stroke="none" />
  <circle cx="1576" cy="316" r="4" fill="rgb(255,255,255)" stroke="none" />
  <circle cx="1580" cy="320" r="4" fill="rgb(255,255,255)" stroke="none" />
  <circle cx="1584" cy="324" r="4" fill="rgb(255,255,255)" stroke="none" />
  <circle cx="1588" cy="328" r="4" fill="rgb(255,255,255)" stroke="none" />
  <circle cx="1588" cy="332" r="4" fill="rgb(255,255,255)" stroke="none" />
  <circle cx="1592" cy="336" r="4" fill="rgb(255,255,255)" stroke="none" />
  <circle cx="1596" cy="340" r="4" fill="rgb(255,255,255)" stroke="none" />
  <circle cx="1596" cy="344" r="4" fill="rgb(255,255,255)" stroke="none" />
  <circle cx="1600" cy="348" r="4" fill="rgb(255,255,255)" stroke="none" />
  <circle cx="1600" cy="352" r="4" fill="rgb(255,255,255)" stroke="none" />
  <circle cx="1604" cy="356" r="4" fill="rgb(255,255,255)" stroke="none" />
  <circle cx="1604" cy="360" r="4" fill="rgb(255,255,255)" stroke="none" />
  <circle cx="1608" cy="364" r="4" fill="rgb(255,255,255)" stroke="none" />
  <circle cx="1612" cy="368" r="4" fill="rgb(255,255,255)" stroke="none" />
  <circle cx="1612" cy="372" r="4" fill="rgb(255,255,255)" stroke="none" />
  <circle cx="1616" cy="376" r="4" fill="rgb(255,255,255)" stroke="none" />
  <circle cx="1616" cy="380" r="4" fill="rgb(255,255,255)" stroke="none" />
  <circle cx="1620" cy="384" r="4" fill="rgb(255,255,255)" stroke="none" />
  <circle cx="1620" cy="388" r="4" fill="rgb(255,255,255)" stroke="none" />
  <circle cx="1624" cy="392" r="4" fill="rgb(255,255,255)" stroke="none" />
  <circle cx="1624" cy="396" r="4" fill="rgb(255,255,255)" stroke="none" />
  <circle cx="1624" cy="400" r="4" fill="rgb(255,255,255)" stroke="none" />
  <circle cx="1628" cy="404" r="4" fill="rgb(255,255,255)" stroke="none" />
  <circle cx="1628" cy="408" r="4" fill="rgb(255,255,255)" stroke="none" />
  <circle cx="1628" cy="412" r="4" fill="rgb(255,255,255)" stroke="none" />
  <circle cx="1628" cy="416" r="4" fill="rgb(255,255,255)" stroke="none" />
  <circle cx="1628" cy="420" r="4" fill="rgb(255,255,255)" stroke="none" />
  <circle cx="1628" cy="424" r="4" fill="rgb(255,255,255)" stroke="none" />
  <circle cx="1628" cy="428" r="4" fill="rgb(255,255,255)" stroke="none" />
  <circle cx="1628" cy="432" r="4" fill="rgb(255,255,255)" stroke="none" />
  <circle cx="1628" cy="436" r="4" fill="rgb(255,255,255)" stroke="none" />
  <circle cx="1628" cy="440" r="4" fill="rgb(255,255,255)" stroke="none" />
  <circle cx="1628" cy="444" r="4" fill="rgb(255,255,255)" stroke="none" />
  <circle cx="1628" cy="448" r="4" fill="rgb(255,255,255)" stroke="none" />
  <circle cx="1628" cy="452" r="4" fill="rgb(255,255,255)" stroke="none" />
  <circle cx="1628" cy="456" r="4" fill="rgb(255,255,255)" stroke="none" />
  <circle cx="1628" cy="460" r="4" fill="rgb(255,255,255)" stroke="none" />
  <circle cx="1628" cy="464" r="4" fill="rgb(255,255,255)" stroke="none" />
  <circle cx="1628" cy="468" r="4" fill="rgb(255,255,255)" stroke="none" />
  <circle cx="1624" cy="472" r="4" fill="rgb(255,255,255)" stroke="none" />
  <circle cx="1624" cy="476" r="4" fill="rgb(255,255,255)" stroke="none" />
  <circle cx="1624" cy="480" r="4" fill="rgb(255,255,255)" stroke="none" />
  <circle cx="1624" cy="484" r="4" fill="rgb(255,255,255)" stroke="none" />
  <circle cx="1620" cy="488" r="4" fill="rgb(255,255,255)" stroke="none" />
  <circle cx="1620" cy="492" r="4" fill="rgb(255,255,255)" stroke="none" />
  <circle cx="1620" cy="496" r="4" fill="rgb(255,255,255)" stroke="none" />
  <circle cx="1616" cy="500" r="4" fill="rgb(255,255,255)" stroke="none" />
  <circle cx="1616" cy="504" r="4" fill="rgb(255,255,255)" stroke="none" />
  <circle cx="1612" cy="508" r="4" fill="rgb(255,255,255)" stroke="none" />
  <circle cx="1612" cy="512" r="4" fill="rgb(255,255,255)" stroke="none" />
  <circle cx="1608" cy="516" r="4" fill="rgb(255,255,255)" stroke="none" />
  <circle cx="1608" cy="520" r="4" fill="rgb(255,255,255)" stroke="none" />
  <circle cx="1604" cy="524" r="4" fill="rgb(255,255,255)" stroke="none" />
  <circle cx="1604" cy="528" r="4" fill="rgb(255,255,255)" stroke="none" />
  <circle cx="1600" cy="532" r="4" fill="rgb(255,255,255)" stroke="none" />
  <circle cx="1600" cy="536" r="4" fill="rgb(255,255,255)" stroke="none" />
  <circle cx="1596" cy="540" r="4" fill="rgb(255,255,255)" stroke="none" />
  <circle cx="1592" cy="544" r="4" fill="rgb(255,255,255)" stroke="none" />
  <circle cx="1588" cy="548" r="4" fill="rgb(255,255,255)" stroke="none" />
  <circle cx="1588" cy="552" r="4" fill="rgb(255,255,255)" stroke="none" />
  <circle cx="1584" cy="556" r="4" fill="rgb(255,255,255)" stroke="none" />
  <circle cx="1580" cy="560" r="4" fill="rgb(255,255,255)" stroke="none" />
  <circle cx="1580" cy="564" r="4" fill="rgb(255,255,255)" stroke="none" />
  <circle cx="1580" cy="568" r="4" fill="rgb(255,255,255)" stroke="none" />
  <circle cx="1580" cy="572" r="4" fill="rgb(255,255,255)" stroke="none" />
  <circle cx="1576" cy="576" r="4" fill="rgb(255,255,255)" stroke="none" />
  <circle cx="1572" cy="580" r="4" fill="rgb(255,255,255)" stroke="none" />
  <circle cx="1568" cy="584" r="4" fill="rgb(255,255,255)" stroke="none" />
  <circle cx="1568" cy="588" r="4" fill="rgb(255,255,255)" stroke="none" />
  <circle cx="1568" cy="592" r="4" fill="rgb(255,255,255)" stroke="none" />
  <circle cx="1568" cy="596" r="4" fill="rgb(255,255,255)" stroke="none" />
  <circle cx="1568" cy="600" r="4" fill="rgb(255,255,255)" stroke="none" />
  <circle cx="1568" cy="604" r="4" fill="rgb(255,255,255)" stroke="none" />
  <circle cx="1568" cy="608" r="4" fill="rgb(255,255,255)" stroke="none" />
  <circle cx="1572" cy="612" r="4" fill="rgb(255,255,255)" stroke="none" />
  <circle cx="1572" cy="616" r="4" fill="rgb(255,255,255)" stroke="none" />
  <circle cx="1572" cy="620" r="4" fill="rgb(255,255,255)" stroke="none" />
  <circle cx="1572" cy="624" r="4" fill="rgb(255,255,255)" stroke="none" />
  <circle cx="1576" cy="628" r="4" fill="rgb(255,255,255)" stroke="none" />
  <circle cx="1580" cy="632" r="4" fill="rgb(255,255,255)" stroke="none" />
  <circle cx="1580" cy="636" r="4" fill="rgb(255,255,255)" stroke="none" />
  <circle cx="1584" cy="640" r="4" fill="rgb(255,255,255)" stroke="none" />
  <circle cx="1584" cy="644" r="4" fill="rgb(255,255,255)" stroke="none" />
  <circle cx="1588" cy="648" r="4" fill="rgb(255,255,255)" stroke="none" />
  <circle cx="1588" cy="652" r="4" fill="rgb(255,255,255)" stroke="none" />
  <circle cx="1588" cy="656" r="4" fill="rgb(255,255,255)" stroke="none" />
  <circle cx="1588" cy="660" r="4" fill="rgb(255,255,255)" stroke="none" />
  <circle cx="1592" cy="664" r="4" fill="rgb(255,255,255)" stroke="none" />
  <circle cx="1596" cy="668" r="4" fill="rgb(255,255,255)" stroke="none" />
  <circle cx="1596" cy="672" r="4" fill="rgb(255,255,255)" stroke="none" />
  <circle cx="1596" cy="676" r="4" fill="rgb(255,255,255)" stroke="none" />
  <circle cx="1600" cy="680" r="4" fill="rgb(255,255,255)" stroke="none" />
  <circle cx="1600" cy="684" r="4" fill="rgb(255,255,255)" stroke="none" />
  <circle cx="1604" cy="688" r="4" fill="rgb(255,255,255)" stroke="none" />
  <circle cx="1604" cy="692" r="4" fill="rgb(255,255,255)" stroke="none" />
  <circle cx="1608" cy="696" r="4" fill="rgb(255,255,255)" stroke="none" />
  <circle cx="1608" cy="700" r="4" fill="rgb(255,255,255)" stroke="none" />
  <circle cx="1608" cy="704" r="4" fill="rgb(255,255,255)" stroke="none" />
  <circle cx="1612" cy="708" r="4" fill="rgb(255,255,255)" stroke="none" />
  <circle cx="1612" cy="712" r="4" fill="rgb(255,255,255)" stroke="none" />
  <circle cx="1612" cy="716" r="4" fill="rgb(255,255,255)" stroke="none" />
  <circle cx="1612" cy="720" r="4" fill="rgb(255,255,255)" stroke="none" />
  <circle cx="1612" cy="724" r="4" fill="rgb(255,255,255)" stroke="none" />
  <circle cx="1612" cy="728" r="4" fill="rgb(255,255,255)" stroke="none" />
  <circle cx="1612" cy="732" r="4" fill="rgb(255,255,255)" stroke="none" />
  <circle cx="1612" cy="736" r="4" fill="rgb(255,255,255)" stroke="none" />
  <circle cx="1612" cy="740" r="4" fill="rgb(255,255,255)" stroke="none" />
  <circle cx="1612" cy="744" r="4" fill="rgb(255,255,255)" stroke="none" />
  <circle cx="1612" cy="748" r="4" fill="rgb(255,255,255)" stroke="none" />
  <circle cx="1612" cy="752" r="4" fill="rgb(255,255,255)" stroke="none" />
  <circle cx="1612" cy="756" r="4" fill="rgb(255,255,255)" stroke="none" />
  <circle cx="1608" cy="760" r="4" fill="rgb(255,255,255)" stroke="none" />
  <circle cx="1608" cy="764" r="4" fill="rgb(255,255,255)" stroke="none" />
  <circle cx="1608" cy="768" r="4" fill="rgb(255,255,255)" stroke="none" />
  <circle cx="1608" cy="772" r="4" fill="rgb(255,255,255)" stroke="none" />
  <circle cx="1608" cy="776" r="4" fill="rgb(255,255,255)" stroke="none" />
  <circle cx="1604" cy="780" r="4" fill="rgb(255,255,255)" stroke="none" />
  <circle cx="1604" cy="784" r="4" fill="rgb(255,255,255)" stroke="none" />
  <circle cx="1600" cy="788" r="4" fill="rgb(255,255,255)" stroke="none" />
  <circle cx="1600" cy="792" r="4" fill="rgb(255,255,255)" stroke="none" />
  <circle cx="1600" cy="796" r="4" fill="rgb(255,255,255)" stroke="none" />
  <circle cx="1596" cy="800" r="4" fill="rgb(255,255,255)" stroke="none" />
  <circle cx="1596" cy="804" r="4" fill="rgb(255,255,255)" stroke="none" />
  <circle cx="1592" cy="808" r="4" fill="rgb(255,255,255)" stroke="none" />
  <circle cx="1592" cy="812" r="4" fill="rgb(255,255,255)" stroke="none" />
  <circle cx="1588" cy="816" r="4" fill="rgb(255,255,255)" stroke="none" />
  <circle cx="1588" cy="820" r="4" fill="rgb(255,255,255)" stroke="none" />
  <circle cx="1584" cy="824" r="4" fill="rgb(255,255,255)" stroke="none" />
  <circle cx="1580" cy="828" r="4" fill="rgb(255,255,255)" stroke="none" />
  <circle cx="1580" cy="832" r="4" fill="rgb(255,255,255)" stroke="none" />
  <circle cx="1576" cy="836" r="4" fill="rgb(255,255,255)" stroke="none" />
  <circle cx="1572" cy="840" r="4" fill="rgb(255,255,255)" stroke="none" />
  <circle cx="1568" cy="844" r="4" fill="rgb(255,255,255)" stroke="none" />
  <circle cx="1564" cy="844" r="4" fill="rgb(255,255,255)" stroke="none" />
  <circle cx="1560" cy="848" r="4" fill="rgb(255,255,255)" stroke="none" />
  <circle cx="1556" cy="852" r="4" fill="rgb(255,255,255)" stroke="none" />
  <circle cx="1552" cy="852" r="4" fill="rgb(255,255,255)" stroke="none" />
  <circle cx="1548" cy="856" r="4" fill="rgb(255,255,255)" stroke="none" />
  <circle cx="1544" cy="860" r="4" fill="rgb(255,255,255)" stroke="none" />
  <circle cx="1540" cy="860" r="4" fill="rgb(255,255,255)" stroke="none" />
  <circle cx="1536" cy="860" r="4" fill="rgb(255,255,255)" stroke="none" />
  <circle cx="1532" cy="864" r="4" fill="rgb(255,255,255)" stroke="none" />
  <circle cx="1528" cy="864" r="4" fill="rgb(255,255,255)" stroke="none" />
  <circle cx="1524" cy="868" r="4" fill="rgb(255,255,255)" stroke="none" />
  <circle cx="1520" cy="868" r="4" fill="rgb(255,255,255)" stroke="none" />
  <circle cx="1516" cy="868" r="4" fill="rgb(255,255,255)" stroke="none" />
  <circle cx="1512" cy="872" r="4" fill="rgb(255,255,255)" stroke="none" />
  <circle cx="1508" cy="872" r="4" fill="rgb(255,255,255)" stroke="none" />
  <circle cx="1504" cy="872" r="4" fill="rgb(255,255,255)" stroke="none" />
  <circle cx="1500" cy="872" r="4" fill="rgb(255,255,255)" stroke="none" />
  <circle cx="1496" cy="876" r="4" fill="rgb(255,255,255)" stroke="none" />
  <circle cx="1492" cy="876" r="4" fill="rgb(255,255,255)" stroke="none" />
  <circle cx="1488" cy="876" r="4" fill="rgb(255,255,255)" stroke="none" />
  <circle cx="1484" cy="876" r="4" fill="rgb(255,255,255)" stroke="none" />
  <circle cx="1480" cy="876" r="4" fill="rgb(255,255,255)" stroke="none" />
  <circle cx="1476" cy="876" r="4" fill="rgb(255,255,255)" stroke="none" />
  <circle cx="1472" cy="880" r="4" fill="rgb(255,255,255)" stroke="none" />
  <circle cx="1468" cy="880" r="4" fill="rgb(255,255,255)" stroke="none" />
  <circle cx="1464" cy="880" r="4" fill="rgb(255,255,255)" stroke="none" />
  <circle cx="1460" cy="880" r="4" fill="rgb(255,255,255)" stroke="none" />
  <circle cx="1456" cy="880" r="4" fill="rgb(255,255,255)" stroke="none" />
  <circle cx="1452" cy="880" r="4" fill="rgb(255,255,255)" stroke="none" />
  <circle cx="1448" cy="880" r="4" fill="rgb(255,255,255)" stroke="none" />
  <circle cx="1444" cy="884" r="4" fill="rgb(255,255,255)" stroke="none" />
  <circle cx="1440" cy="884" r="4" fill="rgb(255,255,255)" stroke="none" />
  <circle cx="1436" cy="884" r="4" fill="rgb(255,255,255)" stroke="none" />
  <circle cx="1432" cy="888" r="4" fill="rgb(255,255,255)" stroke="none" />
  <circle cx="1428" cy="888" r="4" fill="rgb(255,255,255)" stroke="none" />
  <circle cx="1424" cy="892" r="4" fill="rgb(255,255,255)" stroke="none" />
  <circle cx="1420" cy="896" r="4" fill="rgb(255,255,255)" stroke="none" />
  <circle cx="1416" cy="896" r="4" fill="rgb(255,255,255)" stroke="none" />
  <circle cx="1412" cy="896" r="4" fill="rgb(255,255,255)" stroke="none" />
  <circle cx="1408" cy="900" r="4" fill="rgb(255,255,255)" stroke="none" />
  <circle cx="1404" cy="900" r="4" fill="rgb(255,255,255)" stroke="none" />
  <circle cx="1400" cy="904" r="4" fill="rgb(255,255,255)" stroke="none" />
  <circle cx="1396" cy="908" r="4" fill="rgb(255,255,255)" stroke="none" />
  <circle cx="1392" cy="908" r="4" fill="rgb(255,255,255)" stroke="none" />
  <circle cx="1388" cy="912" r="4" fill="rgb(255,255,255)" stroke="none" />
  <circle cx="1384" cy="916" r="4" fill="rgb(255,255,255)" stroke="none" />
  <circle cx="1380" cy="920" r="4" fill="rgb(255,255,255)" stroke="none" />
  <circle cx="1376" cy="924" r="4" fill="rgb(255,255,255)" stroke="none" />
  <circle cx="1372" cy="928" r="4" fill="rgb(255,255,255)" stroke="none" />
  <circle cx="1368" cy="932" r="4" fill="rgb(255,255,255)" stroke="none" />
  <circle cx="1364" cy="936" r="4" fill="rgb(255,255,255)" stroke="none" />
  <circle cx="1360" cy="940" r="4" fill="rgb(255,255,255)" stroke="none" />
  <circle cx="1356" cy="944" r="4" fill="rgb(255,255,255)" stroke="none" />
  <circle cx="1352" cy="948" r="4" fill="rgb(255,255,255)" stroke="none" />
  <circle cx="1352" cy="952" r="4" fill="rgb(255,255,255)" stroke="none" />
  <circle cx="1348" cy="956" r="4" fill="rgb(255,255,255)" stroke="none" />
  <circle cx="1344" cy="956" r="4" fill="rgb(255,255,255)" stroke="none" />
  <circle cx="1340" cy="956" r="4" fill="rgb(255,255,255)" stroke="none" />
  <circle cx="1336" cy="960" r="4" fill="rgb(255,255,255)" stroke="none" />
  <circle cx="1332" cy="960" r="4" fill="rgb(255,255,255)" stroke="none" />
  <circle cx="1328" cy="960" r="4" fill="rgb(255,255,255)" stroke="none" />
  <circle cx="1324" cy="964" r="4" fill="rgb(255,255,255)" stroke="none" />
  <circle cx="1320" cy="964" r="4" fill="rgb(255,255,255)" stroke="none" />
  <circle cx="1316" cy="964" r="4" fill="rgb(255,255,255)" stroke="none" />
  <circle cx="1312" cy="964" r="4" fill="rgb(255,255,255)" stroke="none" />
  <circle cx="1308" cy="968" r="4" fill="rgb(255,255,255)" stroke="none" />
  <circle cx="1304" cy="968" r="4" fill="rgb(255,255,255)" stroke="none" />
  <circle cx="1300" cy="964" r="4" fill="rgb(255,255,255)" stroke="none" />
  <circle cx="1296" cy="960" r="4" fill="rgb(255,255,255)" stroke="none" />
  <circle cx="1292" cy="956" r="4" fill="rgb(255,255,255)" stroke="none" />
  <circle cx="1288" cy="952" r="4" fill="rgb(255,255,255)" stroke="none" />
  <circle cx="1284" cy="952" r="4" fill="rgb(255,255,255)" stroke="none" />
  <circle cx="1280" cy="948" r="4" fill="rgb(255,255,255)" stroke="none" />
  <circle cx="1276" cy="948" r="4" fill="rgb(255,255,255)" stroke="none" />
  <circle cx="1272" cy="944" r="4" fill="rgb(255,255,255)" stroke="none" />
  <circle cx="1268" cy="940" r="4" fill="rgb(255,255,255)" stroke="none" />
  <circle cx="1264" cy="936" r="4" fill="rgb(255,255,255)" stroke="none" />
  <circle cx="1260" cy="932" r="4" fill="rgb(255,255,255)" stroke="none" />
  <circle cx="1260" cy="928" r="4" fill="rgb(255,255,255)" stroke="none" />
  <circle cx="1260" cy="924" r="4" fill="rgb(255,255,255)" stroke="none" />
  <circle cx="1256" cy="920" r="4" fill="rgb(255,255,255)" stroke="none" />
  <circle cx="1256" cy="916" r="4" fill="rgb(255,255,255)" stroke="none" />
  <circle cx="1256" cy="912" r="4" fill="rgb(255,255,255)" stroke="none" />
  <circle cx="1256" cy="908" r="4" fill="rgb(255,255,255)" stroke="none" />
  <circle cx="1256" cy="904" r="4" fill="rgb(255,255,255)" stroke="none" />
  <circle cx="1256" cy="900" r="4" fill="rgb(255,255,255)" stroke="none" />
  <circle cx="1256" cy="896" r="4" fill="rgb(255,255,255)" stroke="none" />
  <circle cx="1256" cy="892" r="4" fill="rgb(255,255,255)" stroke="none" />
  <circle cx="1260" cy="888" r="4" fill="rgb(255,255,255)" stroke="none" />
  <circle cx="1260" cy="884" r="4" fill="rgb(255,255,255)" stroke="none" />
  <circle cx="1260" cy="880" r="4" fill="rgb(255,255,255)" stroke="none" />
  <circle cx="1260" cy="876" r="4" fill="rgb(255,255,255)" stroke="none" />
  <circle cx="1264" cy="872" r="4" fill="rgb(255,255,255)" stroke="none" />
  <circle cx="1264" cy="868" r="4" fill="rgb(255,255,255)" stroke="none" />
  <circle cx="1268" cy="864" r="4" fill="rgb(255,255,255)" stroke="none" />
  <circle cx="1268" cy="860" r="4" fill="rgb(255,255,255)" stroke="none" />
  <circle cx="1272" cy="856" r="4" fill="rgb(255,255,255)" stroke="none" />
  <circle cx="1276" cy="852" r="4" fill="rgb(255,255,255)" stroke="none" />
  <circle cx="1280" cy="848" r="4" fill="rgb(255,255,255)" stroke="none" />
  <circle cx="1280" cy="844" r="4" fill="rgb(255,255,255)" stroke="none" />
  <circle cx="1284" cy="840" r="4" fill="rgb(255,255,255)" stroke="none" />
  <circle cx="1288" cy="836" r="4" fill="rgb(255,255,255)" stroke="none" />
  <circle cx="1292" cy="832" r="4" fill="rgb(255,255,255)" stroke="none" />
  <circle cx="1292" cy="828" r="4" fill="rgb(255,255,255)" stroke="none" />
  <circle cx="1296" cy="824" r="4" fill="rgb(255,255,255)" stroke="none" />
  <circle cx="1300" cy="820" r="4" fill="rgb(255,255,255)" stroke="none" />
  <circle cx="1300" cy="816" r="4" fill="rgb(255,255,255)" stroke="none" />
  <circle cx="1304" cy="812" r="4" fill="rgb(255,255,255)" stroke="none" />
  <circle cx="1304" cy="808" r="4" fill="rgb(255,255,255)" stroke="none" />
  <circle cx="1308" cy="804" r="4" fill="rgb(255,255,255)" stroke="none" />
  <circle cx="1308" cy="800" r="4" fill="rgb(255,255,255)" stroke="none" />
  <circle cx="1312" cy="796" r="4" fill="rgb(255,255,255)" stroke="none" />
  <circle cx="1312" cy="792" r="4" fill="rgb(255,255,255)" stroke="none" />
  <circle cx="1312" cy="788" r="4" fill="rgb(255,255,255)" stroke="none" />
  <circle cx="1316" cy="784" r="4" fill="rgb(255,255,255)" stroke="none" />
  <circle cx="1316" cy="780" r="4" fill="rgb(255,255,255)" stroke="none" />
  <circle cx="1316" cy="776" r="4" fill="rgb(255,255,255)" stroke="none" />
  <circle cx="1316" cy="772" r="4" fill="rgb(255,255,255)" stroke="none" />
  <circle cx="1316" cy="768" r="4" fill="rgb(255,255,255)" stroke="none" />
  <circle cx="1316" cy="764" r="4" fill="rgb(255,255,255)" stroke="none" />
  <circle cx="1320" cy="760" r="4" fill="rgb(255,255,255)" stroke="none" />
  <circle cx="1320" cy="756" r="4" fill="rgb(255,255,255)" stroke="none" />
  <circle cx="1320" cy="752" r="4" fill="rgb(255,255,255)" stroke="none" />
  <circle cx="1320" cy="748" r="4" fill="rgb(255,255,255)" stroke="none" />
  <circle cx="1320" cy="744" r="4" fill="rgb(255,255,255)" stroke="none" />
  <circle cx="1324" cy="740" r="4" fill="rgb(255,255,255)" stroke="none" />
  <circle cx="1324" cy="736" r="4" fill="rgb(255,255,255)" stroke="none" />
  <circle cx="1324" cy="732" r="4" fill="rgb(255,255,255)" stroke="none" />
  <circle cx="1328" cy="728" r="4" fill="rgb(255,255,255)" stroke="none" />
  <circle cx="1328" cy="724" r="4" fill="rgb(255,255,255)" stroke="none" />
  <circle cx="1332" cy="720" r="4" fill="rgb(255,255,255)" stroke="none" />
  <circle cx="1336" cy="716" r="4" fill="rgb(255,255,255)" stroke="none" />
  <circle cx="1340" cy="712" r="4" fill="rgb(255,255,255)" stroke="none" />
  <circle cx="1344" cy="708" r="4" fill="rgb(255,255,255)" stroke="none" />
  <circle cx="1348" cy="704" r="4" fill="rgb(255,255,255)" stroke="none" />
  <circle cx="1352" cy="700" r="4" fill="rgb(255,255,255)" stroke="none" />
  <circle cx="1356" cy="696" r="4" fill="rgb(255,255,255)" stroke="none" />
  <circle cx="1356" cy="692" r="4" fill="rgb(255,255,255)" stroke="none" />
  <circle cx="1356" cy="688" r="4" fill="rgb(255,255,255)" stroke="none" />
  <circle cx="1356" cy="684" r="4" fill="rgb(255,255,255)" stroke="none" />
  <circle cx="1356" cy="680" r="4" fill="rgb(255,255,255)" stroke="none" />
  <circle cx="1352" cy="676" r="4" fill="rgb(255,255,255)" stroke="none" />
  <circle cx="1348" cy="676" r="4" fill="rgb(255,255,255)" stroke="none" />
  <circle cx="1344" cy="672" r="4" fill="rgb(255,255,255)" stroke="none" />
  <circle cx="1340" cy="672" r="4" fill="rgb(255,255,255)" stroke="none" />
  <circle cx="1336" cy="672" r="4" fill="rgb(255,255,255)" stroke="none" />
  <circle cx="1332" cy="668" r="4" fill="rgb(255,255,255)" stroke="none" />
  <circle cx="1328" cy="668" r="4" fill="rgb(255,255,255)" stroke="none" />
  <circle cx="1324" cy="668" r="4" fill="rgb(255,255,255)" stroke="none" />
  <circle cx="1320" cy="664" r="4" fill="rgb(255,255,255)" stroke="none" />
  <circle cx="1316" cy="660" r="4" fill="rgb(255,255,255)" stroke="none" />
  <circle cx="1312" cy="660" r="4" fill="rgb(255,255,255)" stroke="none" />
  <circle cx="1308" cy="656" r="4" fill="rgb(255,255,255)" stroke="none" />
  <circle cx="1304" cy="652" r="4" fill="rgb(255,255,255)" stroke="none" />
  <circle cx="1300" cy="652" r="4" fill="rgb(255,255,255)" stroke="none" />
  <circle cx="1296" cy="648" r="4" fill="rgb(255,255,255)" stroke="none" />
  <circle cx="1292" cy="648" r="4" fill="rgb(255,255,255)" stroke="none" />
  <circle cx="1288" cy="644" r="4" fill="rgb(255,255,255)" stroke="none" />
  <circle cx="1284" cy="644" r="4" fill="rgb(255,255,255)" stroke="none" />
  <circle cx="1280" cy="640" r="4" fill="rgb(255,255,255)" stroke="none" />
  <circle cx="1276" cy="640" r="4" fill="rgb(255,255,255)" stroke="none" />
  <circle cx="1272" cy="636" r="4" fill="rgb(255,255,255)" stroke="none" />
  <circle cx="1268" cy="636" r="4" fill="rgb(255,255,255)" stroke="none" />
  <circle cx="1264" cy="636" r="4" fill="rgb(255,255,255)" stroke="none" />
  <circle cx="1260" cy="636" r="4" fill="rgb(255,255,255)" stroke="none" />
  <circle cx="1256" cy="636" r="4" fill="rgb(255,255,255)" stroke="none" />
  <circle cx="1252" cy="632" r="4" fill="rgb(255,255,255)" stroke="none" />
  <circle cx="1248" cy="628" r="4" fill="rgb(255,255,255)" stroke="none" />
  <circle cx="1244" cy="624" r="4" fill="rgb(255,255,255)" stroke="none" />
  <circle cx="1244" cy="620" r="4" fill="rgb(255,255,255)" stroke="none" />
  <circle cx="1244" cy="616" r="4" fill="rgb(255,255,255)" stroke="none" />
  <circle cx="1244" cy="612" r="4" fill="rgb(255,255,255)" stroke="none" />
  <circle cx="1244" cy="608" r="4" fill="rgb(255,255,255)" stroke="none" />
  <circle cx="1244" cy="604" r="4" fill="rgb(255,255,255)" stroke="none" />
  <circle cx="1244" cy="600" r="4" fill="rgb(255,255,255)" stroke="none" />
  <circle cx="1248" cy="596" r="4" fill="rgb(255,255,255)" stroke="none" />
  <circle cx="1248" cy="592" r="4" fill="rgb(255,255,255)" stroke="none" />
  <circle cx="1248" cy="588" r="4" fill="rgb(255,255,255)" stroke="none" />
  <circle cx="1244" cy="584" r="4" fill="rgb(255,255,255)" stroke="none" />
  <circle cx="1244" cy="580" r="4" fill="rgb(255,255,255)" stroke="none" />
  <circle cx="1248" cy="576" r="4" fill="rgb(255,255,255)" stroke="none" />
  <circle cx="1248" cy="572" r="4" fill="rgb(255,255,255)" stroke="none" />
  <circle cx="1252" cy="568" r="4" fill="rgb(255,255,255)" stroke="none" />
  <circle cx="1256" cy="564" r="4" fill="rgb(255,255,255)" stroke="none" />
  <circle cx="1256" cy="560" r="4" fill="rgb(255,255,255)" stroke="none" />
  <circle cx="1256" cy="556" r="4" fill="rgb(255,255,255)" stroke="none" />
  <circle cx="1252" cy="552" r="4" fill="rgb(255,255,255)" stroke="none" />
  <circle cx="1252" cy="548" r="4" fill="rgb(255,255,255)" stroke="none" />
  <circle cx="1252" cy="544" r="4" fill="rgb(255,255,255)" stroke="none" />
  <circle cx="1252" cy="540" r="4" fill="rgb(255,255,255)" stroke="none" />
  <circle cx="1252" cy="536" r="4" fill="rgb(255,255,255)" stroke="none" />
  <circle cx="1248" cy="532" r="4" fill="rgb(255,255,255)" stroke="none" />
  <circle cx="1248" cy="528" r="4" fill="rgb(255,255,255)" stroke="none" />
  <circle cx="1244" cy="524" r="4" fill="rgb(255,255,255)" stroke="none" />
  <circle cx="1240" cy="520" r="4" fill="rgb(255,255,255)" stroke="none" />
  <circle cx="1236" cy="520" r="4" fill="rgb(255,255,255)" stroke="none" />
  <circle cx="1232" cy="520" r="4" fill="rgb(255,255,255)" stroke="none" />
  <circle cx="1228" cy="520" r="4" fill="rgb(255,255,255)" stroke="none" />
  <circle cx="1224" cy="516" r="4" fill="rgb(255,255,255)" stroke="none" />
  <circle cx="1220" cy="516" r="4" fill="rgb(255,255,255)" stroke="none" />
  <circle cx="1216" cy="512" r="4" fill="rgb(255,255,255)" stroke="none" />
  <circle cx="1216" cy="508" r="4" fill="rgb(255,255,255)" stroke="none" />
  <circle cx="1216" cy="504" r="4" fill="rgb(255,255,255)" stroke="none" />
  <circle cx="1216" cy="500" r="4" fill="rgb(255,255,255)" stroke="none" />
  <circle cx="1216" cy="496" r="4" fill="rgb(255,255,255)" stroke="none" />
  <circle cx="1220" cy="492" r="4" fill="rgb(255,255,255)" stroke="none" />
  <circle cx="1224" cy="488" r="4" fill="rgb(255,255,255)" stroke="none" />
  <circle cx="1228" cy="484" r="4" fill="rgb(255,255,255)" stroke="none" />
  <circle cx="1228" cy="480" r="4" fill="rgb(255,255,255)" stroke="none" />
  <circle cx="1232" cy="476" r="4" fill="rgb(255,255,255)" stroke="none" />
  <circle cx="1236" cy="472" r="4" fill="rgb(255,255,255)" stroke="none" />
  <circle cx="1240" cy="468" r="4" fill="rgb(255,255,255)" stroke="none" />
  <circle cx="1244" cy="464" r="4" fill="rgb(255,255,255)" stroke="none" />
  <circle cx="1248" cy="460" r="4" fill="rgb(255,255,255)" stroke="none" />
  <circle cx="1252" cy="456" r="4" fill="rgb(255,255,255)" stroke="none" />
  <circle cx="1256" cy="452" r="4" fill="rgb(255,255,255)" stroke="none" />
  <circle cx="1256" cy="448" r="4" fill="rgb(255,255,255)" stroke="none" />
  <circle cx="1260" cy="444" r="4" fill="rgb(255,255,255)" stroke="none" />
  <circle cx="1256" cy="440" r="4" fill="rgb(255,255,255)" stroke="none" />
  <circle cx="1256" cy="436" r="4" fill="rgb(255,255,255)" stroke="none" />
  <circle cx="1256" cy="432" r="4" fill="rgb(255,255,255)" stroke="none" />
  <circle cx="1260" cy="428" r="4" fill="rgb(255,255,255)" stroke="none" />
  <circle cx="1260" cy="424" r="4" fill="rgb(255,255,255)" stroke="none" />
  <circle cx="1260" cy="420" r="4" fill="rgb(255,255,255)" stroke="none" />
  <circle cx="1260" cy="416" r="4" fill="rgb(255,255,255)" stroke="none" />
  <circle cx="1264" cy="412" r="4" fill="rgb(255,255,255)" stroke="none" />
  <circle cx="1264" cy="408" r="4" fill="rgb(255,255,255)" stroke="none" />
  <circle cx="1264" cy="404" r="4" fill="rgb(255,255,255)" stroke="none" />
  <circle cx="1264" cy="400" r="4" fill="rgb(255,255,255)" stroke="none" />
  <circle cx="1264" cy="396" r="4" fill="rgb(255,255,255)" stroke="none" />
  <circle cx="1264" cy="392" r="4" fill="rgb(255,255,255)" stroke="none" />
  <circle cx="1268" cy="388" r="4" fill="rgb(255,255,255)" stroke="none" />
  <circle cx="1268" cy="384" r="4" fill="rgb(255,255,255)" stroke="none" />
  <circle cx="1268" cy="380" r="4" fill="rgb(255,255,255)" stroke="none" />
  <circle cx="1268" cy="376" r="4" fill="rgb(255,255,255)" stroke="none" />
  <circle cx="1268" cy="372" r="4" fill="rgb(255,255,255)" stroke="none" />
  <circle cx="1268" cy="368" r="4" fill="rgb(255,255,255)" stroke="none" />
  <circle cx="1268" cy="364" r="4" fill="rgb(255,255,255)" stroke="none" />
  <circle cx="1268" cy="360" r="4" fill="rgb(255,255,255)" stroke="none" />
  <circle cx="1268" cy="356" r="4" fill="rgb(255,255,255)" stroke="none" />
  <circle cx="1268" cy="352" r="4" fill="rgb(255,255,255)" stroke="none" />
  <circle cx="1268" cy="348" r="4" fill="rgb(255,255,255)" stroke="none" />
  <circle cx="1268" cy="344" r="4" fill="rgb(255,255,255)" stroke="none" />
  <circle cx="1268" cy="340" r="4" fill="rgb(255,255,255)" stroke="none" />
  <circle cx="1268" cy="336" r="4" fill="rgb(255,255,255)" stroke="none" />
  <circle cx="1268" cy="332" r="4" fill="rgb(255,255,255)" stroke="none" />
  <circle cx="1272" cy="328" r="4" fill="rgb(255,255,255)" stroke="none" />
  <circle cx="1276" cy="324" r="4" fill="rgb(255,255,255)" stroke="none" />
  <circle cx="1280" cy="320" r="4" fill="rgb(255,255,255)" stroke="none" />
  <circle cx="1284" cy="320" r="4" fill="rgb(255,255,255)" stroke="none" />
  <circle cx="1288" cy="316" r="4" fill="rgb(255,255,255)" stroke="none" />
  <circle cx="1292" cy="316" r="4" fill="rgb(255,255,255)" stroke="none" />
  <circle cx="1296" cy="312" r="4" fill="rgb(255,255,255)" stroke="none" />
  <circle cx="1300" cy="312" r="4" fill="rgb(255,255,255)" stroke="none" />
  <circle cx="1304" cy="308" r="4" fill="rgb(255,255,255)" stroke="none" />
  <circle cx="1308" cy="308" r="4" fill="rgb(255,255,255)" stroke="none" />
  <circle cx="1312" cy="308" r="4" fill="rgb(255,255,255)" stroke="none" />
  <circle cx="1316" cy="304" r="4" fill="rgb(255,255,255)" stroke="none" />
  <circle cx="1316" cy="300" r="4" fill="rgb(255,255,255)" stroke="none" />
  <circle cx="1312" cy="300" r="4" fill="rgb(255,255,255)" stroke="none" />
  <circle cx="1308" cy="300" r="4" fill="rgb(255,255,255)" stroke="none" />
  <circle cx="1304" cy="300" r="4" fill="rgb(255,255,255)" stroke="none" />
  <circle cx="1300" cy="296" r="4" fill="rgb(255,255,255)" stroke="none" />
  <circle cx="1304" cy="292" r="4" fill="rgb(255,255,255)" stroke="none" />
  <circle cx="1308" cy="288" r="4" fill="rgb(255,255,255)" stroke="none" />
  <circle cx="1312" cy="284" r="4" fill="rgb(255,255,255)" stroke="none" />
  <circle cx="1316" cy="284" r="4" fill="rgb(255,255,255)" stroke="none" />
  <circle cx="1320" cy="288" r="4" fill="rgb(255,255,255)" stroke="none" />
  <circle cx="1324" cy="288" r="4" fill="rgb(255,255,255)" stroke="none" />
  <circle cx="1328" cy="288" r="4" fill="rgb(255,255,255)" stroke="none" />
  <circle cx="1332" cy="288" r="4" fill="rgb(255,255,255)" stroke="none" />
  <circle cx="1336" cy="288" r="4" fill="rgb(255,255,255)" stroke="none" />
  <circle cx="1340" cy="288" r="4" fill="rgb(255,255,255)" stroke="none" />
  <circle cx="1340" cy="284" r="4" fill="rgb(255,255,255)" stroke="none" />
  <circle cx="1344" cy="280" r="4" fill="rgb(255,255,255)" stroke="none" />
  <circle cx="1348" cy="276" r="4" fill="rgb(255,255,255)" stroke="none" />
  <circle cx="1352" cy="276" r="4" fill="rgb(255,255,255)" stroke="none" />
  <circle cx="1356" cy="280" r="4" fill="rgb(255,255,255)" stroke="none" />
  <circle cx="1352" cy="284" r="4" fill="rgb(255,255,255)" stroke="none" />
  <circle cx="1352" cy="288" r="4" fill="rgb(255,255,255)" stroke="none" />
  <circle cx="1356" cy="288" r="4" fill="rgb(255,255,255)" stroke="none" />
  <circle cx="1360" cy="288" r="4" fill="rgb(255,255,255)" stroke="none" />
  <circle cx="1364" cy="284" r="4" fill="rgb(255,255,255)" stroke="none" />
  <circle cx="1364" cy="280" r="4" fill="rgb(255,255,255)" stroke="none" />
  <circle cx="1368" cy="276" r="4" fill="rgb(255,255,255)" stroke="none" />
  <circle cx="1368" cy="272" r="4" fill="rgb(255,255,255)" stroke="none" />
  <circle cx="1372" cy="268" r="4" fill="rgb(255,255,255)" stroke="none" />
  <circle cx="1376" cy="264" r="4" fill="rgb(255,255,255)" stroke="none" />
  <circle cx="1380" cy="260" r="4" fill="rgb(255,255,255)" stroke="none" />
  <circle cx="1384" cy="256" r="4" fill="rgb(255,255,255)" stroke="none" />
  <circle cx="1388" cy="256" r="4" fill="rgb(255,255,255)" stroke="none" />
  <circle cx="1392" cy="252" r="4" fill="rgb(255,255,255)" stroke="none" />
  <circle cx="1396" cy="252" r="4" fill="rgb(255,255,255)" stroke="none" />
  <circle cx="1400" cy="248" r="4" fill="rgb(255,255,255)" stroke="none" />
  <circle cx="1404" cy="248" r="4" fill="rgb(255,255,255)" stroke="none" />
  <circle cx="1408" cy="248" r="4" fill="rgb(255,255,255)" stroke="none" />
  <circle cx="1412" cy="244" r="4" fill="rgb(255,255,255)" stroke="none" />
  <circle cx="1416" cy="244" r="4" fill="rgb(255,255,255)" stroke="none" />
  <circle cx="1420" cy="240" r="4" fill="rgb(255,255,255)" stroke="none" />
</svg>