<svg xmlns="http://www.w3.org/2000/svg" viewBox="0 0 1999 1223">
  <circle cx="1772" cy="312" r="4" fill="rgb(255,255,255)" stroke="none" />
  <circle cx="1776" cy="308" r="4" fill="rgb(255,255,255)" stroke="none" />
  <circle cx="1780" cy="312" r="4" fill="rgb(255,255,255)" stroke="none" />
  <circle cx="1780" cy="316" r="4" fill="rgb(255,255,255)" stroke="none" />
  <circle cx="1780" cy="320" r="4" fill="rgb(255,255,255)" stroke="none" />
  <circle cx="1784" cy="324" r="4" fill="rgb(255,255,255)" stroke="none" />
  <circle cx="1784" cy="328" r="4" fill="rgb(255,255,255)" stroke="none" />
  <circle cx="1784" cy="332" r="4" fill="rgb(255,255,255)" stroke="none" />
  <circle cx="1784" cy="336" r="4" fill="rgb(255,255,255)" stroke="none" />
  <circle cx="1784" cy="340" r="4" fill="rgb(255,255,255)" stroke="none" />
  <circle cx="1784" cy="344" r="4" fill="rgb(255,255,255)" stroke="none" />
  <circle cx="1788" cy="348" r="4" fill="rgb(255,255,255)" stroke="none" />
  <circle cx="1788" cy="352" r="4" fill="rgb(255,255,255)" stroke="none" />
  <circle cx="1788" cy="356" r="4" fill="rgb(255,255,255)" stroke="none" />
  <circle cx="1788" cy="360" r="4" fill="rgb(255,255,255)" stroke="none" />
  <circle cx="1788" cy="364" r="4" fill="rgb(255,255,255)" stroke="none" />
  <circle cx="1788" cy="368" r="4" fill="rgb(255,255,255)" stroke="none" />
  <circle cx="1788" cy="372" r="4" fill="rgb(255,255,255)" stroke="none" />
  <circle cx="1788" cy="376" r="4" fill="rgb(255,255,255)" stroke="none" />
  <circle cx="1788" cy="380" r="4" fill="rgb(255,255,255)" stroke="none" />
  <circle cx="1788" cy="384" r="4" fill="rgb(255,255,255)" stroke="none" />
  <circle cx="1788" cy="388" r="4" fill="rgb(255,255,255)" stroke="none" />
  <circle cx="1788" cy="392" r="4" fill="rgb(255,255,255)" stroke="none" />
  <circle cx="1788" cy="396" r="4" fill="rgb(255,255,255)" stroke="none" />
  <circle cx="1788" cy="400" r="4" fill="rgb(255,255,255)" stroke="none" />
  <circle cx="1788" cy="404" r="4" fill="rgb(255,255,255)" stroke="none" />
  <circle cx="1788" cy="408" r="4" fill="rgb(255,255,255)" stroke="none" />
  <circle cx="1788" cy="412" r="4" fill="rgb(255,255,255)" stroke="none" />
  <circle cx="1788" cy="416" r="4" fill="rgb(255,255,255)" stroke="none" />
  <circle cx="1788" cy="420" r="4" fill="rgb(255,255,255)" stroke="none" />
  <circle cx="1788" cy="424" r="4" fill="rgb(255,255,255)" stroke="none" />
  <circle cx="1788" cy="428" r="4" fill="rgb(255,255,255)" stroke="none" />
  <circle cx="1788" cy="432" r="4" fill="rgb(255,255,255)" stroke="none" />
  <circle cx="1792" cy="436" r="4" fill="rgb(255,255,255)" stroke="none" />
  <circle cx="1792" cy="440" r="4" fill="rgb(255,255,255)" stroke="none" />
  <circle cx="1792" cy="444" r="4" fill="rgb(255,255,255)" stroke="none" />
  <circle cx="1788" cy="448" r="4" fill="rgb(255,255,255)" stroke="none" />
  <circle cx="1784" cy="448" r="4" fill="rgb(255,255,255)" stroke="none" />
  <circle cx="1780" cy="444" r="4" fill="rgb(255,255,255)" stroke="none" />
  <circle cx="1776" cy="440" r="4" fill="rgb(255,255,255)" stroke="none" />
  <circle cx="1780" cy="436" r="4" fill="rgb(255,255,255)" stroke="none" />
  <circle cx="1780" cy="432" r="4" fill="rgb(255,255,255)" stroke="none" />
  <circle cx="1776" cy="428" r="4" fill="rgb(255,255,255)" stroke="none" />
  <circle cx="1780" cy="424" r="4" fill="rgb(255,255,255)" stroke="none" />
  <circle cx="1780" cy="420" r="4" fill="rgb(255,255,255)" stroke="none" />
  <circle cx="1776" cy="424" r="4" fill="rgb(255,255,255)" stroke="none" />
  <circle cx="1772" cy="420" r="4" fill="rgb(255,255,255)" stroke="none" />
  <circle cx="1768" cy="416" r="4" fill="rgb(255,255,255)" stroke="none" />
  <circle cx="1772" cy="412" r="4" fill="rgb(255,255,255)" stroke="none" />
  <circle cx="1776" cy="412" r="4" fill="rgb(255,255,255)" stroke="none" />
  <circle cx="1780" cy="412" r="4" fill="rgb(255,255,255)" stroke="none" />
  <circle cx="1776" cy="408" r="4" fill="rgb(255,255,255)" stroke="none" />
  <circle cx="1772" cy="404" r="4" fill="rgb(255,255,255)" stroke="none" />
  <circle cx="1768" cy="400" r="4" fill="rgb(255,255,255)" stroke="none" />
  <circle cx="1764" cy="404" r="4" fill="rgb(255,255,255)" stroke="none" />
  <circle cx="1760" cy="404" r="4" fill="rgb(255,255,255)" stroke="none" />
  <circle cx="1756" cy="404" r="4" fill="rgb(255,255,255)" stroke="none" />
  <circle cx="1752" cy="404" r="4" fill="rgb(255,255,255)" stroke="none" />
  <circle cx="1748" cy="404" r="4" fill="rgb(255,255,255)" stroke="none" />
  <circle cx="1744" cy="400" r="4" fill="rgb(255,255,255)" stroke="none" />
  <circle cx="1740" cy="396" r="4" fill="rgb(255,255,255)" stroke="none" />
  <circle cx="1736" cy="396" r="4" fill="rgb(255,255,255)" stroke="none" />
  <circle cx="1732" cy="392" r="4" fill="rgb(255,255,255)" stroke="none" />
  <circle cx="1728" cy="396" r="4" fill="rgb(255,255,255)" stroke="none" />
  <circle cx="1724" cy="396" r="4" fill="rgb(255,255,255)" stroke="none" />
  <circle cx="1720" cy="400" r="4" fill="rgb(255,255,255)" stroke="none" />
  <circle cx="1716" cy="404" r="4" fill="rgb(255,255,255)" stroke="none" />
  <circle cx="1712" cy="408" r="4" fill="rgb(255,255,255)" stroke="none" />
  <circle cx="1708" cy="408" r="4" fill="rgb(255,255,255)" stroke="none" />
  <circle cx="1708" cy="412" r="4" fill="rgb(255,255,255)" stroke="none" />
  <circle cx="1704" cy="416" r="4" fill="rgb(255,255,255)" stroke="none" />
  <circle cx="1700" cy="416" r="4" fill="rgb(255,255,255)" stroke="none" />
  <circle cx="1700" cy="420" r="4" fill="rgb(255,255,255)" stroke="none" />
  <circle cx="1696" cy="424" r="4" fill="rgb(255,255,255)" stroke="none" />
  <circle cx="1700" cy="428" r="4" fill="rgb(255,255,255)" stroke="none" />
  <circle cx="1700" cy="432" r="4" fill="rgb(255,255,255)" stroke="none" />
  <circle cx="1704" cy="436" r="4" fill="rgb(255,255,255)" stroke="none" />
  <circle cx="1708" cy="436" r="4" fill="rgb(255,255,255)" stroke="none" />
  <circle cx="1712" cy="440" r="4" fill="rgb(255,255,255)" stroke="none" />
  <circle cx="1716" cy="444" r="4" fill="rgb(255,255,255)" stroke="none" />
  <circle cx="1720" cy="448" r="4" fill="rgb(255,255,255)" stroke="none" />
  <circle cx="1720" cy="452" r="4" fill="rgb(255,255,255)" stroke="none" />
  <circle cx="1724" cy="456" r="4" fill="rgb(255,255,255)" stroke="none" />
  <circle cx="1728" cy="460" r="4" fill="rgb(255,255,255)" stroke="none" />
  <circle cx="1728" cy="464" r="4" fill="rgb(255,255,255)" stroke="none" />
  <circle cx="1728" cy="468" r="4" fill="rgb(255,255,255)" stroke="none" />
  <circle cx="1732" cy="472" r="4" fill="rgb(255,255,255)" stroke="none" />
  <circle cx="1732" cy="476" r="4" fill="rgb(255,255,255)" stroke="none" />
  <circle cx="1736" cy="480" r="4" fill="rgb(255,255,255)" stroke="none" />
  <circle cx="1736" cy="484" r="4" fill="rgb(255,255,255)" stroke="none" />
  <circle cx="1736" cy="488" r="4" fill="rgb(255,255,255)" stroke="none" />
  <circle cx="1736" cy="492" r="4" fill="rgb(255,255,255)" stroke="none" />
  <circle cx="1736" cy="496" r="4" fill="rgb(255,255,255)" stroke="none" />
  <circle cx="1736" cy="500" r="4" fill="rgb(255,255,255)" stroke="none" />
  <circle cx="1736" cy="504" r="4" fill="rgb(255,255,255)" stroke="none" />
  <circle cx="1732" cy="508" r="4" fill="rgb(255,255,255)" stroke="none" />
  <circle cx="1728" cy="512" r="4" fill="rgb(255,255,255)" stroke="none" />
  <circle cx="1724" cy="512" r="4" fill="rgb(255,255,255)" stroke="none" />
  <circle cx="1720" cy="516" r="4" fill="rgb(255,255,255)" stroke="none" />
  <circle cx="1716" cy="516" r="4" fill="rgb(255,255,255)" stroke="none" />
  <circle cx="1712" cy="512" r="4" fill="rgb(255,255,255)" stroke="none" />
  <circle cx="1708" cy="512" r="4" fill="rgb(255,255,255)" stroke="none" />
  <circle cx="1704" cy="508" r="4" fill="rgb(255,255,255)" stroke="none" />
  <circle cx="1700" cy="504" r="4" fill="rgb(255,255,255)" stroke="none" />
  <circle cx="1696" cy="500" r="4" fill="rgb(255,255,255)" stroke="none" />
  <circle cx="1696" cy="496" r="4" fill="rgb(255,255,255)" stroke="none" />
  <circle cx="1692" cy="492" r="4" fill="rgb(255,255,255)" stroke="none" />
  <circle cx="1692" cy="488" r="4" fill="rgb(255,255,255)" stroke="none" />
  <circle cx="1692" cy="484" r="4" fill="rgb(255,255,255)" stroke="none" />
  <circle cx="1692" cy="480" r="4" fill="rgb(255,255,255)" stroke="none" />
  <circle cx="1688" cy="480" r="4" fill="rgb(255,255,255)" stroke="none" />
  <circle cx="1688" cy="484" r="4" fill="rgb(255,255,255)" stroke="none" />
  <circle cx="1688" cy="488" r="4" fill="rgb(255,255,255)" stroke="none" />
  <circle cx="1688" cy="492" r="4" fill="rgb(255,255,255)" stroke="none" />
  <circle cx="1688" cy="496" r="4" fill="rgb(255,255,255)" stroke="none" />
  <circle cx="1684" cy="500" r="4" fill="rgb(255,255,255)" stroke="none" />
  <circle cx="1684" cy="504" r="4" fill="rgb(255,255,255)" stroke="none" />
  <circle cx="1688" cy="508" r="4" fill="rgb(255,255,255)" stroke="none" />
  <circle cx="1684" cy="512" r="4" fill="rgb(255,255,255)" stroke="none" />
  <circle cx="1680" cy="516" r="4" fill="rgb(255,255,255)" stroke="none" />
  <circle cx="1680" cy="520" r="4" fill="rgb(255,255,255)" stroke="none" />
  <circle cx="1680" cy="524" r="4" fill="rgb(255,255,255)" stroke="none" />
  <circle cx="1680" cy="528" r="4" fill="rgb(255,255,255)" stroke="none" />
  <circle cx="1676" cy="532" r="4" fill="rgb(255,255,255)" stroke="none" />
  <circle cx="1676" cy="536" r="4" fill="rgb(255,255,255)" stroke="none" />
  <circle cx="1672" cy="540" r="4" fill="rgb(255,255,255)" stroke="none" />
  <circle cx="1672" cy="544" r="4" fill="rgb(255,255,255)" stroke="none" />
  <circle cx="1668" cy="548" r="4" fill="rgb(255,255,255)" stroke="none" />
  <circle cx="1664" cy="552" r="4" fill="rgb(255,255,255)" stroke="none" />
  <circle cx="1664" cy="556" r="4" fill="rgb(255,255,255)" stroke="none" />
  <circle cx="1660" cy="560" r="4" fill="rgb(255,255,255)" stroke="none" />
  <circle cx="1660" cy="564" r="4" fill="rgb(255,255,255)" stroke="none" />
  <circle cx="1656" cy="568" r="4" fill="rgb(255,255,255)" stroke="none" />
  <circle cx="1652" cy="572" r="4" fill="rgb(255,255,255)" stroke="none" />
  <circle cx="1652" cy="576" r="4" fill="rgb(255,255,255)" stroke="none" />
  <circle cx="1648" cy="580" r="4" fill="rgb(255,255,255)" stroke="none" />
  <circle cx="1648" cy="584" r="4" fill="rgb(255,255,255)" stroke="none" />
  <circle cx="1644" cy="588" r="4" fill="rgb(255,255,255)" stroke="none" />
  <circle cx="1640" cy="592" r="4" fill="rgb(255,255,255)" stroke="none" />
  <circle cx="1636" cy="596" r="4" fill="rgb(255,255,255)" stroke="none" />
  <circle cx="1632" cy="600" r="4" fill="rgb(255,255,255)" stroke="none" />
  <circle cx="1628" cy="604" r="4" fill="rgb(255,255,255)" stroke="none" />
  <circle cx="1624" cy="608" r="4" fill="rgb(255,255,255)" stroke="none" />
  <circle cx="1620" cy="612" r="4" fill="rgb(255,255,255)" stroke="none" />
  <circle cx="1616" cy="616" r="4" fill="rgb(255,255,255)" stroke="none" />
  <circle cx="1616" cy="620" r="4" fill="rgb(255,255,255)" stroke="none" />
  <circle cx="1612" cy="624" r="4" fill="rgb(255,255,255)" stroke="none" />
  <circle cx="1608" cy="628" r="4" fill="rgb(255,255,255)" stroke="none" />
  <circle cx="1604" cy="632" r="4" fill="rgb(255,255,255)" stroke="none" />
  <circle cx="1600" cy="636" r="4" fill="rgb(255,255,255)" stroke="none" />
  <circle cx="1596" cy="640" r="4" fill="rgb(255,255,255)" stroke="none" />
  <circle cx="1592" cy="644" r="4" fill="rgb(255,255,255)" stroke="none" />
  <circle cx="1588" cy="648" r="4" fill="rgb(255,255,255)" stroke="none" />
  <circle cx="1584" cy="652" r="4" fill="rgb(255,255,255)" stroke="none" />
  <circle cx="1580" cy="652" r="4" fill="rgb(255,255,255)" stroke="none" />
  <circle cx="1576" cy="656" r="4" fill="rgb(255,255,255)" stroke="none" />
  <circle cx="1572" cy="656" r="4" fill="rgb(255,255,255)" stroke="none" />
  <circle cx="1568" cy="660" r="4" fill="rgb(255,255,255)" stroke="none" />
  <circle cx="1564" cy="664" r="4" fill="rgb(255,255,255)" stroke="none" />
  <circle cx="1560" cy="668" r="4" fill="rgb(255,255,255)" stroke="none" />
  <circle cx="1560" cy="672" r="4" fill="rgb(255,255,255)" stroke="none" />
  <circle cx="1560" cy="676" r="4" fill="rgb(255,255,255)" stroke="none" />
  <circle cx="1556" cy="680" r="4" fill="rgb(255,255,255)" stroke="none" />
  <circle cx="1556" cy="684" r="4" fill="rgb(255,255,255)" stroke="none" />
  <circle cx="1556" cy="688" r="4" fill="rgb(255,255,255)" stroke="none" />
  <circle cx="1556" cy="692" r="4" fill="rgb(255,255,255)" stroke="none" />
  <circle cx="1556" cy="696" r="4" fill="rgb(255,255,255)" stroke="none" />
  <circle cx="1556" cy="700" r="4" fill="rgb(255,255,255)" stroke="none" />
  <circle cx="1556" cy="704" r="4" fill="rgb(255,255,255)" stroke="none" />
  <circle cx="1560" cy="708" r="4" fill="rgb(255,255,255)" stroke="none" />
  <circle cx="1560" cy="712" r="4" fill="rgb(255,255,255)" stroke="none" />
  <circle cx="1560" cy="716" r="4" fill="rgb(255,255,255)" stroke="none" />
  <circle cx="1560" cy="720" r="4" fill="rgb(255,255,255)" stroke="none" />
  <circle cx="1564" cy="724" r="4" fill="rgb(255,255,255)" stroke="none" />
  <circle cx="1564" cy="728" r="4" fill="rgb(255,255,255)" stroke="none" />
  <circle cx="1564" cy="732" r="4" fill="rgb(255,255,255)" stroke="none" />
  <circle cx="1564" cy="736" r="4" fill="rgb(255,255,255)" stroke="none" />
  <circle cx="1564" cy="740" r="4" fill="rgb(255,255,255)" stroke="none" />
  <circle cx="1564" cy="744" r="4" fill="rgb(255,255,255)" stroke="none" />
  <circle cx="1564" cy="748" r="4" fill="rgb(255,255,255)" stroke="none" />
  <circle cx="1568" cy="752" r="4" fill="rgb(255,255,255)" stroke="none" />
  <circle cx="1568" cy="756" r="4" fill="rgb(255,255,255)" stroke="none" />
  <circle cx="1568" cy="760" r="4" fill="rgb(255,255,255)" stroke="none" />
  <circle cx="1568" cy="764" r="4" fill="rgb(255,255,255)" stroke="none" />
  <circle cx="1568" cy="768" r="4" fill="rgb(255,255,255)" stroke="none" />
  <circle cx="1568" cy="772" r="4" fill="rgb(255,255,255)" stroke="none" />
  <circle cx="1572" cy="776" r="4" fill="rgb(255,255,255)" stroke="none" />
  <circle cx="1572" cy="780" r="4" fill="rgb(255,255,255)" stroke="none" />
  <circle cx="1576" cy="784" r="4" fill="rgb(255,255,255)" stroke="none" />
  <circle cx="1576" cy="788" r="4" fill="rgb(255,255,255)" stroke="none" />
  <circle cx="1576" cy="792" r="4" fill="rgb(255,255,255)" stroke="none" />
  <circle cx="1580" cy="796" r="4" fill="rgb(255,255,255)" stroke="none" />
  <circle cx="1580" cy="800" r="4" fill="rgb(255,255,255)" stroke="none" />
  <circle cx="1584" cy="804" r="4" fill="rgb(255,255,255)" stroke="none" />
  <circle cx="1584" cy="808" r="4" fill="rgb(255,255,255)" stroke="none" />
  <circle cx="1584" cy="812" r="4" fill="rgb(255,255,255)" stroke="none" />
  <circle cx="1584" cy="816" r="4" fill="rgb(255,255,255)" stroke="none" />
  <circle cx="1588" cy="820" r="4" fill="rgb(255,255,255)" stroke="none" />
  <circle cx="1588" cy="824" r="4" fill="rgb(255,255,255)" stroke="none" />
  <circle cx="1588" cy="828" r="4" fill="rgb(255,255,255)" stroke="none" />
  <circle cx="1588" cy="832" r="4" fill="rgb(255,255,255)" stroke="none" />
  <circle cx="1588" cy="836" r="4" fill="rgb(255,255,255)" stroke="none" />
  <circle cx="1588" cy="840" r="4" fill="rgb(255,255,255)" stroke="none" />
  <circle cx="1588" cy="844" r="4" fill="rgb(255,255,255)" stroke="none" />
  <circle cx="1588" cy="848" r="4" fill="rgb(255,255,255)" stroke="none" />
  <circle cx="1588" cy="852" r="4" fill="rgb(255,255,255)" stroke="none" />
  <circle cx="1584" cy="856" r="4" fill="rgb(255,255,255)" stroke="none" />
  <circle cx="1584" cy="860" r="4" fill="rgb(255,255,255)" stroke="none" />
  <circle cx="1584" cy="864" r="4" fill="rgb(255,255,255)" stroke="none" />
  <circle cx="1584" cy="868" r="4" fill="rgb(255,255,255)" stroke="none" />
  <circle cx="1584" cy="872" r="4" fill="rgb(255,255,255)" stroke="none" />
  <circle cx="1580" cy="876" r="4" fill="rgb(255,255,255)" stroke="none" />
  <circle cx="1580" cy="880" r="4" fill="rgb(255,255,255)" stroke="none" />
  <circle cx="1576" cy="884" r="4" fill="rgb(255,255,255)" stroke="none" />
  <circle cx="1576" cy="888" r="4" fill="rgb(255,255,255)" stroke="none" />
  <circle cx="1572" cy="892" r="4" fill="rgb(255,255,255)" stroke="none" />
  <circle cx="1572" cy="896" r="4" fill="rgb(255,255,255)" stroke="none" />
  <circle cx="1568" cy="900" r="4" fill="rgb(255,255,255)" stroke="none" />
  <circle cx="1564" cy="904" r="4" fill="rgb(255,255,255)" stroke="none" />
  <circle cx="1560" cy="908" r="4" fill="rgb(255,255,255)" stroke="none" />
  <circle cx="1556" cy="912" r="4" fill="rgb(255,255,255)" stroke="none" />
  <circle cx="1552" cy="916" r="4" fill="rgb(255,255,255)" stroke="none" />
  <circle cx="1548" cy="916" r="4" fill="rgb(255,255,255)" stroke="none" />
  <circle cx="1544" cy="920" r="4" fill="rgb(255,255,255)" stroke="none" />
  <circle cx="1540" cy="924" r="4" fill="rgb(255,255,255)" stroke="none" />
  <circle cx="1536" cy="924" r="4" fill="rgb(255,255,255)" stroke="none" />
  <circle cx="1532" cy="928" r="4" fill="rgb(255,255,255)" stroke="none" />
  <circle cx="1528" cy="928" r="4" fill="rgb(255,255,255)" stroke="none" />
  <circle cx="1524" cy="932" r="4" fill="rgb(255,255,255)" stroke="none" />
  <circle cx="1528" cy="936" r="4" fill="rgb(255,255,255)" stroke="none" />
  <circle cx="1528" cy="940" r="4" fill="rgb(255,255,255)" stroke="none" />
  <circle cx="1528" cy="944" r="4" fill="rgb(255,255,255)" stroke="none" />
  <circle cx="1528" cy="948" r="4" fill="rgb(255,255,255)" stroke="none" />
  <circle cx="1532" cy="952" r="4" fill="rgb(255,255,255)" stroke="none" />
  <circle cx="1528" cy="956" r="4" fill="rgb(255,255,255)" stroke="none" />
  <circle cx="1524" cy="956" r="4" fill="rgb(255,255,255)" stroke="none" />
  <circle cx="1520" cy="952" r="4" fill="rgb(255,255,255)" stroke="none" />
  <circle cx="1520" cy="948" r="4" fill="rgb(255,255,255)" stroke="none" />
  <circle cx="1520" cy="944" r="4" fill="rgb(255,255,255)" stroke="none" />
  <circle cx="1520" cy="940" r="4" fill="rgb(255,255,255)" stroke="none" />
  <circle cx="1516" cy="936" r="4" fill="rgb(255,255,255)" stroke="none" />
  <circle cx="1512" cy="936" r="4" fill="rgb(255,255,255)" stroke="none" />
  <circle cx="1508" cy="936" r="4" fill="rgb(255,255,255)" stroke="none" />
  <circle cx="1504" cy="936" r="4" fill="rgb(255,255,255)" stroke="none" />
  <circle cx="1500" cy="936" r="4" fill="rgb(255,255,255)" stroke="none" />
  <circle cx="1496" cy="940" r="4" fill="rgb(255,255,255)" stroke="none" />
  <circle cx="1492" cy="940" r="4" fill="rgb(255,255,255)" stroke="none" />
  <circle cx="1488" cy="940" r="4" fill="rgb(255,255,255)" stroke="none" />
  <circle cx="1484" cy="940" r="4" fill="rgb(255,255,255)" stroke="none" />
  <circle cx="1480" cy="940" r="4" fill="rgb(255,255,255)" stroke="none" />
  <circle cx="1476" cy="944" r="4" fill="rgb(255,255,255)" stroke="none" />
  <circle cx="1472" cy="944" r="4" fill="rgb(255,255,255)" stroke="none" />
  <circle cx="1468" cy="944" r="4" fill="rgb(255,255,255)" stroke="none" />
  <circle cx="1464" cy="944" r="4" fill="rgb(255,255,255)" stroke="none" />
  <circle cx="1460" cy="944" r="4" fill="rgb(255,255,255)" stroke="none" />
  <circle cx="1456" cy="944" r="4" fill="rgb(255,255,255)" stroke="none" />
  <circle cx="1452" cy="944" r="4" fill="rgb(255,255,255)" stroke="none" />
  <circle cx="1448" cy="944" r="4" fill="rgb(255,255,255)" stroke="none" />
  <circle cx="1444" cy="948" r="4" fill="rgb(255,255,255)" stroke="none" />
  <circle cx="1440" cy="944" r="4" fill="rgb(255,255,255)" stroke="none" />
  <circle cx="1436" cy="948" r="4" fill="rgb(255,255,255)" stroke="none" />
  <circle cx="1432" cy="948" r="4" fill="rgb(255,255,255)" stroke="none" />
  <circle cx="1428" cy="948" r="4" fill="rgb(255,255,255)" stroke="none" />
  <circle cx="1424" cy="948" r="4" fill="rgb(255,255,255)" stroke="none" />
  <circle cx="1420" cy="948" r="4" fill="rgb(255,255,255)" stroke="none" />
  <circle cx="1416" cy="948" r="4" fill="rgb(255,255,255)" stroke="none" />
  <circle cx="1412" cy="952" r="4" fill="rgb(255,255,255)" stroke="none" />
  <circle cx="1408" cy="952" r="4" fill="rgb(255,255,255)" stroke="none" />
  <circle cx="1404" cy="952" r="4" fill="rgb(255,255,255)" stroke="none" />
  <circle cx="1400" cy="952" r="4" fill="rgb(255,255,255)" stroke="none" />
  <circle cx="1396" cy="952" r="4" fill="rgb(255,255,255)" stroke="none" />
  <circle cx="1392" cy="956" r="4" fill="rgb(255,255,255)" stroke="none" />
  <circle cx="1388" cy="956" r="4" fill="rgb(255,255,255)" stroke="none" />
  <circle cx="1384" cy="956" r="4" fill="rgb(255,255,255)" stroke="none" />
  <circle cx="1380" cy="960" r="4" fill="rgb(255,255,255)" stroke="none" />
  <circle cx="1376" cy="960" r="4" fill="rgb(255,255,255)" stroke="none" />
  <circle cx="1372" cy="960" r="4" fill="rgb(255,255,255)" stroke="none" />
  <circle cx="1368" cy="964" r="4" fill="rgb(255,255,255)" stroke="none" />
  <circle cx="1364" cy="964" r="4" fill="rgb(255,255,255)" stroke="none" />
  <circle cx="1360" cy="968" r="4" fill="rgb(255,255,255)" stroke="none" />
  <circle cx="1356" cy="968" r="4" fill="rgb(255,255,255)" stroke="none" />
  <circle cx="1352" cy="972" r="4" fill="rgb(255,255,255)" stroke="none" />
  <circle cx="1348" cy="972" r="4" fill="rgb(255,255,255)" stroke="none" />
  <circle cx="1344" cy="976" r="4" fill="rgb(255,255,255)" stroke="none" />
  <circle cx="1340" cy="976" r="4" fill="rgb(255,255,255)" stroke="none" />
  <circle cx="1336" cy="980" r="4" fill="rgb(255,255,255)" stroke="none" />
  <circle cx="1332" cy="980" r="4" fill="rgb(255,255,255)" stroke="none" />
  <circle cx="1328" cy="984" r="4" fill="rgb(255,255,255)" stroke="none" />
  <circle cx="1324" cy="988" r="4" fill="rgb(255,255,255)" stroke="none" />
  <circle cx="1320" cy="988" r="4" fill="rgb(255,255,255)" stroke="none" />
  <circle cx="1316" cy="992" r="4" fill="rgb(255,255,255)" stroke="none" />
  <circle cx="1312" cy="992" r="4" fill="rgb(255,255,255)" stroke="none" />
  <circle cx="1308" cy="992" r="4" fill="rgb(255,255,255)" stroke="none" />
  <circle cx="1304" cy="996" r="4" fill="rgb(255,255,255)" stroke="none" />
  <circle cx="1300" cy="996" r="4" fill="rgb(255,255,255)" stroke="none" />
  <circle cx="1296" cy="996" r="4" fill="rgb(255,255,255)" stroke="none" />
  <circle cx="1292" cy="1000" r="4" fill="rgb(255,255,255)" stroke="none" />
  <circle cx="1288" cy="1000" r="4" fill="rgb(255,255,255)" stroke="none" />
  <circle cx="1284" cy="1000" r="4" fill="rgb(255,255,255)" stroke="none" />
  <circle cx="1280" cy="1000" r="4" fill="rgb(255,255,255)" stroke="none" />
  <circle cx="1276" cy="1000" r="4" fill="rgb(255,255,255)" stroke="none" />
  <circle cx="1272" cy="996" r="4" fill="rgb(255,255,255)" stroke="none" />
  <circle cx="1268" cy="992" r="4" fill="rgb(255,255,255)" stroke="none" />
  <circle cx="1268" cy="988" r="4" fill="rgb(255,255,255)" stroke="none" />
  <circle cx="1268" cy="984" r="4" fill="rgb(255,255,255)" stroke="none" />
  <circle cx="1264" cy="980" r="4" fill="rgb(255,255,255)" stroke="none" />
  <circle cx="1260" cy="980" r="4" fill="rgb(255,255,255)" stroke="none" />
  <circle cx="1256" cy="976" r="4" fill="rgb(255,255,255)" stroke="none" />
  <circle cx="1256" cy="972" r="4" fill="rgb(255,255,255)" stroke="none" />
  <circle cx="1252" cy="968" r="4" fill="rgb(255,255,255)" stroke="none" />
  <circle cx="1252" cy="964" r="4" fill="rgb(255,255,255)" stroke="none" />
  <circle cx="1252" cy="960" r="4" fill="rgb(255,255,255)" stroke="none" />
  <circle cx="1252" cy="956" r="4" fill="rgb(255,255,255)" stroke="none" />
  <circle cx="1252" cy="952" r="4" fill="rgb(255,255,255)" stroke="none" />
  <circle cx="1252" cy="948" r="4" fill="rgb(255,255,255)" stroke="none" />
  <circle cx="1256" cy="944" r="4" fill="rgb(255,255,255)" stroke="none" />
  <circle cx="1256" cy="940" r="4" fill="rgb(255,255,255)" stroke="none" />
  <circle cx="1256" cy="936" r="4" fill="rgb(255,255,255)" stroke="none" />
  <circle cx="1260" cy="932" r="4" fill="rgb(255,255,255)" stroke="none" />
  <circle cx="1264" cy="928" r="4" fill="rgb(255,255,255)" stroke="none" />
  <circle cx="1268" cy="924" r="4" fill="rgb(255,255,255)" stroke="none" />
  <circle cx="1272" cy="920" r="4" fill="rgb(255,255,255)" stroke="none" />
  <circle cx="1276" cy="916" r="4" fill="rgb(255,255,255)" stroke="none" />
  <circle cx="1280" cy="912" r="4" fill="rgb(255,255,255)" stroke="none" />
  <circle cx="1284" cy="912" r="4" fill="rgb(255,255,255)" stroke="none" />
  <circle cx="1288" cy="908" r="4" fill="rgb(255,255,255)" stroke="none" />
  <circle cx="1292" cy="904" r="4" fill="rgb(255,255,255)" stroke="none" />
  <circle cx="1296" cy="900" r="4" fill="rgb(255,255,255)" stroke="none" />
  <circle cx="1300" cy="900" r="4" fill="rgb(255,255,255)" stroke="none" />
  <circle cx="1304" cy="896" r="4" fill="rgb(255,255,255)" stroke="none" />
  <circle cx="1308" cy="892" r="4" fill="rgb(255,255,255)" stroke="none" />
  <circle cx="1312" cy="888" r="4" fill="rgb(255,255,255)" stroke="none" />
  <circle cx="1316" cy="884" r="4" fill="rgb(255,255,255)" stroke="none" />
  <circle cx="1320" cy="880" r="4" fill="rgb(255,255,255)" stroke="none" />
  <circle cx="1324" cy="876" r="4" fill="rgb(255,255,255)" stroke="none" />
  <circle cx="1324" cy="872" r="4" fill="rgb(255,255,255)" stroke="none" />
  <circle cx="1328" cy="868" r="4" fill="rgb(255,255,255)" stroke="none" />
  <circle cx="1332" cy="864" r="4" fill="rgb(255,255,255)" stroke="none" />
  <circle cx="1336" cy="860" r="4" fill="rgb(255,255,255)" stroke="none" />
  <circle cx="1340" cy="856" r="4" fill="rgb(255,255,255)" stroke="none" />
  <circle cx="1340" cy="852" r="4" fill="rgb(255,255,255)" stroke="none" />
  <circle cx="1344" cy="848" r="4" fill="rgb(255,255,255)" stroke="none" />
  <circle cx="1344" cy="844" r="4" fill="rgb(255,255,255)" stroke="none" />
  <circle cx="1348" cy="840" r="4" fill="rgb(255,255,255)" stroke="none" />
  <circle cx="1352" cy="836" r="4" fill="rgb(255,255,255)" stroke="none" />
  <circle cx="1356" cy="832" r="4" fill="rgb(255,255,255)" stroke="none" />
  <circle cx="1356" cy="828" r="4" fill="rgb(255,255,255)" stroke="none" />
  <circle cx="1360" cy="824" r="4" fill="rgb(255,255,255)" stroke="none" />
  <circle cx="1364" cy="820" r="4" fill="rgb(255,255,255)" stroke="none" />
  <circle cx="1368" cy="816" r="4" fill="rgb(255,255,255)" stroke="none" />
  <circle cx="1372" cy="812" r="4" fill="rgb(255,255,255)" stroke="none" />
  <circle cx="1376" cy="808" r="4" fill="rgb(255,255,255)" stroke="none" />
  <circle cx="1380" cy="804" r="4" fill="rgb(255,255,255)" stroke="none" />
  <circle cx="1380" cy="800" r="4" fill="rgb(255,255,255)" stroke="none" />
  <circle cx="1380" cy="796" r="4" fill="rgb(255,255,255)" stroke="none" />
  <circle cx="1380" cy="792" r="4" fill="rgb(255,255,255)" stroke="none" />
  <circle cx="1380" cy="788" r="4" fill="rgb(255,255,255)" stroke="none" />
  <circle cx="1380" cy="784" r="4" fill="rgb(255,255,255)" stroke="none" />
  <circle cx="1380" cy="780" r="4" fill="rgb(255,255,255)" stroke="none" />
  <circle cx="1380" cy="776" r="4" fill="rgb(255,255,255)" stroke="none" />
  <circle cx="1380" cy="772" r="4" fill="rgb(255,255,255)" stroke="none" />
  <circle cx="1380" cy="768" r="4" fill="rgb(255,255,255)" stroke="none" />
  <circle cx="1380" cy="764" r="4" fill="rgb(255,255,255)" stroke="none" />
  <circle cx="1380" cy="760" r="4" fill="rgb(255,255,255)" stroke="none" />
  <circle cx="1380" cy="756" r="4" fill="rgb(255,255,255)" stroke="none" />
  <circle cx="1380" cy="752" r="4" fill="rgb(255,255,255)" stroke="none" />
  <circle cx="1380" cy="748" r="4" fill="rgb(255,255,255)" stroke="none" />
  <circle cx="1376" cy="744" r="4" fill="rgb(255,255,255)" stroke="none" />
  <circle cx="1376" cy="740" r="4" fill="rgb(255,255,255)" stroke="none" />
  <circle cx="1376" cy="736" r="4" fill="rgb(255,255,255)" stroke="none" />
  <circle cx="1376" cy="732" r="4" fill="rgb(255,255,255)" stroke="none" />
  <circle cx="1372" cy="728" r="4" fill="rgb(255,255,255)" stroke="none" />
  <circle cx="1372" cy="724" r="4" fill="rgb(255,255,255)" stroke="none" />
  <circle cx="1372" cy="720" r="4" fill="rgb(255,255,255)" stroke="none" />
  <circle cx="1368" cy="716" r="4" fill="rgb(255,255,255)" stroke="none" />
  <circle cx="1368" cy="712" r="4" fill="rgb(255,255,255)" stroke="none" />
  <circle cx="1364" cy="708" r="4" fill="rgb(255,255,255)" stroke="none" />
  <circle cx="1360" cy="708" r="4" fill="rgb(255,255,255)" stroke="none" />
  <circle cx="1356" cy="704" r="4" fill="rgb(255,255,255)" stroke="none" />
  <circle cx="1352" cy="704" r="4" fill="rgb(255,255,255)" stroke="none" />
  <circle cx="1348" cy="704" r="4" fill="rgb(255,255,255)" stroke="none" />
  <circle cx="1344" cy="700" r="4" fill="rgb(255,255,255)" stroke="none" />
  <circle cx="1340" cy="700" r="4" fill="rgb(255,255,255)" stroke="none" />
  <circle cx="1336" cy="700" r="4" fill="rgb(255,255,255)" stroke="none" />
  <circle cx="1332" cy="700" r="4" fill="rgb(255,255,255)" stroke="none" />
  <circle cx="1328" cy="700" r="4" fill="rgb(255,255,255)" stroke="none" />
  <circle cx="1324" cy="700" r="4" fill="rgb(255,255,255)" stroke="none" />
  <circle cx="1320" cy="700" r="4" fill="rgb(255,255,255)" stroke="none" />
  <circle cx="1316" cy="700" r="4" fill="rgb(255,255,255)" stroke="none" />
  <circle cx="1312" cy="700" r="4" fill="rgb(255,255,255)" stroke="none" />
  <circle cx="1308" cy="696" r="4" fill="rgb(255,255,255)" stroke="none" />
  <circle cx="1304" cy="696" r="4" fill="rgb(255,255,255)" stroke="none" />
  <circle cx="1300" cy="692" r="4" fill="rgb(255,255,255)" stroke="none" />
  <circle cx="1300" cy="688" r="4" fill="rgb(255,255,255)" stroke="none" />
  <circle cx="1300" cy="684" r="4" fill="rgb(255,255,255)" stroke="none" />
  <circle cx="1296" cy="680" r="4" fill="rgb(255,255,255)" stroke="none" />
  <circle cx="1296" cy="676" r="4" fill="rgb(255,255,255)" stroke="none" />
  <circle cx="1296" cy="672" r="4" fill="rgb(255,255,255)" stroke="none" />
  <circle cx="1296" cy="668" r="4" fill="rgb(255,255,255)" stroke="none" />
  <circle cx="1296" cy="664" r="4" fill="rgb(255,255,255)" stroke="none" />
  <circle cx="1296" cy="660" r="4" fill="rgb(255,255,255)" stroke="none" />
  <circle cx="1296" cy="656" r="4" fill="rgb(255,255,255)" stroke="none" />
  <circle cx="1296" cy="652" r="4" fill="rgb(255,255,255)" stroke="none" />
  <circle cx="1296" cy="648" r="4" fill="rgb(255,255,255)" stroke="none" />
  <circle cx="1292" cy="644" r="4" fill="rgb(255,255,255)" stroke="none" />
  <circle cx="1288" cy="640" r="4" fill="rgb(255,255,255)" stroke="none" />
  <circle cx="1288" cy="636" r="4" fill="rgb(255,255,255)" stroke="none" />
  <circle cx="1288" cy="632" r="4" fill="rgb(255,255,255)" stroke="none" />
  <circle cx="1292" cy="628" r="4" fill="rgb(255,255,255)" stroke="none" />
  <circle cx="1292" cy="624" r="4" fill="rgb(255,255,255)" stroke="none" />
  <circle cx="1288" cy="620" r="4" fill="rgb(255,255,255)" stroke="none" />
  <circle cx="1284" cy="616" r="4" fill="rgb(255,255,255)" stroke="none" />
  <circle cx="1284" cy="612" r="4" fill="rgb(255,255,255)" stroke="none" />
  <circle cx="1284" cy="608" r="4" fill="rgb(255,255,255)" stroke="none" />
  <circle cx="1284" cy="604" r="4" fill="rgb(255,255,255)" stroke="none" />
  <circle cx="1284" cy="600" r="4" fill="rgb(255,255,255)" stroke="none" />
  <circle cx="1284" cy="596" r="4" fill="rgb(255,255,255)" stroke="none" />
  <circle cx="1284" cy="592" r="4" fill="rgb(255,255,255)" stroke="none" />
  <circle cx="1284" cy="588" r="4" fill="rgb(255,255,255)" stroke="none" />
  <circle cx="1284" cy="584" r="4" fill="rgb(255,255,255)" stroke="none" />
  <circle cx="1284" cy="580" r="4" fill="rgb(255,255,255)" stroke="none" />
  <circle cx="1280" cy="576" r="4" fill="rgb(255,255,255)" stroke="none" />
  <circle cx="1276" cy="576" r="4" fill="rgb(255,255,255)" stroke="none" />
  <circle cx="1272" cy="572" r="4" fill="rgb(255,255,255)" stroke="none" />
  <circle cx="1268" cy="572" r="4" fill="rgb(255,255,255)" stroke="none" />
  <circle cx="1264" cy="568" r="4" fill="rgb(255,255,255)" stroke="none" />
  <circle cx="1260" cy="564" r="4" fill="rgb(255,255,255)" stroke="none" />
  <circle cx="1256" cy="560" r="4" fill="rgb(255,255,255)" stroke="none" />
  <circle cx="1256" cy="556" r="4" fill="rgb(255,255,255)" stroke="none" />
  <circle cx="1256" cy="552" r="4" fill="rgb(255,255,255)" stroke="none" />
  <circle cx="1260" cy="548" r="4" fill="rgb(255,255,255)" stroke="none" />
  <circle cx="1260" cy="544" r="4" fill="rgb(255,255,255)" stroke="none" />
  <circle cx="1264" cy="540" r="4" fill="rgb(255,255,255)" stroke="none" />
  <circle cx="1268" cy="536" r="4" fill="rgb(255,255,255)" stroke="none" />
  <circle cx="1272" cy="532" r="4" fill="rgb(255,255,255)" stroke="none" />
  <circle cx="1272" cy="528" r="4" fill="rgb(255,255,255)" stroke="none" />
  <circle cx="1276" cy="524" r="4" fill="rgb(255,255,255)" stroke="none" />
  <circle cx="1280" cy="520" r="4" fill="rgb(255,255,255)" stroke="none" />
  <circle cx="1284" cy="516" r="4" fill="rgb(255,255,255)" stroke="none" />
  <circle cx="1284" cy="512" r="4" fill="rgb(255,255,255)" stroke="none" />
  <circle cx="1280" cy="508" r="4" fill="rgb(255,255,255)" stroke="none" />
  <circle cx="1284" cy="504" r="4" fill="rgb(255,255,255)" stroke="none" />
  <circle cx="1280" cy="500" r="4" fill="rgb(255,255,255)" stroke="none" />
  <circle cx="1276" cy="500" r="4" fill="rgb(255,255,255)" stroke="none" />
  <circle cx="1272" cy="496" r="4" fill="rgb(255,255,255)" stroke="none" />
  <circle cx="1272" cy="492" r="4" fill="rgb(255,255,255)" stroke="none" />
  <circle cx="1272" cy="488" r="4" fill="rgb(255,255,255)" stroke="none" />
  <circle cx="1268" cy="488" r="4" fill="rgb(255,255,255)" stroke="none" />
  <circle cx="1264" cy="484" r="4" fill="rgb(255,255,255)" stroke="none" />
  <circle cx="1264" cy="480" r="4" fill="rgb(255,255,255)" stroke="none" />
  <circle cx="1264" cy="476" r="4" fill="rgb(255,255,255)" stroke="none" />
  <circle cx="1264" cy="472" r="4" fill="rgb(255,255,255)" stroke="none" />
  <circle cx="1264" cy="468" r="4" fill="rgb(255,255,255)" stroke="none" />
  <circle cx="1264" cy="464" r="4" fill="rgb(255,255,255)" stroke="none" />
  <circle cx="1260" cy="460" r="4" fill="rgb(255,255,255)" stroke="none" />
  <circle cx="1260" cy="456" r="4" fill="rgb(255,255,255)" stroke="none" />
  <circle cx="1256" cy="452" r="4" fill="rgb(255,255,255)" stroke="none" />
  <circle cx="1256" cy="448" r="4" fill="rgb(255,255,255)" stroke="none" />
  <circle cx="1252" cy="444" r="4" fill="rgb(255,255,255)" stroke="none" />
  <circle cx="1252" cy="440" r="4" fill="rgb(255,255,255)" stroke="none" />
  <circle cx="1252" cy="436" r="4" fill="rgb(255,255,255)" stroke="none" />
  <circle cx="1252" cy="432" r="4" fill="rgb(255,255,255)" stroke="none" />
  <circle cx="1252" cy="428" r="4" fill="rgb(255,255,255)" stroke="none" />
  <circle cx="1252" cy="424" r="4" fill="rgb(255,255,255)" stroke="none" />
  <circle cx="1252" cy="420" r="4" fill="rgb(255,255,255)" stroke="none" />
  <circle cx="1256" cy="416" r="4" fill="rgb(255,255,255)" stroke="none" />
  <circle cx="1260" cy="416" r="4" fill="rgb(255,255,255)" stroke="none" />
  <circle cx="1264" cy="416" r="4" fill="rgb(255,255,255)" stroke="none" />
  <circle cx="1268" cy="416" r="4" fill="rgb(255,255,255)" stroke="none" />
  <circle cx="1272" cy="416" r="4" fill="rgb(255,255,255)" stroke="none" />
  <circle cx="1272" cy="412" r="4" fill="rgb(255,255,255)" stroke="none" />
  <circle cx="1276" cy="408" r="4" fill="rgb(255,255,255)" stroke="none" />
  <circle cx="1280" cy="408" r="4" fill="rgb(255,255,255)" stroke="none" />
  <circle cx="1284" cy="404" r="4" fill="rgb(255,255,255)" stroke="none" />
  <circle cx="1288" cy="400" r="4" fill="rgb(255,255,255)" stroke="none" />
  <circle cx="1292" cy="400" r="4" fill="rgb(255,255,255)" stroke="none" />
  <circle cx="1292" cy="396" r="4" fill="rgb(255,255,255)" stroke="none" />
  <circle cx="1296" cy="392" r="4" fill="rgb(255,255,255)" stroke="none" />
  <circle cx="1300" cy="396" r="4" fill="rgb(255,255,255)" stroke="none" />
  <circle cx="1304" cy="392" r="4" fill="rgb(255,255,255)" stroke="none" />
  <circle cx="1308" cy="392" r="4" fill="rgb(255,255,255)" stroke="none" />
  <circle cx="1312" cy="388" r="4" fill="rgb(255,255,255)" stroke="none" />
  <circle cx="1316" cy="384" r="4" fill="rgb(255,255,255)" stroke="none" />
  <circle cx="1320" cy="380" r="4" fill="rgb(255,255,255)" stroke="none" />
  <circle cx="1324" cy="376" r="4" fill="rgb(255,255,255)" stroke="none" />
  <circle cx="1328" cy="372" r="4" fill="rgb(255,255,255)" stroke="none" />
  <circle cx="1332" cy="372" r="4" fill="rgb(255,255,255)" stroke="none" />
  <circle cx="1336" cy="368" r="4" fill="rgb(255,255,255)" stroke="none" />
  <circle cx="1340" cy="368" r="4" fill="rgb(255,255,255)" stroke="none" />
  <circle cx="1344" cy="364" r="4" fill="rgb(255,255,255)" stroke="none" />
  <circle cx="1348" cy="360" r="4" fill="rgb(255,255,255)" stroke="none" />
  <circle cx="1352" cy="360" r="4" fill="rgb(255,255,255)" stroke="none" />
  <circle cx="1356" cy="356" r="4" fill="rgb(255,255,255)" stroke="none" />
  <circle cx="1360" cy="352" r="4" fill="rgb(255,255,255)" stroke="none" />
  <circle cx="1364" cy="352" r="4" fill="rgb(255,255,255)" stroke="none" />
  <circle cx="1368" cy="348" r="4" fill="rgb(255,255,255)" stroke="none" />
  <circle cx="1372" cy="344" r="4" fill="rgb(255,255,255)" stroke="none" />
  <circle cx="1376" cy="344" r="4" fill="rgb(255,255,255)" stroke="none" />
  <circle cx="1380" cy="340" r="4" fill="rgb(255,255,255)" stroke="none" />
  <circle cx="1384" cy="340" r="4" fill="rgb(255,255,255)" stroke="none" />
  <circle cx="1388" cy="340" r="4" fill="rgb(255,255,255)" stroke="none" />
  <circle cx="1392" cy="340" r="4" fill="rgb(255,255,255)" stroke="none" />
  <circle cx="1396" cy="336" r="4" fill="rgb(255,255,255)" stroke="none" />
  <circle cx="1400" cy="336" r="4" fill="rgb(255,255,255)" stroke="none" />
  <circle cx="1404" cy="336" r="4" fill="rgb(255,255,255)" stroke="none" />
  <circle cx="1408" cy="336" r="4" fill="rgb(255,255,255)" stroke="none" />
  <circle cx="1412" cy="336" r="4" fill="rgb(255,255,255)" stroke="none" />
  <circle cx="1416" cy="336" r="4" fill="rgb(255,255,255)" stroke="none" />
  <circle cx="1420" cy="332" r="4" fill="rgb(255,255,255)" stroke="none" />
  <circle cx="1424" cy="332" r="4" fill="rgb(255,255,255)" stroke="none" />
  <circle cx="1428" cy="332" r="4" fill="rgb(255,255,255)" stroke="none" />
  <circle cx="1432" cy="332" r="4" fill="rgb(255,255,255)" stroke="none" />
  <circle cx="1436" cy="332" r="4" fill="rgb(255,255,255)" stroke="none" />
  <circle cx="1440" cy="328" r="4" fill="rgb(255,255,255)" stroke="none" />
  <circle cx="1444" cy="328" r="4" fill="rgb(255,255,255)" stroke="none" />
  <circle cx="1448" cy="328" r="4" fill="rgb(255,255,255)" stroke="none" />
  <circle cx="1452" cy="328" r="4" fill="rgb(255,255,255)" stroke="none" />
  <circle cx="1456" cy="328" r="4" fill="rgb(255,255,255)" stroke="none" />
  <circle cx="1460" cy="328" r="4" fill="rgb(255,255,255)" stroke="none" />
  <circle cx="1464" cy="328" r="4" fill="rgb(255,255,255)" stroke="none" />
  <circle cx="1468" cy="332" r="4" fill="rgb(255,255,255)" stroke="none" />
  <circle cx="1472" cy="328" r="4" fill="rgb(255,255,255)" stroke="none" />
  <circle cx="1476" cy="328" r="4" fill="rgb(255,255,255)" stroke="none" />
  <circle cx="1480" cy="328" r="4" fill="rgb(255,255,255)" stroke="none" />
  <circle cx="1484" cy="328" r="4" fill="rgb(255,255,255)" stroke="none" />
  <circle cx="1488" cy="328" r="4" fill="rgb(255,255,255)" stroke="none" />
  <circle cx="1492" cy="328" r="4" fill="rgb(255,255,255)" stroke="none" />
  <circle cx="1496" cy="328" r="4" fill="rgb(255,255,255)" stroke="none" />
  <circle cx="1500" cy="328" r="4" fill="rgb(255,255,255)" stroke="none" />
  <circle cx="1504" cy="328" r="4" fill="rgb(255,255,255)" stroke="none" />
  <circle cx="1508" cy="328" r="4" fill="rgb(255,255,255)" stroke="none" />
  <circle cx="1512" cy="328" r="4" fill="rgb(255,255,255)" stroke="none" />
  <circle cx="1516" cy="332" r="4" fill="rgb(255,255,255)" stroke="none" />
  <circle cx="1520" cy="332" r="4" fill="rgb(255,255,255)" stroke="none" />
  <circle cx="1524" cy="328" r="4" fill="rgb(255,255,255)" stroke="none" />
  <circle cx="1528" cy="332" r="4" fill="rgb(255,255,255)" stroke="none" />
  <circle cx="1532" cy="332" r="4" fill="rgb(255,255,255)" stroke="none" />
  <circle cx="1536" cy="332" r="4" fill="rgb(255,255,255)" stroke="none" />
  <circle cx="1540" cy="332" r="4" fill="rgb(255,255,255)" stroke="none" />
  <circle cx="1544" cy="332" r="4" fill="rgb(255,255,255)" stroke="none" />
  <circle cx="1548" cy="332" r="4" fill="rgb(255,255,255)" stroke="none" />
  <circle cx="1552" cy="336" r="4" fill="rgb(255,255,255)" stroke="none" />
  <circle cx="1556" cy="336" r="4" fill="rgb(255,255,255)" stroke="none" />
  <circle cx="1560" cy="340" r="4" fill="rgb(255,255,255)" stroke="none" />
  <circle cx="1564" cy="340" r="4" fill="rgb(255,255,255)" stroke="none" />
  <circle cx="1568" cy="340" r="4" fill="rgb(255,255,255)" stroke="none" />
  <circle cx="1572" cy="344" r="4" fill="rgb(255,255,255)" stroke="none" />
  <circle cx="1576" cy="344" r="4" fill="rgb(255,255,255)" stroke="none" />
  <circle cx="1580" cy="348" r="4" fill="rgb(255,255,255)" stroke="none" />
  <circle cx="1584" cy="348" r="4" fill="rgb(255,255,255)" stroke="none" />
  <circle cx="1588" cy="348" r="4" fill="rgb(255,255,255)" stroke="none" />
  <circle cx="1592" cy="352" r="4" fill="rgb(255,255,255)" stroke="none" />
  <circle cx="1596" cy="356" r="4" fill="rgb(255,255,255)" stroke="none" />
  <circle cx="1600" cy="356" r="4" fill="rgb(255,255,255)" stroke="none" />
  <circle cx="1604" cy="356" r="4" fill="rgb(255,255,255)" stroke="none" />
  <circle cx="1604" cy="352" r="4" fill="rgb(255,255,255)" stroke="none" />
  <circle cx="1604" cy="348" r="4" fill="rgb(255,255,255)" stroke="none" />
  <circle cx="1604" cy="344" r="4" fill="rgb(255,255,255)" stroke="none" />
  <circle cx="1604" cy="340" r="4" fill="rgb(255,255,255)" stroke="none" />
  <circle cx="1604" cy="336" r="4" fill="rgb(255,255,255)" stroke="none" />
  <circle cx="1604" cy="332" r="4" fill="rgb(255,255,255)" stroke="none" />
  <circle cx="1604" cy="328" r="4" fill="rgb(255,255,255)" stroke="none" />
  <circle cx="1604" cy="324" r="4" fill="rgb(255,255,255)" stroke="none" />
  <circle cx="1608" cy="320" r="4" fill="rgb(255,255,255)" stroke="none" />
  <circle cx="1612" cy="316" r="4" fill="rgb(255,255,255)" stroke="none" />
  <circle cx="1616" cy="316" r="4" fill="rgb(255,255,255)" stroke="none" />
  <circle cx="1620" cy="316" r="4" fill="rgb(255,255,255)" stroke="none" />
  <circle cx="1624" cy="316" r="4" fill="rgb(255,255,255)" stroke="none" />
  <circle cx="1628" cy="316" r="4" fill="rgb(255,255,255)" stroke="none" />
  <circle cx="1632" cy="316" r="4" fill="rgb(255,255,255)" stroke="none" />
  <circle cx="1636" cy="320" r="4" fill="rgb(255,255,255)" stroke="none" />
  <circle cx="1640" cy="324" r="4" fill="rgb(255,255,255)" stroke="none" />
  <circle cx="1644" cy="328" r="4" fill="rgb(255,255,255)" stroke="none" />
  <circle cx="1648" cy="332" r="4" fill="rgb(255,255,255)" stroke="none" />
  <circle cx="1652" cy="336" r="4" fill="rgb(255,255,255)" stroke="none" />
  <circle cx="1656" cy="340" r="4" fill="rgb(255,255,255)" stroke="none" />
  <circle cx="1656" cy="344" r="4" fill="rgb(255,255,255)" stroke="none" />
  <circle cx="1656" cy="348" r="4" fill="rgb(255,255,255)" stroke="none" />
  <circle cx="1660" cy="352" r="4" fill="rgb(255,255,255)" stroke="none" />
  <circle cx="1664" cy="348" r="4" fill="rgb(255,255,255)" stroke="none" />
  <circle cx="1668" cy="344" r="4" fill="rgb(255,255,255)" stroke="none" />
  <circle cx="1672" cy="340" r="4" fill="rgb(255,255,255)" stroke="none" />
  <circle cx="1676" cy="336" r="4" fill="rgb(255,255,255)" stroke="none" />
  <circle cx="1680" cy="336" r="4" fill="rgb(255,255,255)" stroke="none" />
  <circle cx="1684" cy="332" r="4" fill="rgb(255,255,255)" stroke="none" />
  <circle cx="1688" cy="332" r="4" fill="rgb(255,255,255)" stroke="none" />
  <circle cx="1692" cy="332" r="4" fill="rgb(255,255,255)" stroke="none" />
  <circle cx="1696" cy="328" r="4" fill="rgb(255,255,255)" stroke="none" />
  <circle cx="1700" cy="328" r="4" fill="rgb(255,255,255)" stroke="none" />
  <circle cx="1704" cy="332" r="4" fill="rgb(255,255,255)" stroke="none" />
  <circle cx="1708" cy="332" r="4" fill="rgb(255,255,255)" stroke="none" />
  <circle cx="1712" cy="332" r="4" fill="rgb(255,255,255)" stroke="none" />
  <circle cx="1716" cy="336" r="4" fill="rgb(255,255,255)" stroke="none" />
  <circle cx="1720" cy="340" r="4" fill="rgb(255,255,255)" stroke="none" />
  <circle cx="1724" cy="344" r="4" fill="rgb(255,255,255)" stroke="none" />
  <circle cx="1728" cy="348" r="4" fill="rgb(255,255,255)" stroke="none" />
  <circle cx="1732" cy="348" r="4" fill="rgb(255,255,255)" stroke="none" />
  <circle cx="1736" cy="352" r="4" fill="rgb(255,255,255)" stroke="none" />
  <circle cx="1736" cy="356" r="4" fill="rgb(255,255,255)" stroke="none" />
  <circle cx="1740" cy="360" r="4" fill="rgb(255,255,255)" stroke="none" />
  <circle cx="1740" cy="364" r="4" fill="rgb(255,255,255)" stroke="none" />
  <circle cx="1740" cy="368" r="4" fill="rgb(255,255,255)" stroke="none" />
  <circle cx="1744" cy="372" r="4" fill="rgb(255,255,255)" stroke="none" />
  <circle cx="1744" cy="376" r="4" fill="rgb(255,255,255)" stroke="none" />
  <circle cx="1748" cy="380" r="4" fill="rgb(255,255,255)" stroke="none" />
  <circle cx="1752" cy="384" r="4" fill="rgb(255,255,255)" stroke="none" />
  <circle cx="1756" cy="384" r="4" fill="rgb(255,255,255)" stroke="none" />
  <circle cx="1760" cy="384" r="4" fill="rgb(255,255,255)" stroke="none" />
  <circle cx="1764" cy="384" r="4" fill="rgb(255,255,255)" stroke="none" />
  <circle cx="1768" cy="384" r="4" fill="rgb(255,255,255)" stroke="none" />
  <circle cx="1772" cy="380" r="4" fill="rgb(255,255,255)" stroke="none" />
  <circle cx="1772" cy="376" r="4" fill="rgb(255,255,255)" stroke="none" />
  <circle cx="1772" cy="372" r="4" fill="rgb(255,255,255)" stroke="none" />
  <circle cx="1772" cy="368" r="4" fill="rgb(255,255,255)" stroke="none" />
  <circle cx="1772" cy="364" r="4" fill="rgb(255,255,255)" stroke="none" />
  <circle cx="1772" cy="360" r="4" fill="rgb(255,255,255)" stroke="none" />
  <circle cx="1776" cy="356" r="4" fill="rgb(255,255,255)" stroke="none" />
  <circle cx="1776" cy="352" r="4" fill="rgb(255,255,255)" stroke="none" />
  <circle cx="1772" cy="348" r="4" fill="rgb(255,255,255)" stroke="none" />
  <circle cx="1772" cy="344" r="4" fill="rgb(255,255,255)" stroke="none" />
  <circle cx="1772" cy="340" r="4" fill="rgb(255,255,255)" stroke="none" />
  <circle cx="1772" cy="336" r="4" fill="rgb(255,255,255)" stroke="none" />
  <circle cx="1772" cy="332" r="4" fill="rgb(255,255,255)" stroke="none" />
  <circle cx="1772" cy="328" r="4" fill="rgb(255,255,255)" stroke="none" />
  <circle cx="1772" cy="324" r="4" fill="rgb(255,255,255)" stroke="none" />
  <circle cx="1772" cy="320" r="4" fill="rgb(255,255,255)" stroke="none" />
  <circle cx="1772" cy="316" r="4" fill="rgb(255,255,255)" stroke="none" />
</svg>