<svg xmlns="http://www.w3.org/2000/svg" viewBox="0 0 1368 2000">
  <circle cx="616" cy="368" r="4" fill="rgb(255,255,255)" stroke="none" />
  <circle cx="620" cy="364" r="4" fill="rgb(255,255,255)" stroke="none" />
  <circle cx="624" cy="364" r="4" fill="rgb(255,255,255)" stroke="none" />
  <circle cx="628" cy="364" r="4" fill="rgb(255,255,255)" stroke="none" />
  <circle cx="632" cy="364" r="4" fill="rgb(255,255,255)" stroke="none" />
  <circle cx="636" cy="364" r="4" fill="rgb(255,255,255)" stroke="none" />
  <circle cx="640" cy="364" r="4" fill="rgb(255,255,255)" stroke="none" />
  <circle cx="644" cy="364" r="4" fill="rgb(255,255,255)" stroke="none" />
  <circle cx="648" cy="364" r="4" fill="rgb(255,255,255)" stroke="none" />
  <circle cx="652" cy="364" r="4" fill="rgb(255,255,255)" stroke="none" />
  <circle cx="656" cy="368" r="4" fill="rgb(255,255,255)" stroke="none" />
  <circle cx="660" cy="368" r="4" fill="rgb(255,255,255)" stroke="none" />
  <circle cx="664" cy="368" r="4" fill="rgb(255,255,255)" stroke="none" />
  <circle cx="668" cy="368" r="4" fill="rgb(255,255,255)" stroke="none" />
  <circle cx="672" cy="368" r="4" fill="rgb(255,255,255)" stroke="none" />
  <circle cx="676" cy="368" r="4" fill="rgb(255,255,255)" stroke="none" />
  <circle cx="680" cy="368" r="4" fill="rgb(255,255,255)" stroke="none" />
  <circle cx="684" cy="372" r="4" fill="rgb(255,255,255)" stroke="none" />
  <circle cx="688" cy="372" r="4" fill="rgb(255,255,255)" stroke="none" />
  <circle cx="692" cy="372" r="4" fill="rgb(255,255,255)" stroke="none" />
  <circle cx="696" cy="372" r="4" fill="rgb(255,255,255)" stroke="none" />
  <circle cx="700" cy="372" r="4" fill="rgb(255,255,255)" stroke="none" />
  <circle cx="704" cy="372" r="4" fill="rgb(255,255,255)" stroke="none" />
  <circle cx="708" cy="376" r="4" fill="rgb(255,255,255)" stroke="none" />
  <circle cx="712" cy="376" r="4" fill="rgb(255,255,255)" stroke="none" />
  <circle cx="716" cy="376" r="4" fill="rgb(255,255,255)" stroke="none" />
  <circle cx="720" cy="380" r="4" fill="rgb(255,255,255)" stroke="none" />
  <circle cx="724" cy="380" r="4" fill="rgb(255,255,255)" stroke="none" />
  <circle cx="728" cy="380" r="4" fill="rgb(255,255,255)" stroke="none" />
  <circle cx="732" cy="380" r="4" fill="rgb(255,255,255)" stroke="none" />
  <circle cx="736" cy="384" r="4" fill="rgb(255,255,255)" stroke="none" />
  <circle cx="740" cy="388" r="4" fill="rgb(255,255,255)" stroke="none" />
  <circle cx="744" cy="388" r="4" fill="rgb(255,255,255)" stroke="none" />
  <circle cx="748" cy="392" r="4" fill="rgb(255,255,255)" stroke="none" />
  <circle cx="752" cy="392" r="4" fill="rgb(255,255,255)" stroke="none" />
  <circle cx="756" cy="396" r="4" fill="rgb(255,255,255)" stroke="none" />
  <circle cx="760" cy="396" r="4" fill="rgb(255,255,255)" stroke="none" />
  <circle cx="764" cy="400" r="4" fill="rgb(255,255,255)" stroke="none" />
  <circle cx="768" cy="400" r="4" fill="rgb(255,255,255)" stroke="none" />
  <circle cx="772" cy="404" r="4" fill="rgb(255,255,255)" stroke="none" />
  <circle cx="776" cy="404" r="4" fill="rgb(255,255,255)" stroke="none" />
  <circle cx="780" cy="404" r="4" fill="rgb(255,255,255)" stroke="none" />
  <circle cx="784" cy="408" r="4" fill="rgb(255,255,255)" stroke="none" />
  <circle cx="788" cy="408" r="4" fill="rgb(255,255,255)" stroke="none" />
  <circle cx="792" cy="412" r="4" fill="rgb(255,255,255)" stroke="none" />
  <circle cx="796" cy="412" r="4" fill="rgb(255,255,255)" stroke="none" />
  <circle cx="800" cy="416" r="4" fill="rgb(255,255,255)" stroke="none" />
  <circle cx="804" cy="416" r="4" fill="rgb(255,255,255)" stroke="none" />
  <circle cx="808" cy="420" r="4" fill="rgb(255,255,255)" stroke="none" />
  <circle cx="812" cy="420" r="4" fill="rgb(255,255,255)" stroke="none" />
  <circle cx="816" cy="424" r="4" fill="rgb(255,255,255)" stroke="none" />
  <circle cx="820" cy="424" r="4" fill="rgb(255,255,255)" stroke="none" />
  <circle cx="824" cy="428" r="4" fill="rgb(255,255,255)" stroke="none" />
  <circle cx="828" cy="428" r="4" fill="rgb(255,255,255)" stroke="none" />
  <circle cx="832" cy="432" r="4" fill="rgb(255,255,255)" stroke="none" />
  <circle cx="836" cy="436" r="4" fill="rgb(255,255,255)" stroke="none" />
  <circle cx="840" cy="440" r="4" fill="rgb(255,255,255)" stroke="none" />
  <circle cx="844" cy="440" r="4" fill="rgb(255,255,255)" stroke="none" />
  <circle cx="848" cy="444" r="4" fill="rgb(255,255,255)" stroke="none" />
  <circle cx="852" cy="448" r="4" fill="rgb(255,255,255)" stroke="none" />
  <circle cx="856" cy="452" r="4" fill="rgb(255,255,255)" stroke="none" />
  <circle cx="860" cy="456" r="4" fill="rgb(255,255,255)" stroke="none" />
  <circle cx="864" cy="460" r="4" fill="rgb(255,255,255)" stroke="none" />
  <circle cx="868" cy="464" r="4" fill="rgb(255,255,255)" stroke="none" />
  <circle cx="872" cy="464" r="4" fill="rgb(255,255,255)" stroke="none" />
  <circle cx="876" cy="468" r="4" fill="rgb(255,255,255)" stroke="none" />
  <circle cx="876" cy="472" r="4" fill="rgb(255,255,255)" stroke="none" />
  <circle cx="880" cy="476" r="4" fill="rgb(255,255,255)" stroke="none" />
  <circle cx="884" cy="480" r="4" fill="rgb(255,255,255)" stroke="none" />
  <circle cx="888" cy="484" r="4" fill="rgb(255,255,255)" stroke="none" />
  <circle cx="892" cy="488" r="4" fill="rgb(255,255,255)" stroke="none" />
  <circle cx="896" cy="492" r="4" fill="rgb(255,255,255)" stroke="none" />
  <circle cx="896" cy="496" r="4" fill="rgb(255,255,255)" stroke="none" />
  <circle cx="900" cy="500" r="4" fill="rgb(255,255,255)" stroke="none" />
  <circle cx="904" cy="504" r="4" fill="rgb(255,255,255)" stroke="none" />
  <circle cx="908" cy="508" r="4" fill="rgb(255,255,255)" stroke="none" />
  <circle cx="908" cy="512" r="4" fill="rgb(255,255,255)" stroke="none" />
  <circle cx="912" cy="516" r="4" fill="rgb(255,255,255)" stroke="none" />
  <circle cx="912" cy="520" r="4" fill="rgb(255,255,255)" stroke="none" />
  <circle cx="916" cy="524" r="4" fill="rgb(255,255,255)" stroke="none" />
  <circle cx="920" cy="528" r="4" fill="rgb(255,255,255)" stroke="none" />
  <circle cx="920" cy="532" r="4" fill="rgb(255,255,255)" stroke="none" />
  <circle cx="924" cy="536" r="4" fill="rgb(255,255,255)" stroke="none" />
  <circle cx="924" cy="540" r="4" fill="rgb(255,255,255)" stroke="none" />
  <circle cx="920" cy="544" r="4" fill="rgb(255,255,255)" stroke="none" />
  <circle cx="916" cy="548" r="4" fill="rgb(255,255,255)" stroke="none" />
  <circle cx="912" cy="548" r="4" fill="rgb(255,255,255)" stroke="none" />
  <circle cx="908" cy="544" r="4" fill="rgb(255,255,255)" stroke="none" />
  <circle cx="912" cy="548" r="4" fill="rgb(255,255,255)" stroke="none" />
  <circle cx="912" cy="552" r="4" fill="rgb(255,255,255)" stroke="none" />
  <circle cx="916" cy="556" r="4" fill="rgb(255,255,255)" stroke="none" />
  <circle cx="916" cy="560" r="4" fill="rgb(255,255,255)" stroke="none" />
  <circle cx="916" cy="564" r="4" fill="rgb(255,255,255)" stroke="none" />
  <circle cx="920" cy="568" r="4" fill="rgb(255,255,255)" stroke="none" />
  <circle cx="920" cy="572" r="4" fill="rgb(255,255,255)" stroke="none" />
  <circle cx="924" cy="576" r="4" fill="rgb(255,255,255)" stroke="none" />
  <circle cx="924" cy="580" r="4" fill="rgb(255,255,255)" stroke="none" />
  <circle cx="928" cy="584" r="4" fill="rgb(255,255,255)" stroke="none" />
  <circle cx="928" cy="588" r="4" fill="rgb(255,255,255)" stroke="none" />
  <circle cx="932" cy="592" r="4" fill="rgb(255,255,255)" stroke="none" />
  <circle cx="932" cy="596" r="4" fill="rgb(255,255,255)" stroke="none" />
  <circle cx="932" cy="600" r="4" fill="rgb(255,255,255)" stroke="none" />
  <circle cx="936" cy="604" r="4" fill="rgb(255,255,255)" stroke="none" />
  <circle cx="936" cy="608" r="4" fill="rgb(255,255,255)" stroke="none" />
  <circle cx="940" cy="612" r="4" fill="rgb(255,255,255)" stroke="none" />
  <circle cx="940" cy="616" r="4" fill="rgb(255,255,255)" stroke="none" />
  <circle cx="940" cy="620" r="4" fill="rgb(255,255,255)" stroke="none" />
  <circle cx="940" cy="624" r="4" fill="rgb(255,255,255)" stroke="none" />
  <circle cx="940" cy="628" r="4" fill="rgb(255,255,255)" stroke="none" />
  <circle cx="944" cy="632" r="4" fill="rgb(255,255,255)" stroke="none" />
  <circle cx="944" cy="636" r="4" fill="rgb(255,255,255)" stroke="none" />
  <circle cx="944" cy="640" r="4" fill="rgb(255,255,255)" stroke="none" />
  <circle cx="944" cy="644" r="4" fill="rgb(255,255,255)" stroke="none" />
  <circle cx="944" cy="648" r="4" fill="rgb(255,255,255)" stroke="none" />
  <circle cx="944" cy="652" r="4" fill="rgb(255,255,255)" stroke="none" />
  <circle cx="948" cy="656" r="4" fill="rgb(255,255,255)" stroke="none" />
  <circle cx="948" cy="660" r="4" fill="rgb(255,255,255)" stroke="none" />
  <circle cx="948" cy="664" r="4" fill="rgb(255,255,255)" stroke="none" />
  <circle cx="948" cy="668" r="4" fill="rgb(255,255,255)" stroke="none" />
  <circle cx="948" cy="672" r="4" fill="rgb(255,255,255)" stroke="none" />
  <circle cx="948" cy="676" r="4" fill="rgb(255,255,255)" stroke="none" />
  <circle cx="948" cy="680" r="4" fill="rgb(255,255,255)" stroke="none" />
  <circle cx="948" cy="684" r="4" fill="rgb(255,255,255)" stroke="none" />
  <circle cx="952" cy="688" r="4" fill="rgb(255,255,255)" stroke="none" />
  <circle cx="952" cy="692" r="4" fill="rgb(255,255,255)" stroke="none" />
  <circle cx="952" cy="696" r="4" fill="rgb(255,255,255)" stroke="none" />
  <circle cx="956" cy="700" r="4" fill="rgb(255,255,255)" stroke="none" />
  <circle cx="956" cy="704" r="4" fill="rgb(255,255,255)" stroke="none" />
  <circle cx="956" cy="708" r="4" fill="rgb(255,255,255)" stroke="none" />
  <circle cx="960" cy="712" r="4" fill="rgb(255,255,255)" stroke="none" />
  <circle cx="964" cy="716" r="4" fill="rgb(255,255,255)" stroke="none" />
  <circle cx="964" cy="720" r="4" fill="rgb(255,255,255)" stroke="none" />
  <circle cx="968" cy="724" r="4" fill="rgb(255,255,255)" stroke="none" />
  <circle cx="968" cy="728" r="4" fill="rgb(255,255,255)" stroke="none" />
  <circle cx="972" cy="732" r="4" fill="rgb(255,255,255)" stroke="none" />
  <circle cx="976" cy="736" r="4" fill="rgb(255,255,255)" stroke="none" />
  <circle cx="976" cy="740" r="4" fill="rgb(255,255,255)" stroke="none" />
  <circle cx="980" cy="744" r="4" fill="rgb(255,255,255)" stroke="none" />
  <circle cx="984" cy="748" r="4" fill="rgb(255,255,255)" stroke="none" />
  <circle cx="988" cy="752" r="4" fill="rgb(255,255,255)" stroke="none" />
  <circle cx="992" cy="756" r="4" fill="rgb(255,255,255)" stroke="none" />
  <circle cx="992" cy="760" r="4" fill="rgb(255,255,255)" stroke="none" />
  <circle cx="996" cy="764" r="4" fill="rgb(255,255,255)" stroke="none" />
  <circle cx="1000" cy="768" r="4" fill="rgb(255,255,255)" stroke="none" />
  <circle cx="1004" cy="772" r="4" fill="rgb(255,255,255)" stroke="none" />
  <circle cx="1004" cy="776" r="4" fill="rgb(255,255,255)" stroke="none" />
  <circle cx="1008" cy="780" r="4" fill="rgb(255,255,255)" stroke="none" />
  <circle cx="1012" cy="784" r="4" fill="rgb(255,255,255)" stroke="none" />
  <circle cx="1016" cy="788" r="4" fill="rgb(255,255,255)" stroke="none" />
  <circle cx="1020" cy="792" r="4" fill="rgb(255,255,255)" stroke="none" />
  <circle cx="1024" cy="796" r="4" fill="rgb(255,255,255)" stroke="none" />
  <circle cx="1028" cy="800" r="4" fill="rgb(255,255,255)" stroke="none" />
  <circle cx="1032" cy="804" r="4" fill="rgb(255,255,255)" stroke="none" />
  <circle cx="1032" cy="808" r="4" fill="rgb(255,255,255)" stroke="none" />
  <circle cx="1032" cy="812" r="4" fill="rgb(255,255,255)" stroke="none" />
  <circle cx="1032" cy="816" r="4" fill="rgb(255,255,255)" stroke="none" />
  <circle cx="1032" cy="820" r="4" fill="rgb(255,255,255)" stroke="none" />
  <circle cx="1032" cy="824" r="4" fill="rgb(255,255,255)" stroke="none" />
  <circle cx="1028" cy="828" r="4" fill="rgb(255,255,255)" stroke="none" />
  <circle cx="1028" cy="832" r="4" fill="rgb(255,255,255)" stroke="none" />
  <circle cx="1024" cy="836" r="4" fill="rgb(255,255,255)" stroke="none" />
  <circle cx="1020" cy="840" r="4" fill="rgb(255,255,255)" stroke="none" />
  <circle cx="1016" cy="844" r="4" fill="rgb(255,255,255)" stroke="none" />
  <circle cx="1012" cy="848" r="4" fill="rgb(255,255,255)" stroke="none" />
  <circle cx="1008" cy="848" r="4" fill="rgb(255,255,255)" stroke="none" />
  <circle cx="1004" cy="852" r="4" fill="rgb(255,255,255)" stroke="none" />
  <circle cx="1000" cy="856" r="4" fill="rgb(255,255,255)" stroke="none" />
  <circle cx="996" cy="860" r="4" fill="rgb(255,255,255)" stroke="none" />
  <circle cx="992" cy="864" r="4" fill="rgb(255,255,255)" stroke="none" />
  <circle cx="988" cy="868" r="4" fill="rgb(255,255,255)" stroke="none" />
  <circle cx="988" cy="872" r="4" fill="rgb(255,255,255)" stroke="none" />
  <circle cx="984" cy="876" r="4" fill="rgb(255,255,255)" stroke="none" />
  <circle cx="980" cy="880" r="4" fill="rgb(255,255,255)" stroke="none" />
  <circle cx="980" cy="884" r="4" fill="rgb(255,255,255)" stroke="none" />
  <circle cx="980" cy="888" r="4" fill="rgb(255,255,255)" stroke="none" />
  <circle cx="980" cy="892" r="4" fill="rgb(255,255,255)" stroke="none" />
  <circle cx="980" cy="896" r="4" fill="rgb(255,255,255)" stroke="none" />
  <circle cx="980" cy="900" r="4" fill="rgb(255,255,255)" stroke="none" />
  <circle cx="980" cy="904" r="4" fill="rgb(255,255,255)" stroke="none" />
  <circle cx="980" cy="908" r="4" fill="rgb(255,255,255)" stroke="none" />
  <circle cx="980" cy="912" r="4" fill="rgb(255,255,255)" stroke="none" />
  <circle cx="980" cy="916" r="4" fill="rgb(255,255,255)" stroke="none" />
  <circle cx="984" cy="920" r="4" fill="rgb(255,255,255)" stroke="none" />
  <circle cx="984" cy="924" r="4" fill="rgb(255,255,255)" stroke="none" />
  <circle cx="984" cy="928" r="4" fill="rgb(255,255,255)" stroke="none" />
  <circle cx="988" cy="932" r="4" fill="rgb(255,255,255)" stroke="none" />
  <circle cx="988" cy="936" r="4" fill="rgb(255,255,255)" stroke="none" />
  <circle cx="988" cy="940" r="4" fill="rgb(255,255,255)" stroke="none" />
  <circle cx="988" cy="944" r="4" fill="rgb(255,255,255)" stroke="none" />
  <circle cx="984" cy="948" r="4" fill="rgb(255,255,255)" stroke="none" />
  <circle cx="980" cy="952" r="4" fill="rgb(255,255,255)" stroke="none" />
  <circle cx="976" cy="956" r="4" fill="rgb(255,255,255)" stroke="none" />
  <circle cx="972" cy="960" r="4" fill="rgb(255,255,255)" stroke="none" />
  <circle cx="968" cy="960" r="4" fill="rgb(255,255,255)" stroke="none" />
  <circle cx="964" cy="964" r="4" fill="rgb(255,255,255)" stroke="none" />
  <circle cx="964" cy="968" r="4" fill="rgb(255,255,255)" stroke="none" />
  <circle cx="964" cy="972" r="4" fill="rgb(255,255,255)" stroke="none" />
  <circle cx="964" cy="976" r="4" fill="rgb(255,255,255)" stroke="none" />
  <circle cx="964" cy="980" r="4" fill="rgb(255,255,255)" stroke="none" />
  <circle cx="964" cy="984" r="4" fill="rgb(255,255,255)" stroke="none" />
  <circle cx="960" cy="988" r="4" fill="rgb(255,255,255)" stroke="none" />
  <circle cx="956" cy="992" r="4" fill="rgb(255,255,255)" stroke="none" />
  <circle cx="952" cy="996" r="4" fill="rgb(255,255,255)" stroke="none" />
  <circle cx="952" cy="1000" r="4" fill="rgb(255,255,255)" stroke="none" />
  <circle cx="948" cy="1004" r="4" fill="rgb(255,255,255)" stroke="none" />
  <circle cx="944" cy="1008" r="4" fill="rgb(255,255,255)" stroke="none" />
  <circle cx="944" cy="1012" r="4" fill="rgb(255,255,255)" stroke="none" />
  <circle cx="940" cy="1016" r="4" fill="rgb(255,255,255)" stroke="none" />
  <circle cx="936" cy="1020" r="4" fill="rgb(255,255,255)" stroke="none" />
  <circle cx="936" cy="1024" r="4" fill="rgb(255,255,255)" stroke="none" />
  <circle cx="936" cy="1028" r="4" fill="rgb(255,255,255)" stroke="none" />
  <circle cx="932" cy="1032" r="4" fill="rgb(255,255,255)" stroke="none" />
  <circle cx="936" cy="1036" r="4" fill="rgb(255,255,255)" stroke="none" />
  <circle cx="936" cy="1040" r="4" fill="rgb(255,255,255)" stroke="none" />
  <circle cx="936" cy="1044" r="4" fill="rgb(255,255,255)" stroke="none" />
  <circle cx="940" cy="1048" r="4" fill="rgb(255,255,255)" stroke="none" />
  <circle cx="940" cy="1052" r="4" fill="rgb(255,255,255)" stroke="none" />
  <circle cx="940" cy="1056" r="4" fill="rgb(255,255,255)" stroke="none" />
  <circle cx="940" cy="1060" r="4" fill="rgb(255,255,255)" stroke="none" />
  <circle cx="940" cy="1064" r="4" fill="rgb(255,255,255)" stroke="none" />
  <circle cx="940" cy="1068" r="4" fill="rgb(255,255,255)" stroke="none" />
  <circle cx="940" cy="1072" r="4" fill="rgb(255,255,255)" stroke="none" />
  <circle cx="940" cy="1076" r="4" fill="rgb(255,255,255)" stroke="none" />
  <circle cx="940" cy="1080" r="4" fill="rgb(255,255,255)" stroke="none" />
  <circle cx="940" cy="1084" r="4" fill="rgb(255,255,255)" stroke="none" />
  <circle cx="936" cy="1088" r="4" fill="rgb(255,255,255)" stroke="none" />
  <circle cx="932" cy="1092" r="4" fill="rgb(255,255,255)" stroke="none" />
  <circle cx="928" cy="1096" r="4" fill="rgb(255,255,255)" stroke="none" />
  <circle cx="924" cy="1100" r="4" fill="rgb(255,255,255)" stroke="none" />
  <circle cx="924" cy="1104" r="4" fill="rgb(255,255,255)" stroke="none" />
  <circle cx="920" cy="1108" r="4" fill="rgb(255,255,255)" stroke="none" />
  <circle cx="920" cy="1112" r="4" fill="rgb(255,255,255)" stroke="none" />
  <circle cx="924" cy="1116" r="4" fill="rgb(255,255,255)" stroke="none" />
  <circle cx="924" cy="1120" r="4" fill="rgb(255,255,255)" stroke="none" />
  <circle cx="924" cy="1124" r="4" fill="rgb(255,255,255)" stroke="none" />
  <circle cx="924" cy="1128" r="4" fill="rgb(255,255,255)" stroke="none" />
  <circle cx="920" cy="1132" r="4" fill="rgb(255,255,255)" stroke="none" />
  <circle cx="916" cy="1136" r="4" fill="rgb(255,255,255)" stroke="none" />
  <circle cx="912" cy="1140" r="4" fill="rgb(255,255,255)" stroke="none" />
  <circle cx="908" cy="1144" r="4" fill="rgb(255,255,255)" stroke="none" />
  <circle cx="904" cy="1148" r="4" fill="rgb(255,255,255)" stroke="none" />
  <circle cx="900" cy="1152" r="4" fill="rgb(255,255,255)" stroke="none" />
  <circle cx="896" cy="1156" r="4" fill="rgb(255,255,255)" stroke="none" />
  <circle cx="896" cy="1160" r="4" fill="rgb(255,255,255)" stroke="none" />
  <circle cx="892" cy="1164" r="4" fill="rgb(255,255,255)" stroke="none" />
  <circle cx="892" cy="1168" r="4" fill="rgb(255,255,255)" stroke="none" />
  <circle cx="888" cy="1172" r="4" fill="rgb(255,255,255)" stroke="none" />
  <circle cx="884" cy="1176" r="4" fill="rgb(255,255,255)" stroke="none" />
  <circle cx="880" cy="1180" r="4" fill="rgb(255,255,255)" stroke="none" />
  <circle cx="876" cy="1184" r="4" fill="rgb(255,255,255)" stroke="none" />
  <circle cx="872" cy="1188" r="4" fill="rgb(255,255,255)" stroke="none" />
  <circle cx="868" cy="1192" r="4" fill="rgb(255,255,255)" stroke="none" />
  <circle cx="868" cy="1196" r="4" fill="rgb(255,255,255)" stroke="none" />
  <circle cx="868" cy="1200" r="4" fill="rgb(255,255,255)" stroke="none" />
  <circle cx="868" cy="1204" r="4" fill="rgb(255,255,255)" stroke="none" />
  <circle cx="868" cy="1208" r="4" fill="rgb(255,255,255)" stroke="none" />
  <circle cx="868" cy="1212" r="4" fill="rgb(255,255,255)" stroke="none" />
  <circle cx="868" cy="1216" r="4" fill="rgb(255,255,255)" stroke="none" />
  <circle cx="868" cy="1220" r="4" fill="rgb(255,255,255)" stroke="none" />
  <circle cx="864" cy="1224" r="4" fill="rgb(255,255,255)" stroke="none" />
  <circle cx="864" cy="1228" r="4" fill="rgb(255,255,255)" stroke="none" />
  <circle cx="860" cy="1232" r="4" fill="rgb(255,255,255)" stroke="none" />
  <circle cx="856" cy="1236" r="4" fill="rgb(255,255,255)" stroke="none" />
  <circle cx="856" cy="1240" r="4" fill="rgb(255,255,255)" stroke="none" />
  <circle cx="852" cy="1244" r="4" fill="rgb(255,255,255)" stroke="none" />
  <circle cx="848" cy="1244" r="4" fill="rgb(255,255,255)" stroke="none" />
  <circle cx="844" cy="1244" r="4" fill="rgb(255,255,255)" stroke="none" />
  <circle cx="840" cy="1244" r="4" fill="rgb(255,255,255)" stroke="none" />
  <circle cx="836" cy="1248" r="4" fill="rgb(255,255,255)" stroke="none" />
  <circle cx="832" cy="1248" r="4" fill="rgb(255,255,255)" stroke="none" />
  <circle cx="828" cy="1248" r="4" fill="rgb(255,255,255)" stroke="none" />
  <circle cx="824" cy="1248" r="4" fill="rgb(255,255,255)" stroke="none" />
  <circle cx="820" cy="1244" r="4" fill="rgb(255,255,255)" stroke="none" />
  <circle cx="816" cy="1248" r="4" fill="rgb(255,255,255)" stroke="none" />
  <circle cx="812" cy="1248" r="4" fill="rgb(255,255,255)" stroke="none" />
  <circle cx="808" cy="1248" r="4" fill="rgb(255,255,255)" stroke="none" />
  <circle cx="804" cy="1252" r="4" fill="rgb(255,255,255)" stroke="none" />
  <circle cx="800" cy="1252" r="4" fill="rgb(255,255,255)" stroke="none" />
  <circle cx="796" cy="1252" r="4" fill="rgb(255,255,255)" stroke="none" />
  <circle cx="792" cy="1256" r="4" fill="rgb(255,255,255)" stroke="none" />
  <circle cx="788" cy="1252" r="4" fill="rgb(255,255,255)" stroke="none" />
  <circle cx="784" cy="1256" r="4" fill="rgb(255,255,255)" stroke="none" />
  <circle cx="780" cy="1256" r="4" fill="rgb(255,255,255)" stroke="none" />
  <circle cx="776" cy="1256" r="4" fill="rgb(255,255,255)" stroke="none" />
  <circle cx="772" cy="1260" r="4" fill="rgb(255,255,255)" stroke="none" />
  <circle cx="768" cy="1260" r="4" fill="rgb(255,255,255)" stroke="none" />
  <circle cx="764" cy="1260" r="4" fill="rgb(255,255,255)" stroke="none" />
  <circle cx="760" cy="1264" r="4" fill="rgb(255,255,255)" stroke="none" />
  <circle cx="756" cy="1260" r="4" fill="rgb(255,255,255)" stroke="none" />
  <circle cx="752" cy="1260" r="4" fill="rgb(255,255,255)" stroke="none" />
  <circle cx="748" cy="1264" r="4" fill="rgb(255,255,255)" stroke="none" />
  <circle cx="744" cy="1264" r="4" fill="rgb(255,255,255)" stroke="none" />
  <circle cx="740" cy="1268" r="4" fill="rgb(255,255,255)" stroke="none" />
  <circle cx="736" cy="1268" r="4" fill="rgb(255,255,255)" stroke="none" />
  <circle cx="732" cy="1268" r="4" fill="rgb(255,255,255)" stroke="none" />
  <circle cx="728" cy="1268" r="4" fill="rgb(255,255,255)" stroke="none" />
  <circle cx="724" cy="1268" r="4" fill="rgb(255,255,255)" stroke="none" />
  <circle cx="720" cy="1272" r="4" fill="rgb(255,255,255)" stroke="none" />
  <circle cx="716" cy="1272" r="4" fill="rgb(255,255,255)" stroke="none" />
  <circle cx="712" cy="1272" r="4" fill="rgb(255,255,255)" stroke="none" />
  <circle cx="708" cy="1272" r="4" fill="rgb(255,255,255)" stroke="none" />
  <circle cx="704" cy="1272" r="4" fill="rgb(255,255,255)" stroke="none" />
  <circle cx="700" cy="1276" r="4" fill="rgb(255,255,255)" stroke="none" />
  <circle cx="696" cy="1276" r="4" fill="rgb(255,255,255)" stroke="none" />
  <circle cx="692" cy="1276" r="4" fill="rgb(255,255,255)" stroke="none" />
  <circle cx="688" cy="1276" r="4" fill="rgb(255,255,255)" stroke="none" />
  <circle cx="684" cy="1276" r="4" fill="rgb(255,255,255)" stroke="none" />
  <circle cx="680" cy="1276" r="4" fill="rgb(255,255,255)" stroke="none" />
  <circle cx="676" cy="1276" r="4" fill="rgb(255,255,255)" stroke="none" />
  <circle cx="672" cy="1276" r="4" fill="rgb(255,255,255)" stroke="none" />
  <circle cx="668" cy="1276" r="4" fill="rgb(255,255,255)" stroke="none" />
  <circle cx="664" cy="1276" r="4" fill="rgb(255,255,255)" stroke="none" />
  <circle cx="660" cy="1276" r="4" fill="rgb(255,255,255)" stroke="none" />
  <circle cx="656" cy="1280" r="4" fill="rgb(255,255,255)" stroke="none" />
  <circle cx="652" cy="1280" r="4" fill="rgb(255,255,255)" stroke="none" />
  <circle cx="648" cy="1284" r="4" fill="rgb(255,255,255)" stroke="none" />
  <circle cx="644" cy="1284" r="4" fill="rgb(255,255,255)" stroke="none" />
  <circle cx="640" cy="1284" r="4" fill="rgb(255,255,255)" stroke="none" />
  <circle cx="636" cy="1284" r="4" fill="rgb(255,255,255)" stroke="none" />
  <circle cx="632" cy="1284" r="4" fill="rgb(255,255,255)" stroke="none" />
  <circle cx="628" cy="1284" r="4" fill="rgb(255,255,255)" stroke="none" />
  <circle cx="624" cy="1280" r="4" fill="rgb(255,255,255)" stroke="none" />
  <circle cx="620" cy="1280" r="4" fill="rgb(255,255,255)" stroke="none" />
  <circle cx="616" cy="1280" r="4" fill="rgb(255,255,255)" stroke="none" />
  <circle cx="612" cy="1280" r="4" fill="rgb(255,255,255)" stroke="none" />
  <circle cx="608" cy="1280" r="4" fill="rgb(255,255,255)" stroke="none" />
  <circle cx="604" cy="1280" r="4" fill="rgb(255,255,255)" stroke="none" />
  <circle cx="600" cy="1280" r="4" fill="rgb(255,255,255)" stroke="none" />
  <circle cx="596" cy="1284" r="4" fill="rgb(255,255,255)" stroke="none" />
  <circle cx="592" cy="1284" r="4" fill="rgb(255,255,255)" stroke="none" />
  <circle cx="588" cy="1284" r="4" fill="rgb(255,255,255)" stroke="none" />
  <circle cx="584" cy="1280" r="4" fill="rgb(255,255,255)" stroke="none" />
  <circle cx="580" cy="1284" r="4" fill="rgb(255,255,255)" stroke="none" />
  <circle cx="576" cy="1284" r="4" fill="rgb(255,255,255)" stroke="none" />
  <circle cx="572" cy="1284" r="4" fill="rgb(255,255,255)" stroke="none" />
  <circle cx="568" cy="1284" r="4" fill="rgb(255,255,255)" stroke="none" />
  <circle cx="564" cy="1284" r="4" fill="rgb(255,255,255)" stroke="none" />
  <circle cx="560" cy="1284" r="4" fill="rgb(255,255,255)" stroke="none" />
  <circle cx="556" cy="1288" r="4" fill="rgb(255,255,255)" stroke="none" />
  <circle cx="552" cy="1288" r="4" fill="rgb(255,255,255)" stroke="none" />
  <circle cx="548" cy="1292" r="4" fill="rgb(255,255,255)" stroke="none" />
  <circle cx="544" cy="1292" r="4" fill="rgb(255,255,255)" stroke="none" />
  <circle cx="540" cy="1292" r="4" fill="rgb(255,255,255)" stroke="none" />
  <circle cx="536" cy="1292" r="4" fill="rgb(255,255,255)" stroke="none" />
  <circle cx="532" cy="1296" r="4" fill="rgb(255,255,255)" stroke="none" />
  <circle cx="528" cy="1296" r="4" fill="rgb(255,255,255)" stroke="none" />
  <circle cx="524" cy="1296" r="4" fill="rgb(255,255,255)" stroke="none" />
  <circle cx="520" cy="1296" r="4" fill="rgb(255,255,255)" stroke="none" />
  <circle cx="516" cy="1296" r="4" fill="rgb(255,255,255)" stroke="none" />
  <circle cx="512" cy="1296" r="4" fill="rgb(255,255,255)" stroke="none" />
  <circle cx="508" cy="1296" r="4" fill="rgb(255,255,255)" stroke="none" />
  <circle cx="504" cy="1296" r="4" fill="rgb(255,255,255)" stroke="none" />
  <circle cx="500" cy="1296" r="4" fill="rgb(255,255,255)" stroke="none" />
  <circle cx="496" cy="1296" r="4" fill="rgb(255,255,255)" stroke="none" />
  <circle cx="492" cy="1296" r="4" fill="rgb(255,255,255)" stroke="none" />
  <circle cx="488" cy="1300" r="4" fill="rgb(255,255,255)" stroke="none" />
  <circle cx="484" cy="1300" r="4" fill="rgb(255,255,255)" stroke="none" />
  <circle cx="480" cy="1300" r="4" fill="rgb(255,255,255)" stroke="none" />
  <circle cx="476" cy="1300" r="4" fill="rgb(255,255,255)" stroke="none" />
  <circle cx="472" cy="1304" r="4" fill="rgb(255,255,255)" stroke="none" />
  <circle cx="468" cy="1304" r="4" fill="rgb(255,255,255)" stroke="none" />
  <circle cx="464" cy="1304" r="4" fill="rgb(255,255,255)" stroke="none" />
  <circle cx="460" cy="1304" r="4" fill="rgb(255,255,255)" stroke="none" />
  <circle cx="456" cy="1308" r="4" fill="rgb(255,255,255)" stroke="none" />
  <circle cx="452" cy="1308" r="4" fill="rgb(255,255,255)" stroke="none" />
  <circle cx="448" cy="1308" r="4" fill="rgb(255,255,255)" stroke="none" />
  <circle cx="444" cy="1312" r="4" fill="rgb(255,255,255)" stroke="none" />
  <circle cx="440" cy="1312" r="4" fill="rgb(255,255,255)" stroke="none" />
  <circle cx="436" cy="1312" r="4" fill="rgb(255,255,255)" stroke="none" />
  <circle cx="432" cy="1312" r="4" fill="rgb(255,255,255)" stroke="none" />
  <circle cx="428" cy="1312" r="4" fill="rgb(255,255,255)" stroke="none" />
  <circle cx="424" cy="1316" r="4" fill="rgb(255,255,255)" stroke="none" />
  <circle cx="420" cy="1316" r="4" fill="rgb(255,255,255)" stroke="none" />
  <circle cx="416" cy="1316" r="4" fill="rgb(255,255,255)" stroke="none" />
  <circle cx="412" cy="1316" r="4" fill="rgb(255,255,255)" stroke="none" />
  <circle cx="408" cy="1320" r="4" fill="rgb(255,255,255)" stroke="none" />
  <circle cx="404" cy="1320" r="4" fill="rgb(255,255,255)" stroke="none" />
  <circle cx="400" cy="1320" r="4" fill="rgb(255,255,255)" stroke="none" />
  <circle cx="396" cy="1320" r="4" fill="rgb(255,255,255)" stroke="none" />
  <circle cx="392" cy="1320" r="4" fill="rgb(255,255,255)" stroke="none" />
  <circle cx="388" cy="1320" r="4" fill="rgb(255,255,255)" stroke="none" />
  <circle cx="384" cy="1316" r="4" fill="rgb(255,255,255)" stroke="none" />
  <circle cx="380" cy="1312" r="4" fill="rgb(255,255,255)" stroke="none" />
  <circle cx="380" cy="1308" r="4" fill="rgb(255,255,255)" stroke="none" />
  <circle cx="380" cy="1304" r="4" fill="rgb(255,255,255)" stroke="none" />
  <circle cx="380" cy="1300" r="4" fill="rgb(255,255,255)" stroke="none" />
  <circle cx="380" cy="1296" r="4" fill="rgb(255,255,255)" stroke="none" />
  <circle cx="380" cy="1292" r="4" fill="rgb(255,255,255)" stroke="none" />
  <circle cx="380" cy="1288" r="4" fill="rgb(255,255,255)" stroke="none" />
  <circle cx="380" cy="1284" r="4" fill="rgb(255,255,255)" stroke="none" />
  <circle cx="380" cy="1280" r="4" fill="rgb(255,255,255)" stroke="none" />
  <circle cx="380" cy="1276" r="4" fill="rgb(255,255,255)" stroke="none" />
  <circle cx="380" cy="1272" r="4" fill="rgb(255,255,255)" stroke="none" />
  <circle cx="380" cy="1268" r="4" fill="rgb(255,255,255)" stroke="none" />
  <circle cx="384" cy="1264" r="4" fill="rgb(255,255,255)" stroke="none" />
  <circle cx="384" cy="1260" r="4" fill="rgb(255,255,255)" stroke="none" />
  <circle cx="384" cy="1256" r="4" fill="rgb(255,255,255)" stroke="none" />
  <circle cx="384" cy="1252" r="4" fill="rgb(255,255,255)" stroke="none" />
  <circle cx="388" cy="1248" r="4" fill="rgb(255,255,255)" stroke="none" />
  <circle cx="388" cy="1244" r="4" fill="rgb(255,255,255)" stroke="none" />
  <circle cx="384" cy="1240" r="4" fill="rgb(255,255,255)" stroke="none" />
  <circle cx="384" cy="1236" r="4" fill="rgb(255,255,255)" stroke="none" />
  <circle cx="384" cy="1232" r="4" fill="rgb(255,255,255)" stroke="none" />
  <circle cx="384" cy="1228" r="4" fill="rgb(255,255,255)" stroke="none" />
  <circle cx="384" cy="1224" r="4" fill="rgb(255,255,255)" stroke="none" />
  <circle cx="384" cy="1220" r="4" fill="rgb(255,255,255)" stroke="none" />
  <circle cx="388" cy="1216" r="4" fill="rgb(255,255,255)" stroke="none" />
  <circle cx="388" cy="1212" r="4" fill="rgb(255,255,255)" stroke="none" />
  <circle cx="388" cy="1208" r="4" fill="rgb(255,255,255)" stroke="none" />
  <circle cx="388" cy="1204" r="4" fill="rgb(255,255,255)" stroke="none" />
  <circle cx="392" cy="1200" r="4" fill="rgb(255,255,255)" stroke="none" />
  <circle cx="392" cy="1196" r="4" fill="rgb(255,255,255)" stroke="none" />
  <circle cx="392" cy="1192" r="4" fill="rgb(255,255,255)" stroke="none" />
  <circle cx="392" cy="1188" r="4" fill="rgb(255,255,255)" stroke="none" />
  <circle cx="392" cy="1184" r="4" fill="rgb(255,255,255)" stroke="none" />
  <circle cx="396" cy="1180" r="4" fill="rgb(255,255,255)" stroke="none" />
  <circle cx="396" cy="1176" r="4" fill="rgb(255,255,255)" stroke="none" />
  <circle cx="396" cy="1172" r="4" fill="rgb(255,255,255)" stroke="none" />
  <circle cx="396" cy="1168" r="4" fill="rgb(255,255,255)" stroke="none" />
  <circle cx="392" cy="1164" r="4" fill="rgb(255,255,255)" stroke="none" />
  <circle cx="392" cy="1160" r="4" fill="rgb(255,255,255)" stroke="none" />
  <circle cx="392" cy="1156" r="4" fill="rgb(255,255,255)" stroke="none" />
  <circle cx="392" cy="1152" r="4" fill="rgb(255,255,255)" stroke="none" />
  <circle cx="388" cy="1148" r="4" fill="rgb(255,255,255)" stroke="none" />
  <circle cx="388" cy="1144" r="4" fill="rgb(255,255,255)" stroke="none" />
  <circle cx="388" cy="1140" r="4" fill="rgb(255,255,255)" stroke="none" />
  <circle cx="392" cy="1136" r="4" fill="rgb(255,255,255)" stroke="none" />
  <circle cx="392" cy="1132" r="4" fill="rgb(255,255,255)" stroke="none" />
  <circle cx="396" cy="1128" r="4" fill="rgb(255,255,255)" stroke="none" />
  <circle cx="396" cy="1124" r="4" fill="rgb(255,255,255)" stroke="none" />
  <circle cx="396" cy="1120" r="4" fill="rgb(255,255,255)" stroke="none" />
  <circle cx="396" cy="1116" r="4" fill="rgb(255,255,255)" stroke="none" />
  <circle cx="400" cy="1112" r="4" fill="rgb(255,255,255)" stroke="none" />
  <circle cx="400" cy="1108" r="4" fill="rgb(255,255,255)" stroke="none" />
  <circle cx="400" cy="1104" r="4" fill="rgb(255,255,255)" stroke="none" />
  <circle cx="400" cy="1100" r="4" fill="rgb(255,255,255)" stroke="none" />
  <circle cx="404" cy="1096" r="4" fill="rgb(255,255,255)" stroke="none" />
  <circle cx="404" cy="1092" r="4" fill="rgb(255,255,255)" stroke="none" />
  <circle cx="404" cy="1088" r="4" fill="rgb(255,255,255)" stroke="none" />
  <circle cx="404" cy="1084" r="4" fill="rgb(255,255,255)" stroke="none" />
  <circle cx="408" cy="1080" r="4" fill="rgb(255,255,255)" stroke="none" />
  <circle cx="408" cy="1076" r="4" fill="rgb(255,255,255)" stroke="none" />
  <circle cx="408" cy="1072" r="4" fill="rgb(255,255,255)" stroke="none" />
  <circle cx="412" cy="1068" r="4" fill="rgb(255,255,255)" stroke="none" />
  <circle cx="412" cy="1064" r="4" fill="rgb(255,255,255)" stroke="none" />
  <circle cx="412" cy="1060" r="4" fill="rgb(255,255,255)" stroke="none" />
  <circle cx="412" cy="1056" r="4" fill="rgb(255,255,255)" stroke="none" />
  <circle cx="412" cy="1052" r="4" fill="rgb(255,255,255)" stroke="none" />
  <circle cx="412" cy="1048" r="4" fill="rgb(255,255,255)" stroke="none" />
  <circle cx="416" cy="1044" r="4" fill="rgb(255,255,255)" stroke="none" />
  <circle cx="416" cy="1040" r="4" fill="rgb(255,255,255)" stroke="none" />
  <circle cx="416" cy="1036" r="4" fill="rgb(255,255,255)" stroke="none" />
  <circle cx="416" cy="1032" r="4" fill="rgb(255,255,255)" stroke="none" />
  <circle cx="416" cy="1028" r="4" fill="rgb(255,255,255)" stroke="none" />
  <circle cx="416" cy="1024" r="4" fill="rgb(255,255,255)" stroke="none" />
  <circle cx="416" cy="1020" r="4" fill="rgb(255,255,255)" stroke="none" />
  <circle cx="420" cy="1016" r="4" fill="rgb(255,255,255)" stroke="none" />
  <circle cx="420" cy="1012" r="4" fill="rgb(255,255,255)" stroke="none" />
  <circle cx="420" cy="1008" r="4" fill="rgb(255,255,255)" stroke="none" />
  <circle cx="424" cy="1004" r="4" fill="rgb(255,255,255)" stroke="none" />
  <circle cx="428" cy="1000" r="4" fill="rgb(255,255,255)" stroke="none" />
  <circle cx="432" cy="996" r="4" fill="rgb(255,255,255)" stroke="none" />
  <circle cx="436" cy="992" r="4" fill="rgb(255,255,255)" stroke="none" />
  <circle cx="436" cy="988" r="4" fill="rgb(255,255,255)" stroke="none" />
  <circle cx="440" cy="984" r="4" fill="rgb(255,255,255)" stroke="none" />
  <circle cx="444" cy="980" r="4" fill="rgb(255,255,255)" stroke="none" />
  <circle cx="444" cy="976" r="4" fill="rgb(255,255,255)" stroke="none" />
  <circle cx="440" cy="972" r="4" fill="rgb(255,255,255)" stroke="none" />
  <circle cx="436" cy="972" r="4" fill="rgb(255,255,255)" stroke="none" />
  <circle cx="432" cy="968" r="4" fill="rgb(255,255,255)" stroke="none" />
  <circle cx="428" cy="968" r="4" fill="rgb(255,255,255)" stroke="none" />
  <circle cx="424" cy="964" r="4" fill="rgb(255,255,255)" stroke="none" />
  <circle cx="420" cy="960" r="4" fill="rgb(255,255,255)" stroke="none" />
  <circle cx="420" cy="956" r="4" fill="rgb(255,255,255)" stroke="none" />
  <circle cx="416" cy="952" r="4" fill="rgb(255,255,255)" stroke="none" />
  <circle cx="412" cy="948" r="4" fill="rgb(255,255,255)" stroke="none" />
  <circle cx="408" cy="944" r="4" fill="rgb(255,255,255)" stroke="none" />
  <circle cx="404" cy="940" r="4" fill="rgb(255,255,255)" stroke="none" />
  <circle cx="400" cy="936" r="4" fill="rgb(255,255,255)" stroke="none" />
  <circle cx="396" cy="932" r="4" fill="rgb(255,255,255)" stroke="none" />
  <circle cx="392" cy="928" r="4" fill="rgb(255,255,255)" stroke="none" />
  <circle cx="388" cy="924" r="4" fill="rgb(255,255,255)" stroke="none" />
  <circle cx="384" cy="920" r="4" fill="rgb(255,255,255)" stroke="none" />
  <circle cx="384" cy="916" r="4" fill="rgb(255,255,255)" stroke="none" />
  <circle cx="380" cy="912" r="4" fill="rgb(255,255,255)" stroke="none" />
  <circle cx="376" cy="908" r="4" fill="rgb(255,255,255)" stroke="none" />
  <circle cx="376" cy="904" r="4" fill="rgb(255,255,255)" stroke="none" />
  <circle cx="372" cy="900" r="4" fill="rgb(255,255,255)" stroke="none" />
  <circle cx="368" cy="896" r="4" fill="rgb(255,255,255)" stroke="none" />
  <circle cx="368" cy="892" r="4" fill="rgb(255,255,255)" stroke="none" />
  <circle cx="364" cy="888" r="4" fill="rgb(255,255,255)" stroke="none" />
  <circle cx="360" cy="884" r="4" fill="rgb(255,255,255)" stroke="none" />
  <circle cx="360" cy="880" r="4" fill="rgb(255,255,255)" stroke="none" />
  <circle cx="356" cy="876" r="4" fill="rgb(255,255,255)" stroke="none" />
  <circle cx="352" cy="872" r="4" fill="rgb(255,255,255)" stroke="none" />
  <circle cx="352" cy="868" r="4" fill="rgb(255,255,255)" stroke="none" />
  <circle cx="348" cy="864" r="4" fill="rgb(255,255,255)" stroke="none" />
  <circle cx="348" cy="860" r="4" fill="rgb(255,255,255)" stroke="none" />
  <circle cx="344" cy="856" r="4" fill="rgb(255,255,255)" stroke="none" />
  <circle cx="344" cy="852" r="4" fill="rgb(255,255,255)" stroke="none" />
  <circle cx="344" cy="848" r="4" fill="rgb(255,255,255)" stroke="none" />
  <circle cx="340" cy="844" r="4" fill="rgb(255,255,255)" stroke="none" />
  <circle cx="340" cy="840" r="4" fill="rgb(255,255,255)" stroke="none" />
  <circle cx="336" cy="836" r="4" fill="rgb(255,255,255)" stroke="none" />
  <circle cx="336" cy="832" r="4" fill="rgb(255,255,255)" stroke="none" />
  <circle cx="332" cy="828" r="4" fill="rgb(255,255,255)" stroke="none" />
  <circle cx="332" cy="824" r="4" fill="rgb(255,255,255)" stroke="none" />
  <circle cx="332" cy="820" r="4" fill="rgb(255,255,255)" stroke="none" />
  <circle cx="328" cy="816" r="4" fill="rgb(255,255,255)" stroke="none" />
  <circle cx="328" cy="812" r="4" fill="rgb(255,255,255)" stroke="none" />
  <circle cx="328" cy="808" r="4" fill="rgb(255,255,255)" stroke="none" />
  <circle cx="324" cy="804" r="4" fill="rgb(255,255,255)" stroke="none" />
  <circle cx="320" cy="800" r="4" fill="rgb(255,255,255)" stroke="none" />
  <circle cx="320" cy="796" r="4" fill="rgb(255,255,255)" stroke="none" />
  <circle cx="320" cy="792" r="4" fill="rgb(255,255,255)" stroke="none" />
  <circle cx="320" cy="788" r="4" fill="rgb(255,255,255)" stroke="none" />
  <circle cx="316" cy="784" r="4" fill="rgb(255,255,255)" stroke="none" />
  <circle cx="316" cy="780" r="4" fill="rgb(255,255,255)" stroke="none" />
  <circle cx="316" cy="776" r="4" fill="rgb(255,255,255)" stroke="none" />
  <circle cx="316" cy="772" r="4" fill="rgb(255,255,255)" stroke="none" />
  <circle cx="316" cy="768" r="4" fill="rgb(255,255,255)" stroke="none" />
  <circle cx="316" cy="764" r="4" fill="rgb(255,255,255)" stroke="none" />
  <circle cx="312" cy="760" r="4" fill="rgb(255,255,255)" stroke="none" />
  <circle cx="312" cy="756" r="4" fill="rgb(255,255,255)" stroke="none" />
  <circle cx="312" cy="752" r="4" fill="rgb(255,255,255)" stroke="none" />
  <circle cx="312" cy="748" r="4" fill="rgb(255,255,255)" stroke="none" />
  <circle cx="312" cy="744" r="4" fill="rgb(255,255,255)" stroke="none" />
  <circle cx="312" cy="740" r="4" fill="rgb(255,255,255)" stroke="none" />
  <circle cx="312" cy="736" r="4" fill="rgb(255,255,255)" stroke="none" />
  <circle cx="312" cy="732" r="4" fill="rgb(255,255,255)" stroke="none" />
  <circle cx="312" cy="728" r="4" fill="rgb(255,255,255)" stroke="none" />
  <circle cx="312" cy="724" r="4" fill="rgb(255,255,255)" stroke="none" />
  <circle cx="312" cy="720" r="4" fill="rgb(255,255,255)" stroke="none" />
  <circle cx="312" cy="716" r="4" fill="rgb(255,255,255)" stroke="none" />
  <circle cx="312" cy="712" r="4" fill="rgb(255,255,255)" stroke="none" />
  <circle cx="312" cy="708" r="4" fill="rgb(255,255,255)" stroke="none" />
  <circle cx="312" cy="704" r="4" fill="rgb(255,255,255)" stroke="none" />
  <circle cx="312" cy="700" r="4" fill="rgb(255,255,255)" stroke="none" />
  <circle cx="312" cy="696" r="4" fill="rgb(255,255,255)" stroke="none" />
  <circle cx="312" cy="692" r="4" fill="rgb(255,255,255)" stroke="none" />
  <circle cx="312" cy="688" r="4" fill="rgb(255,255,255)" stroke="none" />
  <circle cx="312" cy="684" r="4" fill="rgb(255,255,255)" stroke="none" />
  <circle cx="312" cy="680" r="4" fill="rgb(255,255,255)" stroke="none" />
  <circle cx="312" cy="676" r="4" fill="rgb(255,255,255)" stroke="none" />
  <circle cx="312" cy="672" r="4" fill="rgb(255,255,255)" stroke="none" />
  <circle cx="312" cy="668" r="4" fill="rgb(255,255,255)" stroke="none" />
  <circle cx="312" cy="664" r="4" fill="rgb(255,255,255)" stroke="none" />
  <circle cx="316" cy="660" r="4" fill="rgb(255,255,255)" stroke="none" />
  <circle cx="316" cy="656" r="4" fill="rgb(255,255,255)" stroke="none" />
  <circle cx="316" cy="652" r="4" fill="rgb(255,255,255)" stroke="none" />
  <circle cx="316" cy="648" r="4" fill="rgb(255,255,255)" stroke="none" />
  <circle cx="316" cy="644" r="4" fill="rgb(255,255,255)" stroke="none" />
  <circle cx="320" cy="640" r="4" fill="rgb(255,255,255)" stroke="none" />
  <circle cx="320" cy="636" r="4" fill="rgb(255,255,255)" stroke="none" />
  <circle cx="320" cy="632" r="4" fill="rgb(255,255,255)" stroke="none" />
  <circle cx="320" cy="628" r="4" fill="rgb(255,255,255)" stroke="none" />
  <circle cx="320" cy="624" r="4" fill="rgb(255,255,255)" stroke="none" />
  <circle cx="324" cy="620" r="4" fill="rgb(255,255,255)" stroke="none" />
  <circle cx="324" cy="616" r="4" fill="rgb(255,255,255)" stroke="none" />
  <circle cx="324" cy="612" r="4" fill="rgb(255,255,255)" stroke="none" />
  <circle cx="324" cy="608" r="4" fill="rgb(255,255,255)" stroke="none" />
  <circle cx="328" cy="604" r="4" fill="rgb(255,255,255)" stroke="none" />
  <circle cx="328" cy="600" r="4" fill="rgb(255,255,255)" stroke="none" />
  <circle cx="328" cy="596" r="4" fill="rgb(255,255,255)" stroke="none" />
  <circle cx="332" cy="592" r="4" fill="rgb(255,255,255)" stroke="none" />
  <circle cx="332" cy="588" r="4" fill="rgb(255,255,255)" stroke="none" />
  <circle cx="332" cy="584" r="4" fill="rgb(255,255,255)" stroke="none" />
  <circle cx="336" cy="580" r="4" fill="rgb(255,255,255)" stroke="none" />
  <circle cx="336" cy="576" r="4" fill="rgb(255,255,255)" stroke="none" />
  <circle cx="336" cy="572" r="4" fill="rgb(255,255,255)" stroke="none" />
  <circle cx="340" cy="568" r="4" fill="rgb(255,255,255)" stroke="none" />
  <circle cx="340" cy="564" r="4" fill="rgb(255,255,255)" stroke="none" />
  <circle cx="340" cy="560" r="4" fill="rgb(255,255,255)" stroke="none" />
  <circle cx="344" cy="556" r="4" fill="rgb(255,255,255)" stroke="none" />
  <circle cx="344" cy="552" r="4" fill="rgb(255,255,255)" stroke="none" />
  <circle cx="344" cy="548" r="4" fill="rgb(255,255,255)" stroke="none" />
  <circle cx="348" cy="544" r="4" fill="rgb(255,255,255)" stroke="none" />
  <circle cx="348" cy="540" r="4" fill="rgb(255,255,255)" stroke="none" />
  <circle cx="352" cy="536" r="4" fill="rgb(255,255,255)" stroke="none" />
  <circle cx="352" cy="532" r="4" fill="rgb(255,255,255)" stroke="none" />
  <circle cx="356" cy="528" r="4" fill="rgb(255,255,255)" stroke="none" />
  <circle cx="360" cy="524" r="4" fill="rgb(255,255,255)" stroke="none" />
  <circle cx="360" cy="520" r="4" fill="rgb(255,255,255)" stroke="none" />
  <circle cx="364" cy="516" r="4" fill="rgb(255,255,255)" stroke="none" />
  <circle cx="368" cy="512" r="4" fill="rgb(255,255,255)" stroke="none" />
  <circle cx="368" cy="508" r="4" fill="rgb(255,255,255)" stroke="none" />
  <circle cx="372" cy="504" r="4" fill="rgb(255,255,255)" stroke="none" />
  <circle cx="376" cy="500" r="4" fill="rgb(255,255,255)" stroke="none" />
  <circle cx="376" cy="496" r="4" fill="rgb(255,255,255)" stroke="none" />
  <circle cx="380" cy="492" r="4" fill="rgb(255,255,255)" stroke="none" />
  <circle cx="384" cy="488" r="4" fill="rgb(255,255,255)" stroke="none" />
  <circle cx="388" cy="484" r="4" fill="rgb(255,255,255)" stroke="none" />
  <circle cx="388" cy="480" r="4" fill="rgb(255,255,255)" stroke="none" />
  <circle cx="392" cy="476" r="4" fill="rgb(255,255,255)" stroke="none" />
  <circle cx="396" cy="472" r="4" fill="rgb(255,255,255)" stroke="none" />
  <circle cx="400" cy="468" r="4" fill="rgb(255,255,255)" stroke="none" />
  <circle cx="404" cy="464" r="4" fill="rgb(255,255,255)" stroke="none" />
  <circle cx="408" cy="460" r="4" fill="rgb(255,255,255)" stroke="none" />
  <circle cx="412" cy="456" r="4" fill="rgb(255,255,255)" stroke="none" />
  <circle cx="416" cy="452" r="4" fill="rgb(255,255,255)" stroke="none" />
  <circle cx="420" cy="448" r="4" fill="rgb(255,255,255)" stroke="none" />
  <circle cx="424" cy="444" r="4" fill="rgb(255,255,255)" stroke="none" />
  <circle cx="428" cy="440" r="4" fill="rgb(255,255,255)" stroke="none" />
  <circle cx="432" cy="436" r="4" fill="rgb(255,255,255)" stroke="none" />
  <circle cx="436" cy="432" r="4" fill="rgb(255,255,255)" stroke="none" />
  <circle cx="440" cy="428" r="4" fill="rgb(255,255,255)" stroke="none" />
  <circle cx="444" cy="428" r="4" fill="rgb(255,255,255)" stroke="none" />
  <circle cx="448" cy="424" r="4" fill="rgb(255,255,255)" stroke="none" />
  <circle cx="452" cy="424" r="4" fill="rgb(255,255,255)" stroke="none" />
  <circle cx="456" cy="420" r="4" fill="rgb(255,255,255)" stroke="none" />
  <circle cx="460" cy="416" r="4" fill="rgb(255,255,255)" stroke="none" />
  <circle cx="464" cy="416" r="4" fill="rgb(255,255,255)" stroke="none" />
  <circle cx="468" cy="412" r="4" fill="rgb(255,255,255)" stroke="none" />
  <circle cx="472" cy="412" r="4" fill="rgb(255,255,255)" stroke="none" />
  <circle cx="476" cy="408" r="4" fill="rgb(255,255,255)" stroke="none" />
  <circle cx="480" cy="408" r="4" fill="rgb(255,255,255)" stroke="none" />
  <circle cx="484" cy="404" r="4" fill="rgb(255,255,255)" stroke="none" />
  <circle cx="488" cy="404" r="4" fill="rgb(255,255,255)" stroke="none" />
  <circle cx="492" cy="400" r="4" fill="rgb(255,255,255)" stroke="none" />
  <circle cx="496" cy="400" r="4" fill="rgb(255,255,255)" stroke="none" />
  <circle cx="500" cy="396" r="4" fill="rgb(255,255,255)" stroke="none" />
  <circle cx="504" cy="396" r="4" fill="rgb(255,255,255)" stroke="none" />
  <circle cx="508" cy="396" r="4" fill="rgb(255,255,255)" stroke="none" />
  <circle cx="512" cy="392" r="4" fill="rgb(255,255,255)" stroke="none" />
  <circle cx="516" cy="392" r="4" fill="rgb(255,255,255)" stroke="none" />
  <circle cx="520" cy="392" r="4" fill="rgb(255,255,255)" stroke="none" />
  <circle cx="524" cy="388" r="4" fill="rgb(255,255,255)" stroke="none" />
  <circle cx="528" cy="388" r="4" fill="rgb(255,255,255)" stroke="none" />
  <circle cx="532" cy="384" r="4" fill="rgb(255,255,255)" stroke="none" />
  <circle cx="536" cy="384" r="4" fill="rgb(255,255,255)" stroke="none" />
  <circle cx="540" cy="384" r="4" fill="rgb(255,255,255)" stroke="none" />
  <circle cx="544" cy="380" r="4" fill="rgb(255,255,255)" stroke="none" />
  <circle cx="548" cy="380" r="4" fill="rgb(255,255,255)" stroke="none" />
  <circle cx="552" cy="380" r="4" fill="rgb(255,255,255)" stroke="none" />
  <circle cx="556" cy="376" r="4" fill="rgb(255,255,255)" stroke="none" />
  <circle cx="560" cy="376" r="4" fill="rgb(255,255,255)" stroke="none" />
  <circle cx="564" cy="376" r="4" fill="rgb(255,255,255)" stroke="none" />
  <circle cx="568" cy="376" r="4" fill="rgb(255,255,255)" stroke="none" />
  <circle cx="572" cy="372" r="4" fill="rgb(255,255,255)" stroke="none" />
  <circle cx="576" cy="372" r="4" fill="rgb(255,255,255)" stroke="none" />
  <circle cx="580" cy="372" r="4" fill="rgb(255,255,255)" stroke="none" />
  <circle cx="584" cy="372" r="4" fill="rgb(255,255,255)" stroke="none" />
  <circle cx="588" cy="372" r="4" fill="rgb(255,255,255)" stroke="none" />
  <circle cx="592" cy="372" r="4" fill="rgb(255,255,255)" stroke="none" />
  <circle cx="596" cy="372" r="4" fill="rgb(255,255,255)" stroke="none" />
  <circle cx="600" cy="368" r="4" fill="rgb(255,255,255)" stroke="none" />
  <circle cx="604" cy="368" r="4" fill="rgb(255,255,255)" stroke="none" />
  <circle cx="608" cy="368" r="4" fill="rgb(255,255,255)" stroke="none" />
  <circle cx="612" cy="368" r="4" fill="rgb(255,255,255)" stroke="none" />
</svg>